<?xml version="1.0" encoding="utf-8"?>
<!-- Generator: Adobe Illustrator 15.1.0, SVG Export Plug-In . SVG Version: 6.00 Build 0)  -->
<!DOCTYPE svg PUBLIC "-//W3C//DTD SVG 1.1//EN" "http://www.w3.org/Graphics/SVG/1.1/DTD/svg11.dtd">
<svg version="1.1" id="Layer_1" xmlns="http://www.w3.org/2000/svg" xmlns:xlink="http://www.w3.org/1999/xlink" x="0px" y="0px"
	 width="563px" height="430px" viewBox="0 0 563 430" enable-background="new 0 0 563 430" xml:space="preserve">
<g>
	<g>
		<path fill="#42B9E8" d="M349.127,425.339c-38.526,0-75.391-10.291-107.402-29.341c-24.832,16.715-54.518,26.161-85.714,26.161
			c-84.669,0-153.55-68.886-153.55-153.541c0-84.668,68.881-153.549,153.55-153.549c2.553,0,5.095,0.055,7.625,0.188
			C199.377,48.768,269.596,4.355,349.127,4.355c116.061,0,210.488,94.427,210.488,210.497
			C559.615,330.916,465.188,425.339,349.127,425.339L349.127,425.339z"/>
		<path fill="#205469" d="M349.127,70.92c-73.667,0-134.358,55.359-142.862,126.725c-14.204-10.072-31.529-16.001-50.254-16.001
			c-48.036,0-86.976,38.936-86.976,86.975c0,48.031,38.94,86.969,86.976,86.969c35.659,0,66.287-21.464,79.713-52.169
			c26.332,33.681,67.324,55.345,113.403,55.345c79.482,0,143.919-64.43,143.919-143.912
			C493.046,135.356,428.609,70.92,349.127,70.92z"/>
	</g>
</g>
</svg>
