<?xml version="1.0" encoding="utf-8"?>
<!-- Generator: Adobe Illustrator 15.1.0, SVG Export Plug-In . SVG Version: 6.00 Build 0)  -->
<!DOCTYPE svg PUBLIC "-//W3C//DTD SVG 1.1//EN" "http://www.w3.org/Graphics/SVG/1.1/DTD/svg11.dtd">
<svg version="1.1" id="Ebene_1" xmlns="http://www.w3.org/2000/svg" xmlns:xlink="http://www.w3.org/1999/xlink" x="0px" y="0px"
	 width="586.486px" height="425.676px" viewBox="0 0 586.486 425.676" enable-background="new 0 0 586.486 425.676"
	 xml:space="preserve">
<path fill="#42B9E8" d="M369.003,425.676c119.919,0,217.482-95.509,217.482-212.9c0-117.397-97.563-212.906-217.482-212.906
	c-82.172,0-154.728,44.923-191.654,112.163c-2.615-0.127-5.248-0.185-7.881-0.185c-87.481,0-158.656,69.67-158.656,155.313
	c0,85.622,71.175,155.296,158.656,155.296c32.234,0,62.904-9.553,88.567-26.458C291.109,415.263,329.198,425.676,369.003,425.676
	L369.003,425.676z"/>
<path fill="#1F5469" d="M517.694,212.776c0,80.396-66.582,145.565-148.704,145.565c-47.607,0-89.96-21.921-117.17-55.983
	c-13.873,31.057-45.521,52.767-82.364,52.767c-49.633,0-89.862-39.38-89.862-87.963c0-48.594,40.229-87.976,89.862-87.976
	c19.352,0,37.254,6.001,51.927,16.189c8.78-72.188,71.49-128.177,147.607-128.177C451.112,67.198,517.693,132.371,517.694,212.776z"
	/>
</svg>
