<?xml version="1.0" encoding="utf-8"?>
<!-- Generator: Adobe Illustrator 15.1.0, SVG Export Plug-In . SVG Version: 6.00 Build 0)  -->
<!DOCTYPE svg PUBLIC "-//W3C//DTD SVG 1.1//EN" "http://www.w3.org/Graphics/SVG/1.1/DTD/svg11.dtd">
<svg version="1.1" id="Layer_1" xmlns="http://www.w3.org/2000/svg" xmlns:xlink="http://www.w3.org/1999/xlink" x="0px" y="0px"
	 width="235.451px" height="49.231px" viewBox="12.781 4 235.451 49.231" enable-background="new 12.781 4 235.451 49.231"
	 xml:space="preserve">
<g>
	<g>
		
			<linearGradient id="SVGID_1_" gradientUnits="userSpaceOnUse" x1="45.0698" y1="1505.8123" x2="45.0698" y2="1471.2596" gradientTransform="matrix(1 0 0 1 -0.3203 -1453.7109)">
			<stop  offset="0" style="stop-color:#00A4E3"/>
			<stop  offset="1" style="stop-color:#65C9F3"/>
		</linearGradient>
		<path fill="url(#SVGID_1_)" d="M52.563,47.296c-4.421,0-8.651-1.058-12.324-3.016c-2.85,1.717-6.256,2.69-9.837,2.69
			c-9.717,0-17.621-7.085-17.621-15.791c0-8.709,7.905-15.793,17.621-15.793c0.293,0,0.585,0.006,0.875,0.019
			C35.378,8.568,43.437,4,52.563,4c13.319,0,24.156,9.711,24.156,21.649C76.718,37.586,65.881,47.296,52.563,47.296L52.563,47.296z"
			/>
		<path fill="#FFFFFF" d="M52.563,10.846c-8.454,0-15.419,5.692-16.394,13.033c-1.63-1.036-3.618-1.647-5.768-1.647
			c-5.512,0-9.98,4.005-9.98,8.945c0,4.94,4.468,8.943,9.98,8.943c4.093,0,7.607-2.207,9.148-5.365
			c3.022,3.465,7.727,5.693,13.014,5.693c9.121,0,16.516-6.626,16.516-14.8C69.078,17.472,61.684,10.846,52.563,10.846z"/>
	</g>
	<g>
		
			<linearGradient id="SVGID_2_" gradientUnits="userSpaceOnUse" x1="96.1348" y1="1505.8123" x2="96.1348" y2="1471.2606" gradientTransform="matrix(1 0 0 1 -0.3203 -1453.7109)">
			<stop  offset="0" style="stop-color:#00A4E3"/>
			<stop  offset="1" style="stop-color:#65C9F3"/>
		</linearGradient>
		<path fill="url(#SVGID_2_)" d="M95.786,42.82c-1.057,0-1.965-0.334-2.7-0.994c-0.736-0.659-1.108-1.472-1.108-2.42V10.128
			c0-0.946,0.372-1.76,1.108-2.42c0.736-0.66,1.642-0.994,2.699-0.994c1.052,0,1.967,0.332,2.719,0.987
			c0.761,0.661,1.147,1.479,1.147,2.427v29.279c0,0.951-0.386,1.767-1.148,2.428C97.753,42.487,96.838,42.82,95.786,42.82
			L95.786,42.82z"/>
		
			<linearGradient id="SVGID_3_" gradientUnits="userSpaceOnUse" x1="96.1348" y1="1505.8142" x2="96.1348" y2="1471.2618" gradientTransform="matrix(1 0 0 1 -0.3203 -1453.7109)">
			<stop  offset="0" style="stop-color:#00A4E3"/>
			<stop  offset="1" style="stop-color:#65C9F3"/>
		</linearGradient>
		<path fill="url(#SVGID_3_)" d="M92.742,10.128c0-0.761,0.295-1.406,0.886-1.935c0.589-0.53,1.31-0.795,2.158-0.795
			c0.85,0,1.579,0.264,2.188,0.795c0.609,0.529,0.914,1.175,0.914,1.935v29.279c0,0.761-0.306,1.408-0.914,1.935
			c-0.609,0.53-1.337,0.794-2.188,0.794c-0.85,0-1.569-0.264-2.158-0.794c-0.59-0.526-0.886-1.174-0.886-1.935V10.128z"/>
	</g>
	<g>
		
			<linearGradient id="SVGID_4_" gradientUnits="userSpaceOnUse" x1="116.4912" y1="1505.8123" x2="116.4912" y2="1471.2594" gradientTransform="matrix(1 0 0 1 -0.3203 -1453.7109)">
			<stop  offset="0" style="stop-color:#00A4E3"/>
			<stop  offset="1" style="stop-color:#65C9F3"/>
		</linearGradient>
		<path fill="url(#SVGID_4_)" d="M116.388,42.793c-4.053-0.015-7.496-1.313-10.234-3.855c-2.73-2.532-4.136-5.628-4.175-9.2
			c0.04-3.587,1.444-6.69,4.173-9.241c2.74-2.559,6.1-3.859,9.99-3.859c3.877,0,7.195,1.157,9.86,3.44
			c2.661,2.283,4.125,5.216,4.359,8.718l0.001,0.29c0,0.922-0.353,1.683-1.046,2.26c-0.679,0.565-1.569,0.855-2.652,0.855h-16.618
			c0.32,0.878,0.792,1.58,1.409,2.086c0.021,0.016,0.042,0.036,0.061,0.057c1.049,1.088,2.627,1.751,4.692,1.977
			c0.398,0.043,0.792,0.065,1.169,0.065c1.573,0,2.926-0.368,4.136-1.123c0.695-0.635,1.608-0.958,2.713-0.958
			c1.169,0,2.024,0.309,2.545,0.914c1.244,1.233,1.252,2.695-0.016,4.077c-0.024,0.023-0.049,0.049-0.075,0.069
			c-2.77,2.277-6.201,3.429-10.2,3.429H116.388L116.388,42.793z M123.34,26.614c-0.422-0.728-1.113-1.451-2.066-2.165
			c-1.314-0.986-3.009-1.565-5.031-1.724c-1.92,0.097-3.473,0.635-4.614,1.599c-0.871,0.734-1.483,1.502-1.833,2.292L123.34,26.614
			L123.34,26.614z"/>
		
			<linearGradient id="SVGID_5_" gradientUnits="userSpaceOnUse" x1="116.4912" y1="1505.8152" x2="116.4912" y2="1471.2606" gradientTransform="matrix(1 0 0 1 -0.3203 -1453.7109)">
			<stop  offset="0" style="stop-color:#00A4E3"/>
			<stop  offset="1" style="stop-color:#65C9F3"/>
		</linearGradient>
		<path fill="url(#SVGID_5_)" d="M129.598,29.084c0,0.729-0.266,1.316-0.801,1.761c-0.538,0.448-1.246,0.671-2.133,0.671h-17.609
			c0.333,1.423,0.959,2.514,1.882,3.274c1.184,1.226,2.909,1.96,5.178,2.21c2.271,0.248,4.234-0.157,5.897-1.216
			c0.554-0.528,1.292-0.794,2.214-0.794c0.924,0,1.571,0.217,1.939,0.646c1.032,1.026,1.032,2.102,0,3.226
			c-2.656,2.185-5.917,3.269-9.774,3.249c-3.856-0.016-7.086-1.231-9.687-3.648c-2.603-2.413-3.922-5.324-3.96-8.732
			c0.038-3.409,1.357-6.328,3.96-8.76c2.602-2.431,5.748-3.646,9.439-3.646c3.692,0,6.803,1.083,9.333,3.249
			c2.528,2.167,3.903,4.92,4.122,8.262V29.084L129.598,29.084z M116.253,22.038c-2.14,0.1-3.857,0.696-5.149,1.787
			c-1.293,1.09-2.068,2.249-2.326,3.473h15.67c-0.332-1.157-1.227-2.283-2.687-3.375C120.306,22.831,118.47,22.205,116.253,22.038z"
			/>
	</g>
	<g>
		
			<linearGradient id="SVGID_6_" gradientUnits="userSpaceOnUse" x1="204.2075" y1="1505.8132" x2="204.2075" y2="1471.2604" gradientTransform="matrix(1 0 0 1 -0.3203 -1453.7109)">
			<stop  offset="0" style="stop-color:#00A4E3"/>
			<stop  offset="1" style="stop-color:#65C9F3"/>
		</linearGradient>
		<path fill="url(#SVGID_6_)" d="M203.997,42.97c-3.93,0-7.302-1.309-10.023-3.889c-2.71-2.567-4.084-5.68-4.084-9.254
			c0-3.571,1.382-6.695,4.112-9.28c2.739-2.594,6.083-3.91,9.94-3.91c3.863,0,7.19,1.336,9.894,3.968
			c2.687,2.617,4.05,5.769,4.05,9.371c0,3.616-1.383,6.652-4.11,9.026C211.245,41.623,207.939,42.97,203.997,42.97L203.997,42.97z
			 M199.242,34.574c1.292,1.089,2.812,1.615,4.645,1.615c1.842,0,3.374-0.538,4.678-1.648c1.279-1.295,1.921-2.869,1.921-4.763
			c0-1.889-0.64-3.423-1.956-4.695c-1.399-1.106-2.937-1.667-4.643-1.667c-1.691,0-3.217,0.551-4.661,1.684
			c-1.192,1.266-1.774,2.798-1.774,4.679C197.45,31.642,198.053,33.257,199.242,34.574L199.242,34.574z"/>
		
			<linearGradient id="SVGID_7_" gradientUnits="userSpaceOnUse" x1="204.2056" y1="1505.8162" x2="204.2056" y2="1471.261" gradientTransform="matrix(1 0 0 1 -0.3203 -1453.7109)">
			<stop  offset="0" style="stop-color:#00A4E3"/>
			<stop  offset="1" style="stop-color:#65C9F3"/>
		</linearGradient>
		<path fill="url(#SVGID_7_)" d="M203.997,42.287c-3.73,0-6.886-1.227-9.468-3.675c-2.586-2.446-3.878-5.374-3.878-8.782
			c0-3.407,1.303-6.343,3.905-8.808c2.602-2.466,5.734-3.696,9.388-3.696c3.654,0,6.766,1.248,9.327,3.747
			c2.567,2.5,3.849,5.467,3.849,8.908c0,3.44-1.293,6.285-3.878,8.536C210.808,41.029,207.723,42.287,203.997,42.287z M198.68,24.62
			c-1.33,1.389-1.994,3.109-1.994,5.162c0,2.05,0.664,3.803,1.994,5.258c1.437,1.224,3.174,1.836,5.204,1.836
			c2.031,0,3.765-0.612,5.206-1.836c1.438-1.453,2.16-3.209,2.16-5.258c0-2.054-0.722-3.773-2.16-5.162
			c-1.588-1.258-3.322-1.887-5.206-1.887C202.001,22.733,200.266,23.362,198.68,24.62z"/>
	</g>
	<g>
		
			<linearGradient id="SVGID_8_" gradientUnits="userSpaceOnUse" x1="234.5532" y1="1505.8132" x2="234.5532" y2="1471.2604" gradientTransform="matrix(1 0 0 1 -0.3203 -1453.7109)">
			<stop  offset="0" style="stop-color:#00A4E3"/>
			<stop  offset="1" style="stop-color:#65C9F3"/>
		</linearGradient>
		<path fill="url(#SVGID_8_)" d="M234.343,42.97c-3.93,0-7.303-1.309-10.023-3.889c-2.707-2.567-4.085-5.68-4.085-9.254
			c0-3.57,1.386-6.693,4.112-9.28c2.741-2.594,6.086-3.91,9.94-3.91c3.863,0,7.19,1.336,9.895,3.968
			c2.686,2.617,4.05,5.769,4.05,9.371c0,3.616-1.383,6.652-4.108,9.026C241.591,41.621,238.286,42.97,234.343,42.97L234.343,42.97z
			 M229.588,34.572c1.292,1.091,2.812,1.617,4.643,1.617c1.843,0,3.373-0.538,4.678-1.648c1.277-1.295,1.918-2.864,1.918-4.763
			c0-1.89-0.637-3.426-1.951-4.695c-1.402-1.106-2.94-1.667-4.645-1.667c-1.693,0-3.218,0.551-4.66,1.684
			c-1.193,1.266-1.773,2.796-1.773,4.679C227.795,31.672,228.382,33.24,229.588,34.572L229.588,34.572z"/>
		
			<linearGradient id="SVGID_9_" gradientUnits="userSpaceOnUse" x1="234.5532" y1="1505.8162" x2="234.5532" y2="1471.261" gradientTransform="matrix(1 0 0 1 -0.3203 -1453.7109)">
			<stop  offset="0" style="stop-color:#00A4E3"/>
			<stop  offset="1" style="stop-color:#65C9F3"/>
		</linearGradient>
		<path fill="url(#SVGID_9_)" d="M234.343,42.287c-3.729,0-6.886-1.227-9.466-3.675C222.29,36.166,221,33.238,221,29.83
			c0-3.407,1.302-6.343,3.902-8.808c2.604-2.466,5.731-3.696,9.386-3.696c3.655,0,6.766,1.248,9.332,3.747s3.846,5.467,3.846,8.908
			c0,3.44-1.293,6.285-3.874,8.536C241.153,41.029,238.069,42.287,234.343,42.287z M229.028,24.62
			c-1.331,1.389-1.995,3.109-1.995,5.162c0,2.05,0.664,3.803,1.995,5.258c1.439,1.224,3.174,1.836,5.203,1.836
			s3.766-0.612,5.204-1.836c1.44-1.453,2.16-3.209,2.16-5.258c0-2.054-0.72-3.773-2.16-5.162c-1.589-1.258-3.321-1.887-5.204-1.887
			C232.347,22.733,230.612,23.362,229.028,24.62z"/>
	</g>
	<g>
		
			<linearGradient id="SVGID_10_" gradientUnits="userSpaceOnUse" x1="145.2544" y1="1505.8123" x2="145.2544" y2="1471.2618" gradientTransform="matrix(1 0 0 1 -0.3203 -1453.7109)">
			<stop  offset="0" style="stop-color:#00A4E3"/>
			<stop  offset="1" style="stop-color:#65C9F3"/>
		</linearGradient>
		<path fill="url(#SVGID_10_)" d="M153.627,42.82c-0.994,0-1.872-0.321-2.608-0.961c-0.742-0.646-1.118-1.437-1.118-2.353V27.646
			c0-1.207-0.475-2.206-1.455-3.054c-0.988-0.856-2.139-1.274-3.511-1.274c-1.368,0-2.485,0.412-3.415,1.26
			c-0.933,0.85-1.387,1.854-1.387,3.067v11.861c0,0.927-0.4,1.72-1.189,2.366c-0.773,0.628-1.662,0.947-2.65,0.947
			c-0.998,0-1.869-0.325-2.585-0.971c-0.718-0.639-1.084-1.429-1.084-2.345V26.846c0-0.034,0.004-0.071,0.009-0.103
			c0.799-4.666,3.701-7.177,5.995-8.464c0.021-0.013,0.042-0.021,0.061-0.032c1.909-1.068,4-1.609,6.215-1.609
			c3.409,0,6.348,1.095,8.735,3.255c2.391,2.158,3.602,4.765,3.602,7.75v11.861c0,0.906-0.352,1.694-1.046,2.334
			C155.495,42.492,154.631,42.82,153.627,42.82L153.627,42.82z"/>
		
			<linearGradient id="SVGID_11_" gradientUnits="userSpaceOnUse" x1="145.2544" y1="1505.8152" x2="145.2544" y2="1471.2615" gradientTransform="matrix(1 0 0 1 -0.3203 -1453.7109)">
			<stop  offset="0" style="stop-color:#00A4E3"/>
			<stop  offset="1" style="stop-color:#65C9F3"/>
		</linearGradient>
		<path fill="url(#SVGID_11_)" d="M153.098,20.375c-2.25-2.034-4.98-3.049-8.193-3.049c-2.103,0-4.057,0.513-5.868,1.538
			c0-0.001,0-0.001,0-0.002c-2.145,1.204-4.888,3.561-5.647,7.987v12.659c0,0.729,0.286,1.347,0.86,1.859
			c0.571,0.515,1.251,0.769,2.045,0.769s1.504-0.256,2.134-0.769c0.626-0.513,0.94-1.133,0.94-1.859V27.646
			c0-1.388,0.535-2.571,1.605-3.547c1.069-0.976,2.389-1.465,3.96-1.465c1.563,0,2.913,0.489,4.042,1.465
			c1.125,0.975,1.688,2.159,1.688,3.547v11.862c0,0.729,0.298,1.347,0.885,1.859c0.594,0.515,1.283,0.769,2.078,0.769
			s1.467-0.256,2.02-0.769s0.832-1.133,0.832-1.859V27.646C156.478,24.833,155.354,22.411,153.098,20.375z"/>
	</g>
	<g>
		
			<linearGradient id="SVGID_12_" gradientUnits="userSpaceOnUse" x1="173.8892" y1="1505.8132" x2="173.8892" y2="1471.2604" gradientTransform="matrix(1 0 0 1 -0.3203 -1453.7109)">
			<stop  offset="0" style="stop-color:#00A4E3"/>
			<stop  offset="1" style="stop-color:#65C9F3"/>
		</linearGradient>
		<path fill="url(#SVGID_12_)" d="M173.677,42.97c-3.93,0-7.3-1.309-10.022-3.889c-2.711-2.566-4.084-5.68-4.084-9.254
			c0-3.571,1.384-6.695,4.11-9.28c2.742-2.594,6.086-3.91,9.942-3.91c3.86,0,7.188,1.336,9.891,3.968
			c2.689,2.617,4.053,5.769,4.053,9.371c0,3.618-1.384,6.653-4.109,9.026C180.923,41.621,177.62,42.97,173.677,42.97L173.677,42.97z
			 M168.923,34.572c1.296,1.091,2.814,1.617,4.644,1.617c1.844,0,3.374-0.538,4.677-1.648c1.28-1.296,1.924-2.869,1.924-4.763
			c0-1.889-0.639-3.423-1.956-4.695c-1.402-1.106-2.937-1.667-4.646-1.667c-1.688,0-3.214,0.551-4.657,1.684
			c-1.197,1.267-1.778,2.799-1.778,4.679C167.13,31.642,167.734,33.255,168.923,34.572L168.923,34.572z"/>
		
			<linearGradient id="SVGID_13_" gradientUnits="userSpaceOnUse" x1="173.8872" y1="1505.8162" x2="173.8872" y2="1471.261" gradientTransform="matrix(1 0 0 1 -0.3203 -1453.7109)">
			<stop  offset="0" style="stop-color:#00A4E3"/>
			<stop  offset="1" style="stop-color:#65C9F3"/>
		</linearGradient>
		<path fill="url(#SVGID_13_)" d="M173.677,42.287c-3.728,0-6.883-1.227-9.467-3.675c-2.588-2.446-3.876-5.374-3.876-8.782
			c0-3.407,1.299-6.343,3.899-8.808c2.604-2.466,5.732-3.696,9.388-3.696c3.654,0,6.765,1.248,9.33,3.747
			c2.564,2.5,3.848,5.467,3.848,8.908c0,3.44-1.294,6.285-3.876,8.536C180.488,41.029,177.406,42.287,173.677,42.287z
			 M168.363,24.62c-1.328,1.389-1.995,3.109-1.995,5.162c0,2.05,0.667,3.803,1.995,5.258c1.438,1.224,3.175,1.836,5.205,1.836
			c2.029,0,3.763-0.612,5.203-1.836c1.439-1.453,2.16-3.209,2.16-5.258c0-2.054-0.721-3.773-2.16-5.162
			c-1.584-1.258-3.32-1.887-5.203-1.887C171.684,22.733,169.95,23.362,168.363,24.62z"/>
		
			<linearGradient id="SVGID_14_" gradientUnits="userSpaceOnUse" x1="177.2407" y1="1505.8162" x2="177.2407" y2="1471.2618" gradientTransform="matrix(1 0 0 1 -0.3203 -1453.7109)">
			<stop  offset="0" style="stop-color:#00A4E3"/>
			<stop  offset="1" style="stop-color:#65C9F3"/>
		</linearGradient>
		<path fill="url(#SVGID_14_)" d="M182.561,36.304c-0.569-0.656-1.191-1.227-1.863-1.723l-4.252,4.999
			c0.212,0.174,0.415,0.362,0.599,0.577c0.792,0.908,1.104,1.946,0.945,3.111c-0.163,1.167-0.753,2.103-1.767,2.813
			c-1.017,0.707-2.174,0.988-3.476,0.843c-1.011-0.112-1.88,0.084-2.612,0.595c-0.731,0.51-1.156,1.218-1.285,2.125
			c-0.127,0.908,0.098,1.688,0.665,2.344c0.57,0.655,1.361,1.037,2.372,1.152c3.22,0.357,6.098-0.345,8.633-2.112
			c2.536-1.769,4.005-4.099,4.402-6.984C185.323,41.155,184.537,38.576,182.561,36.304z"/>
	</g>
</g>
</svg>
