<?xml version="1.0" encoding="utf-8"?>
<!-- Generator: Adobe Illustrator 15.1.0, SVG Export Plug-In . SVG Version: 6.00 Build 0)  -->
<!DOCTYPE svg PUBLIC "-//W3C//DTD SVG 1.1//EN" "http://www.w3.org/Graphics/SVG/1.1/DTD/svg11.dtd">
<svg version="1.1" id="Layer_1" xmlns="http://www.w3.org/2000/svg" xmlns:xlink="http://www.w3.org/1999/xlink" x="0px" y="0px"
	 width="223px" height="53px" viewBox="0 0 223 53" enable-background="new 0 0 223 53" xml:space="preserve">
<g>
	<g>
		<path fill="#42B9E8" d="M38.462,46.537c-4.135,0-8.091-1.104-11.527-3.149c-2.665,1.794-5.851,2.808-9.199,2.808
			c-9.087,0-16.479-7.393-16.479-16.479c0-9.087,7.393-16.479,16.479-16.479c0.274,0,0.547,0.006,0.818,0.02
			C22.39,6.122,29.926,1.355,38.462,1.355c12.456,0,22.59,10.134,22.59,22.591C61.052,36.403,50.918,46.537,38.462,46.537
			L38.462,46.537z"/>
		<path fill="#FFFFFF" d="M38.462,8.499c-7.906,0-14.42,5.941-15.333,13.601c-1.524-1.081-3.384-1.717-5.394-1.717
			c-5.155,0-9.334,4.179-9.334,9.334c0,5.155,4.179,9.334,9.334,9.334c3.827,0,7.114-2.304,8.555-5.599
			c2.826,3.615,7.226,5.94,12.171,5.94c8.53,0,15.446-6.915,15.446-15.445C53.908,15.415,46.992,8.499,38.462,8.499z"/>
	</g>
	<g>
		<path fill="#42B9E8" d="M78.885,41.865c-0.989,0-1.838-0.349-2.525-1.038c-0.687-0.687-1.036-1.536-1.036-2.525V7.75
			c0-0.987,0.349-1.836,1.037-2.525s1.536-1.038,2.524-1.038c0.983,0,1.838,0.347,2.542,1.03C82.139,5.907,82.5,6.759,82.5,7.75
			v30.552c0,0.993-0.361,1.845-1.073,2.534C80.724,41.519,79.87,41.865,78.885,41.865L78.885,41.865z"/>
		<path fill="#42B9E8" d="M76.038,7.75c0-0.793,0.276-1.467,0.829-2.02c0.551-0.553,1.224-0.829,2.019-0.829
			c0.794,0,1.476,0.276,2.045,0.829c0.571,0.553,0.855,1.226,0.855,2.02v30.552c0,0.795-0.285,1.469-0.855,2.02
			c-0.569,0.553-1.25,0.829-2.045,0.829c-0.795,0-1.468-0.276-2.019-0.829c-0.553-0.551-0.829-1.225-0.829-2.02V7.75z"/>
	</g>
	<g>
		<path fill="#42B9E8" d="M98.152,41.839c-3.79-0.018-7.01-1.372-9.571-4.024c-2.553-2.643-3.867-5.874-3.905-9.602
			c0.038-3.742,1.351-6.981,3.903-9.642c2.563-2.67,5.706-4.026,9.344-4.026c3.626,0,6.728,1.208,9.221,3.589
			c2.488,2.381,3.859,5.441,4.077,9.096l0.001,0.302c0,0.964-0.331,1.757-0.979,2.36c-0.634,0.591-1.468,0.891-2.48,0.891H92.222
			c0.299,0.917,0.741,1.648,1.317,2.177c0.02,0.019,0.039,0.039,0.056,0.059c0.98,1.134,2.457,1.828,4.388,2.063
			c0.373,0.045,0.74,0.069,1.093,0.069c1.471,0,2.737-0.384,3.869-1.173c0.651-0.663,1.504-0.999,2.538-0.999
			c1.094,0,1.894,0.321,2.38,0.952c1.164,1.288,1.17,2.814-0.015,4.255c-0.022,0.026-0.045,0.05-0.069,0.072
			c-2.589,2.376-5.8,3.58-9.538,3.581L98.152,41.839z M104.653,24.953c-0.394-0.758-1.04-1.515-1.931-2.26
			c-1.23-1.028-2.815-1.633-4.707-1.799c-1.796,0.101-3.247,0.662-4.314,1.668c-0.814,0.766-1.388,1.568-1.715,2.391H104.653z"/>
		<path fill="#42B9E8" d="M110.506,27.532c0,0.759-0.249,1.373-0.75,1.837c-0.502,0.468-1.166,0.7-1.994,0.7H91.295
			c0.312,1.484,0.897,2.624,1.761,3.417c1.106,1.278,2.719,2.046,4.842,2.305c2.124,0.258,3.962-0.164,5.515-1.27
			c0.519-0.552,1.208-0.829,2.071-0.829c0.864,0,1.469,0.226,1.813,0.674c0.966,1.07,0.966,2.192,0,3.365
			c-2.484,2.279-5.533,3.411-9.141,3.393c-3.606-0.018-6.627-1.286-9.06-3.807c-2.436-2.521-3.669-5.557-3.704-9.113
			c0.035-3.557,1.269-6.603,3.704-9.142c2.433-2.536,5.375-3.806,8.828-3.806c3.452,0,6.361,1.131,8.728,3.392
			c2.362,2.262,3.65,5.136,3.855,8.622V27.532z M98.026,20.178c-2.001,0.104-3.606,0.726-4.815,1.865
			c-1.208,1.139-1.934,2.348-2.175,3.625h14.656c-0.312-1.207-1.148-2.382-2.512-3.521C101.816,21.007,100.099,20.353,98.026,20.178
			z"/>
	</g>
	<g>
		<path fill="#42B9E8" d="M180.085,42.021c-3.674,0-6.829-1.365-9.374-4.057c-2.535-2.679-3.821-5.927-3.821-9.656
			c0-3.727,1.293-6.985,3.844-9.684c2.564-2.708,5.692-4.081,9.298-4.081c3.611,0,6.724,1.393,9.251,4.141
			c2.513,2.731,3.788,6.021,3.788,9.778c0,3.773-1.292,6.942-3.842,9.419C186.864,40.614,183.772,42.021,180.085,42.021
			L180.085,42.021z M175.638,33.259c1.209,1.136,2.631,1.688,4.344,1.688c1.724,0,3.156-0.563,4.375-1.72
			c1.196-1.352,1.797-2.992,1.797-4.97c0-1.971-0.599-3.574-1.831-4.9c-1.309-1.155-2.745-1.74-4.342-1.74
			c-1.583,0-3.008,0.574-4.359,1.756c-1.115,1.321-1.66,2.92-1.66,4.884C173.963,30.201,174.527,31.884,175.638,33.259
			L175.638,33.259z"/>
		<path fill="#42B9E8" d="M180.085,41.307c-3.488,0-6.438-1.277-8.854-3.833c-2.418-2.555-3.625-5.609-3.625-9.165
			c0-3.555,1.217-6.62,3.649-9.192c2.435-2.572,5.36-3.858,8.778-3.858c3.417,0,6.326,1.303,8.725,3.91
			c2.398,2.607,3.602,5.704,3.602,9.295c0,3.591-1.21,6.559-3.626,8.907C186.455,39.995,183.57,41.307,180.085,41.307z
			 M175.114,22.872c-1.243,1.45-1.865,3.245-1.865,5.386c0,2.139,0.623,3.97,1.865,5.488c1.344,1.278,2.969,1.917,4.868,1.917
			s3.521-0.639,4.867-1.917c1.346-1.518,2.02-3.349,2.02-5.488c0-2.141-0.674-3.936-2.02-5.386
			c-1.484-1.313-3.107-1.968-4.867-1.968C178.22,20.903,176.597,21.559,175.114,22.872z"/>
	</g>
	<g>
		<path fill="#42B9E8" d="M208.466,42.021c-3.675,0-6.829-1.365-9.374-4.057c-2.535-2.679-3.822-5.927-3.822-9.656
			c0-3.726,1.295-6.984,3.846-9.684c2.564-2.708,5.692-4.081,9.296-4.081c3.612,0,6.725,1.393,9.254,4.141
			c2.512,2.731,3.786,6.021,3.786,9.778c0,3.773-1.293,6.942-3.842,9.419C215.244,40.613,212.153,42.021,208.466,42.021
			L208.466,42.021z M204.019,33.258c1.211,1.138,2.632,1.689,4.342,1.689c1.725,0,3.156-0.563,4.376-1.72
			c1.195-1.351,1.796-2.991,1.796-4.97c0-1.974-0.597-3.576-1.828-4.9c-1.311-1.155-2.749-1.74-4.345-1.74
			c-1.582,0-3.007,0.574-4.356,1.756c-1.118,1.32-1.661,2.918-1.661,4.884C202.344,30.23,202.892,31.867,204.019,33.258
			L204.019,33.258z"/>
		<path fill="#42B9E8" d="M208.466,41.307c-3.489,0-6.439-1.277-8.855-3.833c-2.417-2.555-3.626-5.609-3.626-9.165
			c0-3.555,1.219-6.62,3.65-9.192c2.436-2.572,5.359-3.858,8.777-3.858s6.328,1.303,8.728,3.91c2.398,2.607,3.598,5.704,3.598,9.295
			c0,3.591-1.209,6.559-3.625,8.907C214.835,39.995,211.951,41.307,208.466,41.307z M203.495,22.872
			c-1.245,1.45-1.865,3.245-1.865,5.386c0,2.139,0.62,3.97,1.865,5.488c1.347,1.278,2.968,1.917,4.866,1.917
			s3.521-0.639,4.869-1.917c1.347-1.518,2.019-3.349,2.019-5.488c0-2.141-0.672-3.936-2.019-5.386
			c-1.485-1.313-3.106-1.968-4.869-1.968C206.6,20.903,204.977,21.559,203.495,22.872z"/>
	</g>
	<g>
		<path fill="#42B9E8" d="M132.979,41.865c-0.929,0-1.75-0.337-2.439-1.003c-0.695-0.675-1.046-1.5-1.046-2.456V26.029
			c0-1.259-0.445-2.302-1.361-3.188c-0.924-0.893-1.999-1.328-3.283-1.328c-1.28,0-2.324,0.431-3.194,1.315
			c-0.873,0.887-1.296,1.934-1.296,3.201v12.377c0,0.966-0.375,1.797-1.112,2.47c-0.723,0.657-1.555,0.989-2.478,0.989
			c-0.934,0-1.748-0.341-2.419-1.012c-0.67-0.667-1.012-1.492-1.012-2.447v-13.21c0-0.036,0.003-0.072,0.009-0.108
			c0.748-4.867,3.461-7.489,5.607-8.832c0.019-0.012,0.038-0.023,0.057-0.033c1.786-1.114,3.741-1.678,5.812-1.678
			c3.188,0,5.937,1.143,8.17,3.396c2.235,2.252,3.368,4.973,3.368,8.089v12.377c0,0.948-0.329,1.769-0.979,2.438
			C134.727,41.521,133.918,41.865,132.979,41.865L132.979,41.865z"/>
		<path fill="#42B9E8" d="M132.484,18.443c-2.104-2.123-4.658-3.184-7.663-3.184c-1.967,0-3.795,0.536-5.489,1.605
			c0-0.001,0-0.001,0-0.003c-2.006,1.256-4.571,3.717-5.28,8.335v13.21c0,0.76,0.267,1.407,0.803,1.941
			c0.535,0.537,1.17,0.804,1.914,0.804c0.743,0,1.406-0.267,1.995-0.804c0.587-0.534,0.88-1.181,0.88-1.941V26.029
			c0-1.449,0.5-2.683,1.502-3.702c1-1.018,2.234-1.528,3.704-1.528c1.464,0,2.726,0.51,3.78,1.528
			c1.053,1.019,1.579,2.252,1.579,3.702v12.377c0,0.76,0.278,1.407,0.828,1.941c0.554,0.537,1.2,0.804,1.943,0.804
			c0.742,0,1.372-0.267,1.89-0.804c0.518-0.534,0.777-1.181,0.777-1.941V26.029C135.645,23.095,134.592,20.566,132.484,18.443z"/>
	</g>
	<g>
		<path fill="#42B9E8" d="M151.731,42.021c-3.676,0-6.829-1.365-9.374-4.057c-2.535-2.678-3.821-5.926-3.821-9.656
			c0-3.727,1.294-6.985,3.844-9.684c2.566-2.708,5.694-4.081,9.299-4.081c3.609,0,6.722,1.393,9.25,4.141
			c2.517,2.731,3.791,6.021,3.791,9.778c0,3.774-1.294,6.943-3.844,9.419C158.507,40.613,155.417,42.021,151.731,42.021
			L151.731,42.021z M147.284,33.258c1.212,1.138,2.632,1.689,4.342,1.689c1.725,0,3.156-0.563,4.375-1.72
			c1.197-1.353,1.798-2.992,1.798-4.97c0-1.971-0.598-3.574-1.83-4.9c-1.311-1.155-2.746-1.74-4.344-1.74
			c-1.579,0-3.005,0.574-4.356,1.756c-1.119,1.323-1.663,2.921-1.663,4.884C145.607,30.201,146.172,31.883,147.284,33.258
			L147.284,33.258z"/>
		<path fill="#42B9E8" d="M151.731,41.307c-3.487,0-6.439-1.277-8.854-3.833c-2.42-2.555-3.627-5.609-3.627-9.165
			c0-3.555,1.216-6.62,3.648-9.192c2.436-2.572,5.361-3.858,8.78-3.858c3.417,0,6.325,1.303,8.725,3.91
			c2.399,2.607,3.599,5.704,3.599,9.295c0,3.591-1.208,6.559-3.625,8.907C158.099,39.995,155.217,41.307,151.731,41.307z
			 M146.759,22.872c-1.242,1.45-1.865,3.245-1.865,5.386c0,2.139,0.624,3.97,1.865,5.488c1.346,1.278,2.969,1.917,4.867,1.917
			c1.899,0,3.52-0.639,4.867-1.917c1.347-1.518,2.021-3.349,2.021-5.488c0-2.141-0.674-3.936-2.021-5.386
			c-1.482-1.313-3.105-1.968-4.867-1.968S148.244,21.559,146.759,22.872z"/>
		<path fill="#42B9E8" d="M160.039,35.065c-0.531-0.684-1.115-1.28-1.743-1.799l-3.977,5.218c0.199,0.18,0.388,0.378,0.56,0.601
			c0.741,0.949,1.034,2.032,0.884,3.247c-0.153,1.216-0.704,2.195-1.653,2.934c-0.95,0.739-2.033,1.032-3.249,0.881
			c-0.945-0.118-1.76,0.09-2.444,0.623c-0.684,0.532-1.083,1.27-1.202,2.216c-0.118,0.947,0.091,1.761,0.623,2.444
			c0.531,0.684,1.271,1.085,2.218,1.202c3.011,0.376,5.703-0.359,8.074-2.204c2.371-1.845,3.744-4.275,4.118-7.288
			C162.623,40.127,161.887,37.436,160.039,35.065z"/>
	</g>
</g>
</svg>
