<?xml version="1.0" encoding="utf-8"?>
<!-- Generator: Adobe Illustrator 15.1.0, SVG Export Plug-In . SVG Version: 6.00 Build 0)  -->
<!DOCTYPE svg PUBLIC "-//W3C//DTD SVG 1.1//EN" "http://www.w3.org/Graphics/SVG/1.1/DTD/svg11.dtd">
<svg version="1.1" id="Layer_1" xmlns="http://www.w3.org/2000/svg" xmlns:xlink="http://www.w3.org/1999/xlink" x="0px" y="0px"
	 width="235.451px" height="49.23px" viewBox="12.781 4 235.451 49.23" enable-background="new 12.781 4 235.451 49.23"
	 xml:space="preserve">
<g>
	<g>
		<path fill="#3FB9E9" d="M52.563,47.296c-4.421,0-8.651-1.059-12.324-3.017c-2.85,1.718-6.256,2.69-9.837,2.69
			c-9.717,0-17.621-7.085-17.621-15.791c0-8.709,7.905-15.793,17.621-15.793c0.293,0,0.585,0.006,0.875,0.019
			C35.378,8.568,43.437,4,52.563,4c13.319,0,24.156,9.711,24.156,21.648C76.718,37.586,65.881,47.296,52.563,47.296L52.563,47.296z"
			/>
		<path fill="#FFFFFF" d="M52.563,10.846c-8.454,0-15.419,5.692-16.394,13.033c-1.63-1.036-3.618-1.647-5.768-1.647
			c-5.512,0-9.98,4.005-9.98,8.945s4.468,8.943,9.98,8.943c4.093,0,7.607-2.207,9.148-5.365c3.022,3.465,7.727,5.692,13.014,5.692
			c9.121,0,16.516-6.626,16.516-14.8C69.078,17.472,61.684,10.846,52.563,10.846z"/>
	</g>
	<g>
		<path fill="#3FB9E9" d="M95.786,42.82c-1.057,0-1.965-0.334-2.7-0.993c-0.736-0.659-1.108-1.473-1.108-2.421V10.128
			c0-0.946,0.372-1.76,1.108-2.42s1.642-0.994,2.699-0.994c1.052,0,1.967,0.332,2.719,0.987c0.761,0.66,1.147,1.479,1.147,2.427
			v29.278c0,0.951-0.386,1.768-1.148,2.429C97.753,42.487,96.838,42.82,95.786,42.82L95.786,42.82z"/>
		<path fill="#3FB9E9" d="M92.742,10.128c0-0.761,0.295-1.406,0.886-1.936c0.589-0.529,1.31-0.795,2.158-0.795
			c0.85,0,1.579,0.265,2.188,0.795c0.609,0.529,0.914,1.176,0.914,1.936v29.278c0,0.762-0.306,1.408-0.914,1.936
			c-0.609,0.53-1.337,0.794-2.188,0.794c-0.85,0-1.569-0.264-2.158-0.794c-0.59-0.526-0.886-1.174-0.886-1.936V10.128z"/>
	</g>
	<g>
		<path fill="#3FB9E9" d="M116.388,42.793c-4.053-0.016-7.496-1.313-10.234-3.855c-2.73-2.532-4.136-5.628-4.175-9.2
			c0.04-3.587,1.444-6.689,4.173-9.24c2.74-2.56,6.1-3.859,9.99-3.859c3.876,0,7.195,1.157,9.86,3.44
			c2.661,2.282,4.125,5.216,4.358,8.718l0.002,0.29c0,0.922-0.354,1.683-1.047,2.26c-0.678,0.565-1.568,0.855-2.651,0.855h-16.618
			c0.32,0.878,0.792,1.579,1.409,2.086c0.021,0.016,0.042,0.035,0.061,0.057c1.049,1.088,2.627,1.751,4.692,1.977
			c0.398,0.043,0.792,0.065,1.169,0.065c1.573,0,2.927-0.368,4.136-1.123c0.695-0.635,1.608-0.958,2.713-0.958
			c1.17,0,2.024,0.309,2.545,0.914c1.244,1.233,1.252,2.695-0.016,4.077c-0.023,0.022-0.049,0.049-0.074,0.068
			c-2.771,2.277-6.201,3.43-10.201,3.43L116.388,42.793L116.388,42.793z M123.34,26.614c-0.422-0.728-1.112-1.45-2.065-2.165
			c-1.314-0.985-3.01-1.564-5.031-1.724c-1.92,0.097-3.473,0.635-4.614,1.599c-0.871,0.734-1.483,1.503-1.833,2.293L123.34,26.614
			L123.34,26.614z"/>
		<path fill="#3FB9E9" d="M129.599,29.084c0,0.729-0.267,1.315-0.802,1.761c-0.538,0.448-1.246,0.671-2.133,0.671h-17.609
			c0.333,1.423,0.959,2.514,1.882,3.274c1.184,1.226,2.909,1.96,5.178,2.21c2.271,0.248,4.233-0.157,5.897-1.216
			c0.553-0.528,1.291-0.795,2.213-0.795c0.924,0,1.571,0.218,1.939,0.646c1.031,1.026,1.031,2.102,0,3.226
			c-2.656,2.186-5.917,3.27-9.774,3.249c-3.856-0.016-7.086-1.23-9.687-3.647c-2.603-2.413-3.922-5.324-3.96-8.732
			c0.038-3.409,1.357-6.328,3.96-8.76c2.602-2.431,5.748-3.646,9.439-3.646c3.692,0,6.803,1.083,9.333,3.248
			c2.528,2.168,3.903,4.921,4.123,8.263V29.084L129.599,29.084z M116.253,22.038c-2.14,0.1-3.857,0.695-5.149,1.787
			c-1.293,1.09-2.068,2.248-2.326,3.473h15.67c-0.332-1.157-1.227-2.283-2.688-3.375C120.306,22.831,118.47,22.205,116.253,22.038z"
			/>
	</g>
	<g>
		<path fill="#3FB9E9" d="M203.997,42.97c-3.93,0-7.303-1.309-10.023-3.889c-2.709-2.567-4.084-5.681-4.084-9.254
			c0-3.571,1.383-6.695,4.112-9.28c2.739-2.594,6.083-3.91,9.94-3.91c3.863,0,7.189,1.336,9.894,3.968
			c2.687,2.617,4.05,5.77,4.05,9.371c0,3.616-1.383,6.652-4.109,9.026C211.245,41.623,207.938,42.97,203.997,42.97L203.997,42.97z
			 M199.242,34.573c1.292,1.09,2.812,1.615,4.646,1.615c1.842,0,3.373-0.538,4.678-1.647c1.279-1.295,1.92-2.869,1.92-4.764
			c0-1.889-0.639-3.423-1.955-4.694c-1.399-1.106-2.938-1.667-4.643-1.667c-1.691,0-3.218,0.551-4.662,1.684
			c-1.191,1.267-1.773,2.798-1.773,4.679C197.45,31.642,198.054,33.257,199.242,34.573L199.242,34.573z"/>
		<path fill="#3FB9E9" d="M203.997,42.287c-3.73,0-6.887-1.228-9.469-3.676c-2.586-2.445-3.877-5.374-3.877-8.781
			s1.303-6.344,3.904-8.809c2.603-2.466,5.734-3.695,9.389-3.695s6.766,1.247,9.326,3.746c2.567,2.5,3.85,5.468,3.85,8.908
			s-1.293,6.285-3.878,8.536C210.808,41.029,207.724,42.287,203.997,42.287z M198.681,24.62c-1.33,1.389-1.994,3.108-1.994,5.161
			c0,2.051,0.664,3.804,1.994,5.259c1.437,1.224,3.174,1.836,5.203,1.836c2.031,0,3.766-0.612,5.206-1.836
			c1.438-1.453,2.16-3.209,2.16-5.259c0-2.054-0.722-3.772-2.16-5.161c-1.588-1.259-3.321-1.888-5.206-1.888
			C202.001,22.733,200.267,23.362,198.681,24.62z"/>
	</g>
	<g>
		<path fill="#3FB9E9" d="M234.343,42.97c-3.93,0-7.303-1.309-10.023-3.889c-2.707-2.567-4.084-5.681-4.084-9.254
			c0-3.57,1.386-6.693,4.111-9.28c2.741-2.594,6.086-3.91,9.94-3.91c3.862,0,7.19,1.336,9.896,3.968
			c2.686,2.617,4.049,5.77,4.049,9.371c0,3.616-1.383,6.652-4.107,9.026C241.591,41.621,238.286,42.97,234.343,42.97L234.343,42.97z
			 M229.588,34.572c1.292,1.092,2.812,1.617,4.644,1.617c1.843,0,3.373-0.538,4.678-1.647c1.277-1.295,1.918-2.864,1.918-4.764
			c0-1.89-0.637-3.426-1.951-4.694c-1.402-1.106-2.939-1.667-4.645-1.667c-1.693,0-3.219,0.551-4.66,1.684
			c-1.193,1.267-1.773,2.796-1.773,4.679C227.795,31.672,228.382,33.24,229.588,34.572L229.588,34.572z"/>
		<path fill="#3FB9E9" d="M234.343,42.287c-3.729,0-6.886-1.228-9.466-3.676C222.29,36.166,221,33.238,221,29.83
			s1.302-6.344,3.901-8.809c2.604-2.466,5.731-3.695,9.387-3.695c3.654,0,6.766,1.247,9.332,3.746s3.846,5.468,3.846,8.908
			s-1.293,6.285-3.874,8.536C241.153,41.029,238.069,42.287,234.343,42.287z M229.028,24.62c-1.332,1.389-1.995,3.108-1.995,5.161
			c0,2.051,0.663,3.804,1.995,5.259c1.438,1.224,3.174,1.836,5.203,1.836c2.028,0,3.766-0.612,5.203-1.836
			c1.44-1.453,2.16-3.209,2.16-5.259c0-2.054-0.72-3.772-2.16-5.161c-1.588-1.259-3.32-1.888-5.203-1.888
			C232.347,22.733,230.612,23.362,229.028,24.62z"/>
	</g>
	<g>
		<path fill="#3FB9E9" d="M153.627,42.82c-0.994,0-1.872-0.32-2.608-0.961c-0.742-0.646-1.117-1.437-1.117-2.353v-11.86
			c0-1.207-0.476-2.206-1.455-3.054c-0.988-0.856-2.139-1.274-3.512-1.274c-1.367,0-2.484,0.412-3.414,1.261
			c-0.934,0.85-1.388,1.854-1.388,3.066v11.861c0,0.927-0.399,1.72-1.188,2.366c-0.773,0.628-1.662,0.946-2.65,0.946
			c-0.998,0-1.869-0.324-2.585-0.971c-0.718-0.639-1.084-1.429-1.084-2.345V26.846c0-0.034,0.004-0.071,0.009-0.103
			c0.799-4.666,3.701-7.178,5.995-8.465c0.021-0.013,0.042-0.021,0.062-0.031c1.908-1.068,4-1.609,6.215-1.609
			c3.408,0,6.348,1.095,8.734,3.255c2.392,2.158,3.603,4.766,3.603,7.75v11.861c0,0.906-0.353,1.693-1.046,2.334
			C155.495,42.492,154.631,42.82,153.627,42.82L153.627,42.82z"/>
		<path fill="#3FB9E9" d="M153.099,20.375c-2.25-2.034-4.98-3.049-8.193-3.049c-2.104,0-4.057,0.513-5.868,1.537
			c0-0.001,0-0.001,0-0.002c-2.146,1.204-4.888,3.562-5.647,7.987v12.659c0,0.729,0.286,1.347,0.86,1.859
			c0.571,0.515,1.251,0.769,2.045,0.769s1.504-0.256,2.134-0.769c0.627-0.514,0.94-1.134,0.94-1.859V27.646
			c0-1.388,0.534-2.57,1.604-3.547c1.069-0.976,2.389-1.465,3.961-1.465c1.563,0,2.912,0.489,4.041,1.465
			c1.125,0.975,1.688,2.159,1.688,3.547v11.862c0,0.729,0.298,1.347,0.885,1.859c0.595,0.515,1.283,0.769,2.078,0.769
			s1.468-0.256,2.021-0.769c0.553-0.514,0.832-1.134,0.832-1.859V27.646C156.478,24.833,155.354,22.411,153.099,20.375z"/>
	</g>
	<g>
		<path fill="#3FB9E9" d="M173.677,42.97c-3.93,0-7.3-1.309-10.021-3.889c-2.711-2.566-4.084-5.681-4.084-9.254
			c0-3.571,1.384-6.695,4.109-9.28c2.742-2.594,6.086-3.91,9.942-3.91c3.86,0,7.188,1.336,9.892,3.968
			c2.688,2.617,4.053,5.77,4.053,9.371c0,3.618-1.385,6.653-4.109,9.026C180.923,41.621,177.62,42.97,173.677,42.97L173.677,42.97z
			 M168.923,34.572c1.297,1.092,2.814,1.617,4.645,1.617c1.844,0,3.373-0.538,4.677-1.647c1.28-1.296,1.924-2.869,1.924-4.764
			c0-1.889-0.64-3.423-1.956-4.694c-1.402-1.106-2.938-1.667-4.646-1.667c-1.688,0-3.213,0.551-4.656,1.684
			c-1.197,1.268-1.778,2.799-1.778,4.679C167.13,31.642,167.733,33.255,168.923,34.572L168.923,34.572z"/>
		<path fill="#3FB9E9" d="M173.677,42.287c-3.728,0-6.883-1.228-9.467-3.676c-2.588-2.445-3.876-5.374-3.876-8.781
			s1.299-6.344,3.899-8.809c2.604-2.466,5.731-3.695,9.388-3.695c3.653,0,6.765,1.247,9.33,3.746c2.563,2.5,3.848,5.468,3.848,8.908
			s-1.294,6.285-3.876,8.536C180.487,41.029,177.406,42.287,173.677,42.287z M168.362,24.62c-1.327,1.389-1.994,3.108-1.994,5.161
			c0,2.051,0.667,3.804,1.994,5.259c1.438,1.224,3.176,1.836,5.205,1.836s3.764-0.612,5.203-1.836
			c1.439-1.453,2.16-3.209,2.16-5.259c0-2.054-0.721-3.772-2.16-5.161c-1.584-1.259-3.319-1.888-5.203-1.888
			C171.685,22.733,169.95,23.362,168.362,24.62z"/>
		<path fill="#3FB9E9" d="M182.562,36.304c-0.569-0.656-1.191-1.227-1.863-1.723l-4.252,4.999c0.212,0.174,0.414,0.361,0.599,0.576
			c0.792,0.908,1.104,1.946,0.945,3.111c-0.163,1.167-0.753,2.104-1.767,2.813c-1.018,0.707-2.175,0.987-3.477,0.843
			c-1.012-0.112-1.88,0.084-2.612,0.595c-0.731,0.51-1.155,1.218-1.284,2.125c-0.127,0.908,0.098,1.688,0.664,2.344
			c0.57,0.655,1.361,1.037,2.373,1.152c3.219,0.357,6.098-0.345,8.633-2.112c2.535-1.769,4.004-4.099,4.401-6.983
			C185.323,41.155,184.537,38.576,182.562,36.304z"/>
	</g>
</g>
</svg>
