<?xml version="1.0" encoding="utf-8"?>
<!-- Generator: Adobe Illustrator 15.1.0, SVG Export Plug-In . SVG Version: 6.00 Build 0)  -->
<!DOCTYPE svg PUBLIC "-//W3C//DTD SVG 1.1//EN" "http://www.w3.org/Graphics/SVG/1.1/DTD/svg11.dtd">
<svg version="1.1" id="Ebene_1" xmlns="http://www.w3.org/2000/svg" xmlns:xlink="http://www.w3.org/1999/xlink" x="0px" y="0px"
	 width="100px" height="100px" viewBox="0 0 100 100" enable-background="new 0 0 100 100" xml:space="preserve">
<path fill="#FFFFFF" stroke="#3CB9E9" stroke-width="6" stroke-miterlimit="10" d="M39.02,77.984
	c-0.533-2.164-1.083-5.529-3.26-6.702c-2.227-1.197-5.581-0.605-8.122-0.779c-2.215-0.152-3.871-0.359-4.689-2.632
	c-0.624-1.729,0.382-5.782-2.34-5.617c0,0-0.507-0.355-0.062-1.752c0.986-1.275-0.758-2.193-0.703-3.48
	c0.037-0.829,0.76-1.055,0.942-1.75c0.2-0.759,0.488-1.552,0.234-2.439c-2.618-0.909-5.73-2.395-4.138-5.141
	c0.574-0.988,2.028-2.26,2.627-3.348c0.736-1.336,0.839-2.929,1.043-4.337c0.46-3.156-0.207-7.192-0.318-10.393
	c-0.056-1.605-0.199-2.56-0.171-4.165c0.028-1.606,0.381-2.906,0.69-4.695c0.429-1.933,1.18-3.149,2.209-4.684
	c2.312-3.447,1.351-2.071,3.47-4.427c0.995-1.106,1.36-1.3,2.824-2.17c1.786-1.061,2.047-1.162,3.584-1.833
	c3.902-1.704,6.23-2.459,9.586-3.205c3.229-0.717,7.966-1.224,10.554-1.118c5.308,0.218,12.069,1.808,17.013,5.029
	c2.495,1.624,4.104,2.952,6.201,5.382c1.185,1.375,2.2,3.645,2.944,5.424c1.05,2.507,0.585,1.114,1.05,2.507
	c1.176,3.521,1.391,5.471,1.61,9.908c0.187,3.749-0.104,4.447-0.974,8.172c-1.839,4.104-0.252,0.945-1.839,4.104
	c-1.629,2.545-0.729,1.506-2.262,3.575c-1.782,2.408-3.81,4.864-5.876,7.267c-2.038,2.37-3.447,5.976-3.102,9.332
	c0.457,4.437,0.111,1.604,0.659,6.127c0.309,2.538,0.423,2.516,0.896,5.226c0.345,1.98,0.652,3.709,0.82,5.676
	c0.282,3.284,0.097,2.118,0.255,4.682c-3.307,0.198-2.781,0.01-5.522,0.106c-2.991,0.104-4.204,0.173-7.196,0.248
	c-3.312,0.083-4.765,0.203-8.605,0.242c-1.637,0.017-3.418,0.205-8.208,0.271c-0.787,0.011-0.627-1.3-0.941-4.201
	C39.74,80.887,39.382,79.455,39.02,77.984z"/>
<g>
	<path fill="#225469" d="M27.92,19.267c-0.093-0.032-0.252,0.097-0.223-0.321c0.55-0.322,1.524-0.44,2.173-0.327
		c0.66,0.116,1.121,0.652,1.857,0.495c0.399-0.667,1.263-0.362,1.755-0.271c0.776,0.146,0.712,0.395,1.531-0.143
		c1.897-1.247,1.471-0.208,1.398,1.527c-0.55,0.506,0.178,2.839,0.945,2.991c0.207-0.662-0.072-1.562,0.263-2.201
		c0.384-0.733,1.145-0.71,0.963,0.412c0.141,0.106,0.123,0.107,0.243,0.232c0.052-0.078,0.147-0.192,0.219-0.328
		c0.165-0.036,0.394,0.023,0.542-0.019c0.18,0.644,0.199,1.346,0.188,2.049c-0.19-0.032-0.468,0.09-0.659,0.058
		c0.073,0.854,0.024,1.352-0.873,1.543c-0.2,1.437-1.591,2.175-1.415,3.854c-0.601-0.497-1.659-1.353-2.082-0.157
		c-0.155,0.437,0.091,1.112,0.516,1.157c0.347,0.037,0.092-0.857,0.88-0.719c0.042,0.533,0.086,1.117-0.025,1.587
		c0.591,0.363,0.64,0.844,1.408,0.902c0.447,0.034,0.523-0.462,0.915-0.385c0.427,0.084,0.487,0.469,0.712,0.561
		c0.626,0.255,1.172,0.407,1.647,1.014c0.213,0.272,0.162,0.673,0.483,0.892c0.344,0.234,0.72,0.034,1.084,0.188
		c1.071,0.455,0.609,0.565,0.509,1.368c-0.095,0.764,0.036,1.493-0.362,2.136c-0.148,0.241-0.427,0.389-0.606,0.667
		c-0.231,0.362-0.21,0.594-0.403,1.091c-0.202,0.518-0.526,1.604-1.136,0.888c0.018,0.443,0.043,0.893,0.032,1.332
		c-0.708,0.373,0.14,1.104-0.637,1.555c0.14,0.09,0.196,0.237,0.325,0.337c-0.378,0.466-0.262,1.129-0.261,1.735
		c-1.648-1.157-1.047-4.764-1.132-6.452c-0.061-1.218-1.093-1.799-1.404-2.825c-0.332-1.093-0.359-2.24-0.339-3.368
		c-0.869-0.074-0.354-0.648-0.711-1.043c-0.427-0.473-0.94-0.285-1.419-0.523c-0.846-0.42-1.229-1.369-2.02-1.926
		c-0.082-0.334-0.224-0.436-0.371-0.655c0.045,0.235,0.037,0.446,0.105,0.663c-0.595-0.269-1.185-1.89-1.382-2.572
		c-0.297-1.037-0.05-2.533-0.555-3.497c-0.175-0.334-0.704-1.023-1.082-1.126c-0.627-0.17-0.989,0.541-1.379,0.495
		c-1.104-0.129-0.371-1.854-0.888-2.6c0.349,0.055,0.364-0.198,0.553-0.269"/>
	<path fill="#225469" d="M42.075,20.146c-0.209-0.044-0.335,0-0.333-0.285c-1.384-0.461,0.419-2.675-0.77-2.787
		c-0.1-1.088-0.517-1.602-1.669-1.256c0.09-0.114,0.13-0.4,0.19-0.525c-1.108-0.017,0.311-0.617,0.474-0.702
		c0.007-0.004,0.464-0.39,0.509-0.424c0.228-0.175,0.397-0.113,0.538-0.395c0.415-0.083,1.396,0.461,1.302-0.357
		c0.565,0.01,1.7-0.458,2.02,0.136c0.098,0.024,0.187-0.007,0.285,0.016c-0.004,0.113,0.033,0.25,0.036,0.362
		c0.445,0.027,0.695-0.332,1.207-0.251c0.04,0.386-0.692,1.035-0.837,1.495c0.049,0.017,0.132-0.015,0.192-0.001
		c-0.003,0.014,0.006,0.28,0.01,0.287c-0.588,0.099,0.02,0.671-0.196,1.088c-0.11,0.007-0.251,0.046-0.36,0.038
		c-0.042,0.075-0.002,0.203-0.015,0.286c-0.043,0.01-0.086,0.021-0.129,0.034c0.197,0.375,0.233,0.508,0.017,0.76
		c-0.077,0.09-0.891,0.365-1.06,0.358c-0.067,0.554-0.564,0.784-1.057,0.889c0.518,0.533-0.246,1.788-0.671,1.017"/>
	<path fill="#225469" d="M52.977,41.31c-0.798-0.132-1.365-3.032-1.365-3.747c-0.002-0.732-0.039-1.386-0.309-2.002
		c-0.281-0.654-0.318-1.18-0.389-1.987c-0.877-0.123-1.025,0.793-2.001,0.504c-0.49-0.145-1.387-1.129-1.588-1.551
		c-0.549-1.152,0.426-2.917,0.801-4.045c0.172-0.005,0.266-0.111,0.438-0.115c-0.049-0.687,0.45-0.438,0.903-0.562
		c0.365-0.1,0.651-0.442,1.077-0.336c-0.031,0.279-0.104,0.54-0.102,0.832c0.897-0.008,0.91,0.445,1.623,0.642
		c-0.004-0.634,0.714-0.794,1.176-0.515c0.52,0.314,0.568,0.907,0.82,1.385c0.285,0.54,1.003,2.87,1.619,2.871
		c0.151-0.325,0.503-0.449,0.83-0.549c0.066,0.903-0.858,1.872-1.193,2.607c-0.475,1.034,0.389,1.823,0.072,2.909
		c-1.217,0.34-0.321,4.468-2.648,3.589"/>
	<path fill="#225469" d="M56.897,36.76c-1.162,0.11-0.946,2.232-0.519,2.816c0.413-0.57,0.688-2.18,0.287-2.808"/>
	<path fill="#225469" d="M65.401,25.322c-0.64,0.773-0.283,1.519-1.562,1.46c-0.111,0.607-0.276,0.852-0.035,1.546
		c0.141,0.409,0.588,1.167-0.422,0.925c0.028-0.36-0.013-1.003-0.426-0.593c0.285,0.403,0.507,0.755,0.428,1.29
		c-0.643,0.163-0.611-0.877-0.736-1.292c-0.159-0.539-0.39-1.129-0.9-1.505c-1.496-1.099-1.195,1.737-1.547,2.224
		c-0.517,0.715-0.581-0.27-0.723-0.749c-0.18-0.609-0.44-1.009-0.843-1.423c-0.433-0.445-0.703-0.617-1.344-0.824
		c-0.116-0.037-1.587-0.544-1.573-0.552c-0.012,0-0.025-0.002-0.039-0.002c-0.027,0.238,0.252,0.854,0.482,0.986
		c0.355,0.2,0.732-0.137,1.071,0.051c0.489,0.274,0.142,0.612-0.124,0.918c-0.137,0.157-0.381,0.137-0.502,0.264
		c-0.136,0.146-0.16,0.503-0.319,0.621c-1.067,0.791-0.858-0.549-1.241-1.12c-0.484-0.719-1.156-0.886-1.313-1.881
		c0.745-0.1,0.345-0.97-0.415-0.862c-0.227-0.221-0.396-0.583-0.346-0.969c0.492-0.177,1.098-0.126,1.598-0.08
		c0.111-0.256,0.104-0.514-0.025-0.748c-0.316,0.026-0.469-0.067-0.629-0.288c-0.229,0.021-0.684-0.197-0.826-0.122
		c-0.406,0.215-0.105,0.444-0.3,0.692c-0.383,0.484-0.804,0.477-0.429,1.317c-0.555-0.078-0.803-1.246-1.429-1.556
		c-0.021,0.444,0.37,1.287,0.503,1.744c-0.638,0.085-0.377-1.569-1.34-1.399c-0.207,0.455-0.613,0.855-0.747,1.174"/>
	<path fill="#225469" d="M49.383,24.521c-0.23,0.439-0.881,0.347-1.206,0.573c-0.057-0.617-0.072-1.072-0.293-1.589
		c0.323-0.033,0.662-0.033,0.985-0.062c0.119-0.504,0.014-0.872-0.176-1.287c0.136,0.002,0.303-0.049,0.438-0.039
		c-0.003-0.146-0.021-0.164-0.071-0.289c-0.16,0.121-0.289,0.075-0.453,0.153c0.077-0.166,0.078-0.113,0.206-0.246
		c-0.032-0.061-0.14-0.119-0.143-0.191c0.182-0.216,0.067-0.296,0.11-0.551c-0.322-0.096-0.494-0.456-0.392-0.839
		c0.704,0.026,0.327,1.706,1.193,1.56c-0.12-0.609,0.385-0.266,0.534-0.623c0.111-0.259-0.039-0.926-0.11-1.152
		c0.181,0.117,0.345,0.063,0.524,0.117c0-0.152-0.029-0.221-0.092-0.36c-0.285,0.02-0.55,0.145-0.818,0.238
		c-0.078-0.467,0.266-1.354,0.471-1.717c0.068,0.047,0.157,0.101,0.217,0.143c0.183-0.651,0.175-1.619,1.029-1.741
		c0.1-0.729,0.771-0.167,1.116-0.045c0.403,0.142,1.155,0.11,1.229,0.662c-0.291,0.018-0.625,0.018-0.846,0.119
		c0.063,0.028,0.145,0.047,0.234,0.081c0.022,0.3,0.129,0.54,0.266,0.726c0.226-0.374,0.62-0.65,0.809-0.944
		c-0.057-0.204-0.004-0.473-0.072-0.671c0.105,0.105,0.209,0.083,0.317,0.28c0.392-0.181,0.985-0.364,1.378-0.427
		c-0.696-0.161-1.184-0.496-0.846-1.208c0.313-0.658,0.984-0.559,1.355-1.124c0.004,0.091,0.011,0.199,0.015,0.289
		c-0.457,0.072-1.233,0.542-1.109,1.135c0.15,0.724,1.116,0.287,1.285,1.027c0.139,0.017,0.312,0.021,0.447-0.019
		c-0.501-0.309-0.522-1.35,0.166-1.528c0.486,0.58,0.19,1.557,0.271,2.296c0.039-0.17,0.131-0.374,0.131-0.604
		c0.237-0.099,0.563-0.137,0.766-0.195c-0.785,0.052-1.158-1.529-0.139-1.069c-0.012,0.355,0.088,0.695,0.412,0.819
		c0.107-0.491-0.263-0.764-0.329-1.208c0.128,0.022,0.314-0.059,0.445-0.039c-0.146-0.964,0.522-0.824,1.21-0.658
		c-0.053-0.574,0.063-0.685-0.016-1.218c0.164-0.029,0.3-0.012,0.442,0.063c0.057,0.337,0.197,0.575,0.289,0.894
		c0.229-0.001,0.73-0.101,0.902,0.052c0.359,0.321,0.022,0.562-0.266,0.617c0.546,0.021,1.665,0.221,2.001-0.217
		c0.07,0.177,0.196,0.278,0.185,0.531c0.128,0.124,0.325,0.267,0.466,0.395c0.309-0.559,1.453-0.781,2.056-0.69
		c0.021,0.073,0.008,0.136,0.029,0.209c0.37,0.05,0.717-0.17,1.068-0.103c0.501,0.096,0.328,0.229,0.634,0.459
		c0.646,0.482,0.758,0.106,1.494-0.013c0.467-0.076,1.158-0.121,1.681,0.039c0.371,0.115,0.592,0.373,0.943,0.508
		c0.362,0.138,0.795,0.075,1.107,0.196c-0.026,0.004-0.224,0.079-0.304,0.102c-0.014,0.198-0.13,0.379-0.085,0.601
		c-0.386-0.153-0.616-0.541-0.999-0.644c0.015,0.107-0.028,0.255-0.015,0.363c-0.185,0.024-0.278,0.136-0.496,0.102
		c0.194,0.135,0.249,0.344,0.366,0.521c-0.207,0.099-0.278,0.226-0.509,0.278c-0.159,0.236-0.424,0.404-0.547,0.691
		c-0.074-0.022-0.206-0.022-0.283-0.046c-0.279,0.732-0.064,1.539-0.253,2.311c-0.118,0.038-0.319,0.045-0.44,0.015
		c0.006-0.631-0.578-1.083-0.535-1.595c0.011-0.124,0.664-1.133,0.801-1.257c-0.156,0.505-0.54,0.395-0.825,0.106
		c0.03,0.528-0.897,0.797-1.315,0.888c-0.99,0.215-0.887,0.182-1.409,1.04c0.876-0.158,0.782,1.955,0.562,2.417
		c-0.197,0.416-0.686,0.81-0.77,1.228c-0.104,0.514,0.309,0.843,0.21,1.392c-0.462-0.004-0.538-0.892-0.665-1.27
		c-0.147-0.03-0.328-0.011-0.45,0.046c-0.797,0.669,1.07,1.397,0.305,2.116"/>
	<path fill="#225469" d="M66.937,24.23c1.111-0.149,0.589-1.5,0.69-2.273c0.063-0.489,0.198-0.565,0.044-1.082
		c-0.131-0.439-0.42-0.587-0.337-1.138c0.405-0.06,0.786,1.086,0.957,1.426c-0.571,0.347-0.305,1.27,0.424,1.08
		c0.003-0.007,0.005,0.206,0.006,0.21c-1.175-0.138,0.431,1.887-0.922,1.682c-0.105,0.326-0.437,0.383-0.764,0.337
		c-0.092,0.3-0.303,0.486-0.601,0.539c-0.072-0.411,0.224-0.796,0.657-0.786"/>
	<path fill="#225469" d="M62.797,30.319c-0.314,0.197,0.153,1.196,0.196,1.611c-0.162-0.147-0.441-0.252-0.604-0.349
		c0.062,0.298,0.281,0.869,0.41,1.137c0.174,0.365,0.333,0.759,0.792,0.761c0.141,0.23,0.207,0.466,0.205,0.742
		c0.313-0.049,0.63-0.182,0.977-0.164c0.176,0.218,0.451,0.231,0.779,0.18c0.04-0.064,0.136-0.296,0.149-0.365
		c-0.726,0.051-1.112-0.28-1.85-0.271c-0.131-0.265-0.346-0.496-0.337-0.816c0.375-0.249,0.013-0.858-0.189-1.187
		c-0.166-0.271-0.435-0.971-0.678-1.119"/>
	<path fill="#225469" d="M65.324,33.059c0.037-0.177-0.015-0.432-0.034-0.607c-0.171,0.014-0.271-0.096-0.443-0.084
		c-0.029-0.113-0.034-0.248-0.014-0.362c0.575-0.106,0.695-0.74,1.175-0.972c0.467,0.809-0.251,1.755-0.212,2.538
		c-0.016-0.002-0.194,0.005-0.211,0.008c0.029-0.151-0.059-0.363-0.04-0.516c-0.122,0.024-0.26-0.075-0.3-0.08"/>
	<path fill="#225469" d="M66.108,39.335c-0.228-0.577-0.105-1.438-0.071-2.07c0.046-0.829,0.178-0.828,0.969-0.76
		c0.091-0.406,0.17-0.903,0.531-1.151c0.427-0.292,0.878,0.021,1.05-0.673c-0.116-0.129-0.097-0.257-0.162-0.368
		c0.315-0.155,0.655-0.121,0.979-0.039c0.17,0.342,0.232,0.674,0.572,0.836c0.023,0.311,0.136,0.428,0.405,0.504
		c0.009-0.657,0.19-1.469,0.084-1.993c-0.321,0-0.572-0.236-0.773-0.375c-0.132-0.09-0.723-0.358-0.775-0.451
		c-0.668-1.133,0.551-0.504,1.057-0.331c0.323,0.112,0.539,0.205,0.803,0.341c0.202,0.104,0.717,0.281,0.873,0.429
		c0.622,0.586,0.018,1.44-0.334,0.358c-0.15-0.039-0.446-0.028-0.592,0.021c-0.328,0.728,0.206,1.322,0.576,1.921
		c0.419,0.681,0.667,1.323,0.949,2.038c-0.549,0.479-0.449,1.367-0.965,1.875c-0.224,0.219-0.651,0.445-0.978,0.343
		c-0.561-0.173-0.308-0.603-0.521-1.04c-0.189,0.206-0.439,0.34-0.732,0.315c-0.003-0.172-0.111-0.266-0.117-0.436
		c-0.844-0.322-0.78-0.081-1.427,0.286c-0.347,0.197-1.153,0.625-1.542,0.411c-0.063-0.17-0.002-0.275,0.052-0.375"/>
	<path fill="#225469" d="M45.144,18.9c-0.312-0.089-0.401-0.395-0.382-0.687c0.424-0.064,0.762-0.181,1.11-0.333
		c0.057,0.354-0.024,0.669-0.12,0.987c-0.322,0.016-0.604,0.108-0.839,0.042"/>
	<path fill="#225469" d="M47.594,22.277c-0.042-0.272-0.069-0.49-0.092-0.76c0.153-0.104,0.398-0.178,0.59-0.175
		c0.046,0.222,0.057,0.526,0.027,0.751c-0.131,0.017-0.319,0.054-0.453,0.027"/>
	<path fill="#225469" d="M40.264,23.597c0.303,0.145,0.609,0.099,0.777-0.182c-0.333-0.161-0.415-0.542-0.362-0.904
		c-0.117-0.022-0.25-0.016-0.366,0.014c0.136,0.298,0.191,0.676-0.203,0.781c-0.012,0.092,0.022,0.209-0.001,0.296"/>
	<path fill="#225469" d="M73.056,40.369c0.526-0.079,0.97-1.483,1.379-0.837c0.006-0.001,0.218,0.002,0.207-0.004
		c0.09-0.322,0.125-0.689-0.036-0.993c0.255-0.174,0.506-0.094,0.779,0.062c-0.142,0.148-0.221,0.27-0.508,0.326
		c0.138,0.578-0.873,1.048-0.972,1.715c-0.362-0.005-0.679,0.19-0.839-0.037"/>
</g>
<radialGradient id="SVGID_1_" cx="38.5156" cy="95.1074" r="17.3609" gradientTransform="matrix(1.2172 0 0 0.2434 8.305 71.9539)" gradientUnits="userSpaceOnUse">
	<stop  offset="0" style="stop-color:#215469"/>
	<stop  offset="0.1485" style="stop-color:#4E6E82;stop-opacity:0.8515"/>
	<stop  offset="0.374" style="stop-color:#8B9AA9;stop-opacity:0.626"/>
	<stop  offset="0.5801" style="stop-color:#BCC2CC;stop-opacity:0.4199"/>
	<stop  offset="0.7596" style="stop-color:#E0E2E8;stop-opacity:0.2404"/>
	<stop  offset="0.9057" style="stop-color:#F7F8F9;stop-opacity:0.0943"/>
	<stop  offset="1" style="stop-color:#FFFFFF;stop-opacity:0"/>
</radialGradient>
<path fill="url(#SVGID_1_)" d="M84.475,95.107c0,2.702-19.164,4.893-29.285,4.893c-16.173,0-29.285-2.19-29.285-4.893
	s13.112-4.894,29.285-4.894C71.363,90.214,84.475,92.405,84.475,95.107z"/>
</svg>
