<?xml version="1.0" encoding="utf-8"?>
<!-- Generator: Adobe Illustrator 15.1.0, SVG Export Plug-In . SVG Version: 6.00 Build 0)  -->
<!DOCTYPE svg PUBLIC "-//W3C//DTD SVG 1.1//EN" "http://www.w3.org/Graphics/SVG/1.1/DTD/svg11.dtd">
<svg version="1.1" id="Ebene_1" xmlns="http://www.w3.org/2000/svg" xmlns:xlink="http://www.w3.org/1999/xlink" x="0px" y="0px"
	 width="100px" height="100px" viewBox="0 0 100 100" enable-background="new 0 0 100 100" xml:space="preserve">
<path fill="#225469" d="M74.541,49.449c0,13.555-10.985,24.539-24.539,24.539c-13.554,0-24.542-10.983-24.542-24.539
	c0-13.553,10.988-24.541,24.542-24.541C63.556,24.908,74.541,35.896,74.541,49.449z"/>
<circle fill="#3CB9E9" cx="50" cy="49.274" r="9.515"/>
<radialGradient id="SVGID_1_" cx="34.6113" cy="92.0098" r="29.5667" gradientTransform="matrix(1.1887 0 0 0.2288 10.1507 71.1144)" gradientUnits="userSpaceOnUse">
	<stop  offset="0" style="stop-color:#215469"/>
	<stop  offset="0.1485" style="stop-color:#4E6E82;stop-opacity:0.8515"/>
	<stop  offset="0.374" style="stop-color:#8B9AA9;stop-opacity:0.626"/>
	<stop  offset="0.5801" style="stop-color:#BCC2CC;stop-opacity:0.4199"/>
	<stop  offset="0.7596" style="stop-color:#E0E2E8;stop-opacity:0.2404"/>
	<stop  offset="0.9057" style="stop-color:#F7F8F9;stop-opacity:0.0943"/>
	<stop  offset="1" style="stop-color:#FFFFFF;stop-opacity:0"/>
</radialGradient>
<path fill="url(#SVGID_1_)" d="M100,92.167C100,96.493,68.129,100,51.293,100c-26.9,0-48.706-3.507-48.706-7.833
	s21.806-7.832,48.706-7.832C78.192,84.335,100,87.841,100,92.167z"/>
<path fill="none" stroke="#3CB9E9" stroke-width="6" stroke-miterlimit="10" d="M96.221,48.228c0.22,0.596,0.214,2.706-0.081,3.252
	C86.715,68.938,72.428,74.75,50.35,74.75c-22.079,0-36.493-5.813-45.89-23.271c-0.294-0.548-0.217-2.917-0.009-3.516
	c5.555-16.019,23.031-24.162,45.898-24.162C73.217,23.802,89.677,30.386,96.221,48.228z"/>
</svg>
