<?xml version="1.0" encoding="utf-8"?>
<!-- Generator: Adobe Illustrator 15.1.0, SVG Export Plug-In . SVG Version: 6.00 Build 0)  -->
<!DOCTYPE svg PUBLIC "-//W3C//DTD SVG 1.1//EN" "http://www.w3.org/Graphics/SVG/1.1/DTD/svg11.dtd">
<svg version="1.1" id="Ebene_1" xmlns="http://www.w3.org/2000/svg" xmlns:xlink="http://www.w3.org/1999/xlink" x="0px" y="0px"
	 width="100px" height="100px" viewBox="0 0 100 100" enable-background="new 0 0 100 100" xml:space="preserve">
<path fill="#E56D41" d="M23.888,34.684L53.271,5.302c6.084-5.622,9.469-5.848,15.328,0l29.383,29.382"/>
<path fill="#E56D41" d="M4.5,99.033v-6.09c23.216,0,43.874,1.398,44.036-63.006h24.918C73.454,92.327,35.587,99.033,4.5,99.033z"/>
<path fill="#FFFFFF" d="M41.48,27.687l15.43-15.429c3.195-2.953,4.973-3.071,8.05,0l15.431,15.429"/>
<path fill="#FFFFFF" d="M41.229,87.059h-2c0,0,15.399-2.365,17.514-61.477h9.274C66.021,83.5,41.229,87.059,41.229,87.059z"/>
</svg>
