<?xml version="1.0" encoding="utf-8"?>
<!-- Generator: Adobe Illustrator 15.1.0, SVG Export Plug-In . SVG Version: 6.00 Build 0)  -->
<!DOCTYPE svg PUBLIC "-//W3C//DTD SVG 1.1//EN" "http://www.w3.org/Graphics/SVG/1.1/DTD/svg11.dtd">
<svg version="1.1" id="Ebene_1" xmlns="http://www.w3.org/2000/svg" xmlns:xlink="http://www.w3.org/1999/xlink" x="0px" y="0px"
	 width="100px" height="100px" viewBox="0 0 100 100" enable-background="new 0 0 100 100" xml:space="preserve">
<path fill="#E56D41" d="M23.888,34.684L53.271,5.302c6.084-5.622,9.469-5.848,15.328,0l29.383,29.382"/>
<path fill="#E56D41" d="M4.5,99.033v-6.089c23.216,0,43.874,1.398,44.036-63.007h24.918C73.454,92.327,35.587,99.033,4.5,99.033z"/>
<path fill="#FFFFFF" d="M30.927,31.483L54.729,7.685c4.929-4.554,7.668-4.737,12.414,0l23.801,23.799"/>
<path fill="#FFFFFF" d="M6.854,97.058v-1.745c17.035-1.04,44.241,4.399,44.398-63.829h19.606
	C70.858,97.578,22.234,97.058,6.854,97.058z"/>
<path fill="#FFFFFF" d="M36.929,28.755l19.04-19.039c3.942-3.643,6.137-3.789,9.933,0l19.04,19.039"/>
<path fill="#FFFFFF" d="M36.929,90.059L36.929,90.059c0,0,16.083-3.983,16.814-63.477h15.275
	C70.858,81.567,36.929,90.059,36.929,90.059z"/>
</svg>
