<?xml version="1.0" encoding="utf-8"?>
<!-- Generator: Adobe Illustrator 15.1.0, SVG Export Plug-In . SVG Version: 6.00 Build 0)  -->
<!DOCTYPE svg PUBLIC "-//W3C//DTD SVG 1.1//EN" "http://www.w3.org/Graphics/SVG/1.1/DTD/svg11.dtd">
<svg version="1.1" id="Ebene_1" xmlns="http://www.w3.org/2000/svg" xmlns:xlink="http://www.w3.org/1999/xlink" x="0px" y="0px"
	 width="100px" height="100px" viewBox="0 0 100 100" enable-background="new 0 0 100 100" xml:space="preserve">
<path fill="#FFFFFF" stroke="#3CB9E9" stroke-width="7" stroke-miterlimit="10" d="M83.895,68.155
	c0.742,6.044-3.989,11.599-10.566,12.406L37.833,84.92c-6.578,0.808-12.512-3.438-13.254-9.481L17.948,21.43
	c-0.742-6.044,3.989-11.599,10.567-12.406l35.494-4.358c6.577-0.808,12.512,3.437,13.254,9.481L83.895,68.155z"/>
<path fill="#225469" d="M23.946,24.528c0.056,0.457-0.437,0.893-1.102,0.975l-11.314,1.389c-0.666,0.082-1.25-0.223-1.305-0.68l0,0
	c-0.056-0.457,0.437-0.893,1.102-0.975l11.314-1.389C23.306,23.767,23.89,24.071,23.946,24.528L23.946,24.528z"/>
<path fill="#225469" d="M24.677,30.483c0.056,0.457-0.437,0.894-1.102,0.975l-11.313,1.389c-0.666,0.082-1.25-0.222-1.306-0.679l0,0
	c-0.056-0.457,0.437-0.893,1.103-0.975l11.313-1.389C24.038,29.723,24.621,30.027,24.677,30.483L24.677,30.483z"/>
<path fill="#225469" d="M25.408,36.439c0.056,0.458-0.437,0.894-1.103,0.976l-11.313,1.389c-0.666,0.082-1.249-0.223-1.305-0.68l0,0
	c-0.056-0.457,0.437-0.893,1.102-0.975l11.313-1.389C24.769,35.678,25.352,35.982,25.408,36.439L25.408,36.439z"/>
<path fill="#225469" d="M26.139,42.394c0.056,0.458-0.436,0.894-1.102,0.976l-11.313,1.389c-0.666,0.082-1.25-0.223-1.306-0.68l0,0
	c-0.056-0.457,0.437-0.893,1.103-0.975l11.313-1.389C25.5,41.633,26.083,41.938,26.139,42.394L26.139,42.394z"/>
<path fill="#225469" d="M26.871,48.349c0.056,0.458-0.437,0.894-1.103,0.976l-11.313,1.389c-0.666,0.082-1.249-0.222-1.305-0.68l0,0
	c-0.056-0.457,0.436-0.893,1.102-0.975l11.313-1.389C26.231,47.588,26.814,47.892,26.871,48.349L26.871,48.349z"/>
<path fill="#225469" d="M27.602,54.304c0.056,0.458-0.436,0.895-1.102,0.977l-11.313,1.389c-0.666,0.082-1.25-0.222-1.306-0.68l0,0
	c-0.056-0.457,0.437-0.894,1.103-0.975l11.313-1.39C26.962,53.543,27.545,53.848,27.602,54.304L27.602,54.304z"/>
<path fill="#225469" d="M28.333,60.26c0.056,0.458-0.437,0.894-1.103,0.976l-11.313,1.39c-0.666,0.081-1.249-0.223-1.305-0.681l0,0
	c-0.056-0.457,0.436-0.894,1.102-0.976l11.313-1.389C27.693,59.498,28.277,59.803,28.333,60.26L28.333,60.26z"/>
<path fill="#225469" d="M29.064,66.215c0.056,0.458-0.436,0.895-1.102,0.976l-11.313,1.39c-0.666,0.082-1.25-0.223-1.306-0.68l0,0
	c-0.056-0.458,0.437-0.895,1.103-0.976l11.313-1.39C28.424,65.453,29.008,65.758,29.064,66.215L29.064,66.215z"/>
<path fill="#225469" d="M29.795,72.171c0.056,0.457-0.437,0.894-1.102,0.976L17.38,74.535c-0.666,0.082-1.25-0.223-1.306-0.68l0,0
	c-0.056-0.458,0.436-0.895,1.102-0.976l11.313-1.39C29.156,71.409,29.739,71.713,29.795,72.171L29.795,72.171z"/>
<path fill="#225469" d="M48.785,46.192c-0.742,0.43-1.708,0.274-2.583-0.316c-0.556-0.377-1.716-0.97-2.375-1.106l0,0
	c0.161-0.591,0.199-1.836,0.233-2.619c0.038-0.866,0.375-2.018,1.015-2.385l19.103-9.873l18.102-11.608
	c1.219-0.704,1.964,0.786,2.988,2.56l0,0c1.024,1.775,1.94,3.165,0.723,3.868l-19.104,9.872L48.785,46.192z"/>
<path fill="#3CB9E9" d="M43.613,45.59c-0.279,0.161-0.636,0.065-0.797-0.213l0,0c-0.161-0.279-0.065-0.636,0.214-0.798l1.011-0.583
	c0.278-0.161,0.635-0.065,0.797,0.214l0,0c0.16,0.279,0.065,0.635-0.214,0.797L43.613,45.59z"/>
<radialGradient id="SVGID_1_" cx="22.2852" cy="94.2559" r="20.7533" gradientTransform="matrix(1.2134 0 0 0.2423 7.8574 71.3451)" gradientUnits="userSpaceOnUse">
	<stop  offset="0" style="stop-color:#215469"/>
	<stop  offset="0.1485" style="stop-color:#4E6E82;stop-opacity:0.8515"/>
	<stop  offset="0.374" style="stop-color:#8B9AA9;stop-opacity:0.626"/>
	<stop  offset="0.5801" style="stop-color:#BCC2CC;stop-opacity:0.4199"/>
	<stop  offset="0.7596" style="stop-color:#E0E2E8;stop-opacity:0.2404"/>
	<stop  offset="0.9057" style="stop-color:#F7F8F9;stop-opacity:0.0943"/>
	<stop  offset="1" style="stop-color:#FFFFFF;stop-opacity:0"/>
</radialGradient>
<path fill="url(#SVGID_1_)" d="M69.797,94.18c0,3.214-22.837,5.82-34.899,5.82C15.625,100,0,97.394,0,94.18
	c0-3.215,15.625-5.82,34.898-5.82C54.171,88.359,69.797,90.965,69.797,94.18z"/>
</svg>
