<?xml version="1.0" encoding="utf-8"?>
<!-- Generator: Adobe Illustrator 15.1.0, SVG Export Plug-In . SVG Version: 6.00 Build 0)  -->
<!DOCTYPE svg PUBLIC "-//W3C//DTD SVG 1.1//EN" "http://www.w3.org/Graphics/SVG/1.1/DTD/svg11.dtd">
<svg version="1.1" id="Ebene_1" xmlns="http://www.w3.org/2000/svg" xmlns:xlink="http://www.w3.org/1999/xlink" x="0px" y="0px"
	 width="100px" height="100px" viewBox="0 0 100 100" enable-background="new 0 0 100 100" xml:space="preserve">
<path fill="#225469" d="M73.507,80.28c1.76,3.05-0.24,5.293-3.289,7.054l0,0c-3.051,1.761-5.994,2.373-7.755-0.678l-19.525-33.82
	c-1.761-3.049,0.001-5.706,3.051-7.466l0,0c3.049-1.761,6.232-1.959,7.992,1.091L73.507,80.28z"/>
<rect x="41.686" y="38.486" transform="matrix(0.8661 -0.4999 0.4999 0.8661 -15.2966 27.8425)" fill="#225469" width="5.26" height="7.969"/>
<circle fill="none" stroke="#3CB9E9" stroke-width="6" stroke-miterlimit="10" cx="33.938" cy="23.401" r="19.765"/>
<radialGradient id="SVGID_1_" cx="47.6787" cy="94.3594" r="20.014" gradientTransform="matrix(1.2172 0 0 0.2434 8.2041 71.388)" gradientUnits="userSpaceOnUse">
	<stop  offset="0" style="stop-color:#215469"/>
	<stop  offset="0.1485" style="stop-color:#4E6E82;stop-opacity:0.8515"/>
	<stop  offset="0.374" style="stop-color:#8B9AA9;stop-opacity:0.626"/>
	<stop  offset="0.5801" style="stop-color:#BCC2CC;stop-opacity:0.4199"/>
	<stop  offset="0.7596" style="stop-color:#E0E2E8;stop-opacity:0.2404"/>
	<stop  offset="0.9057" style="stop-color:#F7F8F9;stop-opacity:0.0943"/>
	<stop  offset="1" style="stop-color:#FFFFFF;stop-opacity:0"/>
</radialGradient>
<path fill="url(#SVGID_1_)" d="M100,94.359C100,97.475,77.908,100,66.238,100c-18.644,0-33.76-2.525-33.76-5.641
	s15.116-5.641,33.76-5.641C84.885,88.719,100,91.244,100,94.359z"/>
</svg>
