<?xml version="1.0" encoding="utf-8"?>
<!-- Generator: Adobe Illustrator 15.1.0, SVG Export Plug-In . SVG Version: 6.00 Build 0)  -->
<!DOCTYPE svg PUBLIC "-//W3C//DTD SVG 1.1//EN" "http://www.w3.org/Graphics/SVG/1.1/DTD/svg11.dtd">
<svg version="1.1" id="Ebene_1" xmlns="http://www.w3.org/2000/svg" xmlns:xlink="http://www.w3.org/1999/xlink" x="0px" y="0px"
	 width="100px" height="100px" viewBox="0 0 100 100" enable-background="new 0 0 100 100" xml:space="preserve">
<rect x="44.587" y="7.701" fill="#225469" width="50.08" height="41.572"/>
<circle fill="#FFFFFF" stroke="#3CB9E9" stroke-width="6" stroke-miterlimit="10" cx="26.886" cy="37.268" r="13.707"/>
<path fill="#FFFFFF" stroke="#3CB9E9" stroke-width="6" stroke-miterlimit="10" d="M40.593,78.354
	c0,7.569-6.136,10.365-13.707,10.365l0,0c-7.57,0-13.707-2.796-13.707-10.365V64.05c0-7.571,6.137-11.387,13.707-11.387l0,0
	c7.571,0,13.707,3.815,13.707,11.387V78.354z"/>
<path fill="#FFFFFF" stroke="#3CB9E9" stroke-width="2.905" stroke-miterlimit="10" d="M9.207,59.623
	c1.206,0,2.185,0.828,2.185,1.849v4.281v17.056c0,1.02-0.979,1.85-2.185,1.85l0,0c-1.208,0-2.186-0.83-2.186-1.85V61.472
	C7.021,60.451,7.999,59.623,9.207,59.623L9.207,59.623z"/>
<path fill="#FFFFFF" stroke="#3CB9E9" stroke-width="2.905" stroke-miterlimit="10" d="M39.854,56.809
	c-0.854-0.853-0.959-2.13-0.238-2.852l3.026-3.027l12.063-12.061c0.722-0.721,1.997-0.615,2.851,0.238l0,0
	c0.855,0.854,0.96,2.131,0.238,2.852L42.708,57.047C41.985,57.769,40.708,57.662,39.854,56.809L39.854,56.809z"/>
<line fill="none" stroke="#3CB9E9" stroke-width="1.0669" stroke-miterlimit="10" x1="57.556" y1="39.107" x2="70.851" y2="19.302"/>
<radialGradient id="SVGID_1_" cx="18.0269" cy="93.9873" r="19.8371" gradientTransform="matrix(1.0963 0 0 0.1893 7.7664 77.8666)" gradientUnits="userSpaceOnUse">
	<stop  offset="0" style="stop-color:#215469"/>
	<stop  offset="0.1485" style="stop-color:#4E6E82;stop-opacity:0.8515"/>
	<stop  offset="0.374" style="stop-color:#8B9AA9;stop-opacity:0.626"/>
	<stop  offset="0.5801" style="stop-color:#BCC2CC;stop-opacity:0.4199"/>
	<stop  offset="0.7596" style="stop-color:#E0E2E8;stop-opacity:0.2404"/>
	<stop  offset="0.9057" style="stop-color:#F7F8F9;stop-opacity:0.0943"/>
	<stop  offset="1" style="stop-color:#FFFFFF;stop-opacity:0"/>
</radialGradient>
<path fill="url(#SVGID_1_)" d="M57.668,95.654c0,2.4-19.721,4.346-30.139,4.346c-16.645,0-30.138-1.945-30.138-4.346
	s13.494-4.347,30.138-4.347S57.668,93.254,57.668,95.654z"/>
<path fill="none" stroke="#3CB9E9" stroke-width="1.0669" stroke-miterlimit="10" d="M48.884,20.26
	c-0.04-0.878,0.277-1.668,0.924-2.185c0.191,0.526,1.046,1.646,1.164,2.146c0.45-0.939,0.88-1.779,1.386-2.708
	c0.594,0.932,0.869,2.298,0.838,3.578c-0.171-0.69,0.023-1.629,0.045-2.322c0.475,0.254,0.959,0.142,1.502,0.605
	c0.864-0.671,1.992-0.66,3.01-0.624c0.109,0.809,0.635,1.277,0.737,2.101c1.089-1.507,2.633-1.654,4.506-1.567
	c0.032-0.174,0.07-0.347,0.111-0.518c1.741,0.424,2.689,1.228,4.559,0.263"/>
</svg>
