<?xml version="1.0" encoding="utf-8"?>
<!-- Generator: Adobe Illustrator 15.1.0, SVG Export Plug-In . SVG Version: 6.00 Build 0)  -->
<!DOCTYPE svg PUBLIC "-//W3C//DTD SVG 1.1//EN" "http://www.w3.org/Graphics/SVG/1.1/DTD/svg11.dtd">
<svg version="1.1" id="Ebene_1" xmlns="http://www.w3.org/2000/svg" xmlns:xlink="http://www.w3.org/1999/xlink" x="0px" y="0px"
	 width="100px" height="100px" viewBox="0 0 100 100" enable-background="new 0 0 100 100" xml:space="preserve">
<path fill="#FFFFFF" stroke="#3CB9E9" stroke-width="6" stroke-miterlimit="10" d="M85.582,40.156
	c0,14.188-18.186,25.69-40.62,25.69c-0.691,0-1.379-0.011-2.063-0.033c-2.325-0.073-11.203,7.571-13.185,9.129
	c-2.038,1.601,1.339-10.586-1.019-11.238C14.36,59.737,4.342,50.687,4.342,40.156c0-14.188,18.186-25.69,40.62-25.69
	S85.582,25.968,85.582,40.156z"/>
<path fill="#FFFFFF" stroke="#225469" stroke-width="6" stroke-miterlimit="10" d="M38.313,57.365
	c0,10.231,13.115,18.527,29.296,18.527c0.499,0,0.995-0.008,1.487-0.023c1.678-0.053,8.081,5.461,9.511,6.584
	c1.469,1.154-0.967-7.635,0.733-8.105c10.34-2.861,17.565-9.389,17.565-16.982c0-10.234-13.116-18.53-29.297-18.53
	S38.313,47.131,38.313,57.365z"/>
<path fill="#3CB9E9" d="M8,99.149c0-9.655,7.827-17.482,17.481-17.482c9.654,0,17.481,7.827,17.481,17.482"/>
<path fill="#225469" d="M69.334,99.149c0-6.71,5.438-12.149,12.147-12.149c6.71,0,12.149,5.439,12.149,12.149"/>
</svg>
