<?xml version="1.0" encoding="utf-8"?>
<!-- Generator: Adobe Illustrator 15.1.0, SVG Export Plug-In . SVG Version: 6.00 Build 0)  -->
<!DOCTYPE svg PUBLIC "-//W3C//DTD SVG 1.1//EN" "http://www.w3.org/Graphics/SVG/1.1/DTD/svg11.dtd">
<svg version="1.1" id="Ebene_1" xmlns="http://www.w3.org/2000/svg" xmlns:xlink="http://www.w3.org/1999/xlink" x="0px" y="0px"
	 width="100px" height="100px" viewBox="0 0 100 100" enable-background="new 0 0 100 100" xml:space="preserve">
<path fill="#FFFFFF" stroke="#3DB9E9" stroke-width="5.9382" stroke-miterlimit="10" d="M57.086,81.836
	c0.177,2.005,0.167,5.057-1.163,5.172L51.069,88.7l-2.502-1.813c-1.329,0.117-2.278-0.675-2.453-2.682l-3.938-44.997
	c-5.06-3.217,0.761-3.726,2.089-3.842l7.085-0.62c1.328-0.116,7.331-0.121,2.725,3.422l-1.399,5.564l3.493,4.213l-0.486,4.561
	l1.993,5.06l-2.3,3.159l2.397,5.559l-2.371,3.996l4.062,7.934L57.086,81.836z"/>
<line fill="none" stroke="#225469" stroke-width="2.4288" stroke-miterlimit="10" x1="47.663" y1="37.172" x2="52.196" y2="86.246"/>
<path fill="#FFFFFF" stroke="#3DB9E9" stroke-width="5.9382" stroke-miterlimit="10" d="M63.209,31.466
	c0.082,0.945-0.48,1.765-1.256,1.833l-28.805,2.52c-0.776,0.068-1.473-0.643-1.555-1.587L29.325,8.295
	c-0.083-0.945,0.479-1.765,1.255-1.833l28.805-2.52c0.776-0.068,1.472,0.643,1.555,1.587L63.209,31.466z"/>
<circle fill="#215469" cx="45.893" cy="15.607" r="3.077"/>
<radialGradient id="SVGID_1_" cx="35.2607" cy="95.8789" r="14.6226" gradientTransform="matrix(1.2172 0 0 0.2434 8.305 72.5376)" gradientUnits="userSpaceOnUse">
	<stop  offset="0" style="stop-color:#215469"/>
	<stop  offset="0.1485" style="stop-color:#4E6E82;stop-opacity:0.8515"/>
	<stop  offset="0.374" style="stop-color:#8B9AA9;stop-opacity:0.626"/>
	<stop  offset="0.5801" style="stop-color:#BCC2CC;stop-opacity:0.4199"/>
	<stop  offset="0.7596" style="stop-color:#E0E2E8;stop-opacity:0.2404"/>
	<stop  offset="0.9057" style="stop-color:#F7F8F9;stop-opacity:0.0943"/>
	<stop  offset="1" style="stop-color:#FFFFFF;stop-opacity:0"/>
</radialGradient>
<path fill="url(#SVGID_1_)" d="M75.891,95.879c0,2.276-16.142,4.121-24.666,4.121c-13.623,0-24.666-1.845-24.666-4.121
	s11.043-4.121,24.666-4.121C64.847,91.758,75.891,93.603,75.891,95.879z"/>
</svg>
