<?xml version="1.0" encoding="utf-8"?>
<!-- Generator: Adobe Illustrator 15.1.0, SVG Export Plug-In . SVG Version: 6.00 Build 0)  -->
<!DOCTYPE svg PUBLIC "-//W3C//DTD SVG 1.1//EN" "http://www.w3.org/Graphics/SVG/1.1/DTD/svg11.dtd">
<svg version="1.1" id="Ebene_1" xmlns="http://www.w3.org/2000/svg" xmlns:xlink="http://www.w3.org/1999/xlink" x="0px" y="0px"
	 width="100px" height="200px" viewBox="0 0 100 200" enable-background="new 0 0 100 200" xml:space="preserve">
<g>
	<path fill="none" stroke="#FFFFFF" stroke-width="6" stroke-miterlimit="10" d="M95,72.006c0,6.627-5.35,12-11.945,12H16.946
		c-6.597,0-11.946-5.373-11.946-12V27c0-6.627,5.349-12,11.946-12h66.109C89.652,15,95,20.373,95,27V72.006L95,72.006z"/>
	<line fill="none" stroke="#FFFFFF" stroke-width="6" stroke-miterlimit="10" x1="8.685" y1="18.341" x2="50.586" y2="56.096"/>
	
		<line fill="none" stroke="#FFFFFF" stroke-width="6" stroke-linecap="round" stroke-miterlimit="10" x1="90.795" y1="17.868" x2="50.586" y2="56.096"/>
	<line fill="none" stroke="#FFFFFF" stroke-width="6" stroke-miterlimit="10" x1="9.311" y1="81.233" x2="43.268" y2="49.503"/>
	<line fill="none" stroke="#FFFFFF" stroke-width="6" stroke-miterlimit="10" x1="90.795" y1="81.136" x2="57.521" y2="49.503"/>
</g>
<g>
	<path fill="#215469" stroke="#FFFFFF" stroke-width="6" stroke-miterlimit="10" d="M95,172.006c0,6.627-5.35,12-11.945,12H16.946
		c-6.597,0-11.946-5.373-11.946-12V127c0-6.627,5.349-12,11.946-12h66.109C89.652,115,95,120.373,95,127V172.006L95,172.006z"/>
	<line fill="none" stroke="#FFFFFF" stroke-width="6" stroke-miterlimit="10" x1="8.685" y1="118.341" x2="50.586" y2="156.096"/>
	
		<line fill="none" stroke="#FFFFFF" stroke-width="6" stroke-linecap="round" stroke-miterlimit="10" x1="90.795" y1="117.868" x2="50.586" y2="156.096"/>
	<line fill="none" stroke="#FFFFFF" stroke-width="6" stroke-miterlimit="10" x1="9.311" y1="181.233" x2="43.268" y2="149.503"/>
	<line fill="none" stroke="#FFFFFF" stroke-width="6" stroke-miterlimit="10" x1="90.795" y1="181.136" x2="57.521" y2="149.503"/>
</g>
</svg>
