<?xml version="1.0" encoding="utf-8"?>
<!-- Generator: Adobe Illustrator 15.1.0, SVG Export Plug-In . SVG Version: 6.00 Build 0)  -->
<!DOCTYPE svg PUBLIC "-//W3C//DTD SVG 1.1//EN" "http://www.w3.org/Graphics/SVG/1.1/DTD/svg11.dtd">
<svg version="1.1" id="Ebene_1" xmlns="http://www.w3.org/2000/svg" xmlns:xlink="http://www.w3.org/1999/xlink" x="0px" y="0px"
	 width="100px" height="200px" viewBox="0 0 100 200" enable-background="new 0 0 100 200" xml:space="preserve">
<g>
	<path fill="none" stroke="#FFFFFF" stroke-width="6" stroke-miterlimit="10" d="M93.959,33.531
		c0,13.442-19.681,24.341-43.958,24.341c-0.749,0-1.493-0.01-2.233-0.031c-2.517-0.07-12.123,7.174-14.269,8.649
		c-2.205,1.517,1.449-10.03-1.103-10.647C16.882,52.084,6.041,43.509,6.041,33.531c0-13.443,19.681-24.341,43.96-24.341
		C74.278,9.19,93.959,20.088,93.959,33.531z"/>
	<path fill="#225469" stroke="#FFFFFF" stroke-width="6" stroke-miterlimit="10" d="M93.959,133.531
		c0,13.442-19.681,24.341-43.958,24.341c-0.749,0-1.493-0.01-2.233-0.031c-2.517-0.07-12.123,7.174-14.269,8.649
		c-2.205,1.517,1.449-10.03-1.103-10.647c-15.515-3.759-26.355-12.334-26.355-22.312c0-13.443,19.681-24.341,43.96-24.341
		C74.278,109.19,93.959,120.088,93.959,133.531z"/>
	<g>
		<path fill="#FFFFFF" stroke="#FFFFFF" stroke-miterlimit="10" d="M5.272,89.378v-16.52c0-0.84,0.672-1.54,1.54-1.54H6.84
			c0,0,0,0,0.056,0h9.072c0.812,0,1.54,0.7,1.54,1.54c0,0.868-0.728,1.568-1.54,1.568H8.38v5.124h6.524c0.84,0,1.54,0.728,1.54,1.54
			c0,0.868-0.7,1.568-1.54,1.568H8.38v6.72c0,0.84-0.7,1.54-1.568,1.54C5.944,90.918,5.272,90.218,5.272,89.378z"/>
		<path fill="#FFFFFF" stroke="#FFFFFF" stroke-miterlimit="10" d="M29.968,86.298h-6.804l-1.372,3.64
			c-0.252,0.616-0.84,0.98-1.456,0.98c-0.196,0-0.364-0.028-0.532-0.084c-0.812-0.308-1.204-1.204-0.924-2.016l6.188-16.492
			c0.252-0.616,0.868-1.008,1.484-0.98c0.644-0.028,1.232,0.364,1.484,0.98l6.188,16.492c0.28,0.812-0.112,1.708-0.924,2.016
			c-0.14,0.056-0.336,0.084-0.532,0.084c-0.616,0-1.204-0.364-1.428-0.98L29.968,86.298z M28.82,83.218l-2.268-6.02l-2.268,6.02
			H28.82z"/>
		<path fill="#FFFFFF" stroke="#FFFFFF" stroke-miterlimit="10" d="M57.828,93.69c-1.539,1.176-3.136,1.764-4.619,1.764h-0.084
			c-1.961,0-3.613-0.784-5.125-1.68c-0.56-0.308-1.148-0.42-1.708-0.42c-0.924,0-1.876,0.392-1.988,0.476
			c-0.56,0.308-1.204,0.252-1.624-0.084c-0.028-0.028-0.084-0.028-0.168-0.056c-0.028-0.028-0.028-0.028-0.056-0.028
			c-0.14-0.196-0.308-0.364-0.392-0.644c-0.42-0.84-0.028-1.764,0.756-2.156l0.084-0.056c-1.12-0.532-2.184-1.26-3.108-2.128
			c-1.708-1.904-2.8-4.479-2.8-7.308c0-2.8,1.092-5.348,2.8-7.224c1.792-1.932,4.256-3.108,7-3.108s5.236,1.176,6.944,3.108
			c1.792,1.876,2.855,4.424,2.855,7.224c0,2.828-1.063,5.404-2.855,7.308c-0.867,0.896-1.932,1.652-3.108,2.212l-0.644,0.252
			c1.176,0.644,2.24,1.008,3.137,1.008c0.812,0,1.596-0.196,2.743-1.064c0.7-0.56,1.708-0.42,2.269,0.28
			C58.696,92.066,58.584,93.074,57.828,93.69z M42.232,86.41c1.148,1.26,2.744,2.016,4.564,2.016c1.792,0,3.388-0.756,4.62-2.016
			c1.205-1.288,1.932-3.052,1.932-5.04c0-1.988-0.727-3.752-1.932-4.984c-1.231-1.288-2.828-2.044-4.62-2.044
			c-1.82,0-3.416,0.756-4.564,2.044c-1.204,1.232-1.932,2.996-1.932,4.984C40.3,83.358,41.028,85.122,42.232,86.41z"/>
	</g>
	<g>
		<path fill="#FFFFFF" stroke="#FFFFFF" stroke-miterlimit="10" d="M5.272,189.377v-16.52c0-0.84,0.672-1.54,1.54-1.54H6.84
			c0,0,0,0,0.056,0h9.072c0.812,0,1.54,0.7,1.54,1.54c0,0.868-0.728,1.568-1.54,1.568H8.38v5.123h6.524
			c0.84,0,1.54,0.729,1.54,1.541c0,0.867-0.7,1.568-1.54,1.568H8.38v6.719c0,0.84-0.7,1.541-1.568,1.541
			C5.944,190.918,5.272,190.217,5.272,189.377z"/>
		<path fill="#FFFFFF" stroke="#FFFFFF" stroke-miterlimit="10" d="M29.968,186.297h-6.804l-1.372,3.641
			c-0.252,0.616-0.84,0.98-1.456,0.98c-0.196,0-0.364-0.028-0.532-0.084c-0.812-0.309-1.204-1.205-0.924-2.017l6.188-16.491
			c0.252-0.617,0.868-1.009,1.484-0.98c0.644-0.028,1.232,0.363,1.484,0.98l6.188,16.491c0.28,0.812-0.112,1.708-0.924,2.017
			c-0.14,0.056-0.336,0.084-0.532,0.084c-0.616,0-1.204-0.364-1.428-0.98L29.968,186.297z M28.82,183.217l-2.268-6.02l-2.268,6.02
			H28.82z"/>
		<path fill="#FFFFFF" stroke="#FFFFFF" stroke-miterlimit="10" d="M57.828,193.689c-1.54,1.176-3.137,1.764-4.62,1.764h-0.084
			c-1.96,0-3.612-0.783-5.124-1.68c-0.56-0.309-1.148-0.42-1.708-0.42c-0.924,0-1.876,0.393-1.988,0.477
			c-0.56,0.308-1.204,0.252-1.624-0.084c-0.028-0.029-0.084-0.029-0.168-0.057c-0.028-0.027-0.028-0.027-0.056-0.027
			c-0.14-0.197-0.308-0.365-0.392-0.645c-0.42-0.84-0.028-1.764,0.756-2.156l0.084-0.056c-1.12-0.532-2.184-1.261-3.108-2.128
			c-1.708-1.904-2.8-4.48-2.8-7.309c0-2.8,1.092-5.348,2.8-7.224c1.792-1.933,4.256-3.108,7-3.108s5.235,1.176,6.944,3.108
			c1.791,1.876,2.855,4.424,2.855,7.224c0,2.828-1.064,5.404-2.855,7.309c-0.868,0.896-1.932,1.652-3.108,2.212l-0.644,0.252
			c1.176,0.644,2.241,1.008,3.136,1.008c0.812,0,1.596-0.196,2.743-1.063c0.701-0.561,1.709-0.42,2.269,0.279
			C58.695,192.065,58.584,193.073,57.828,193.689z M42.232,186.41c1.148,1.26,2.744,2.016,4.564,2.016
			c1.792,0,3.388-0.756,4.62-2.016c1.204-1.289,1.932-3.053,1.932-5.041s-0.728-3.752-1.932-4.983
			c-1.232-1.288-2.828-2.044-4.62-2.044c-1.82,0-3.416,0.756-4.564,2.044c-1.204,1.231-1.932,2.995-1.932,4.983
			S41.028,185.121,42.232,186.41z"/>
	</g>
</g>
</svg>
