<?xml version="1.0" encoding="utf-8"?>
<!-- Generator: Adobe Illustrator 15.1.0, SVG Export Plug-In . SVG Version: 6.00 Build 0)  -->
<!DOCTYPE svg PUBLIC "-//W3C//DTD SVG 1.1//EN" "http://www.w3.org/Graphics/SVG/1.1/DTD/svg11.dtd">
<svg version="1.1" id="Ebene_1" xmlns="http://www.w3.org/2000/svg" xmlns:xlink="http://www.w3.org/1999/xlink" x="0px" y="0px"
	 width="100px" height="100px" viewBox="0 0 100 100" enable-background="new 0 0 100 100" xml:space="preserve">
<radialGradient id="SVGID_1_" cx="34.3379" cy="94.2617" r="20.362" gradientTransform="matrix(1.2172 0 0 0.2434 8.2041 71.3141)" gradientUnits="userSpaceOnUse">
	<stop  offset="0" style="stop-color:#215469"/>
	<stop  offset="0.1485" style="stop-color:#4E6E82;stop-opacity:0.8515"/>
	<stop  offset="0.374" style="stop-color:#8B9AA9;stop-opacity:0.626"/>
	<stop  offset="0.5801" style="stop-color:#BCC2CC;stop-opacity:0.4199"/>
	<stop  offset="0.7596" style="stop-color:#E0E2E8;stop-opacity:0.2404"/>
	<stop  offset="0.9057" style="stop-color:#F7F8F9;stop-opacity:0.0943"/>
	<stop  offset="1" style="stop-color:#FFFFFF;stop-opacity:0"/>
</radialGradient>
<path fill="url(#SVGID_1_)" d="M84.348,94.262C84.348,97.431,61.872,100,50,100c-18.969,0-34.348-2.569-34.348-5.738
	c0-3.17,15.379-5.739,34.348-5.739C68.97,88.522,84.348,91.092,84.348,94.262z"/>
<g>
	<g>
		<path fill="#FFFFFF" stroke="#225469" stroke-width="3.8434" stroke-linecap="round" stroke-miterlimit="10" d="M84.023,49.675
			c4.293,0,7.77,3.897,7.77,8.7l0.002,8.92c0,4.811-3.479,8.705-7.771,8.705H67.635c-4.289,0-7.768-3.896-7.768-8.701v-8.92
			c0-4.807,3.477-8.703,7.768-8.703L84.023,49.675z"/>
		<path fill="#FFFFFF" stroke="#225469" stroke-width="3.8056" stroke-linejoin="round" stroke-miterlimit="10" d="M86.494,55.68"/>
		<path fill="#FFFFFF" stroke="#225469" stroke-width="3.8434" stroke-linecap="square" stroke-miterlimit="10" d="M87.602,50.768
			c-4.453-2.938-9.406-10.928-10.033-23.831c-0.148-2.282-1.797-3.363-4.016-3.363c-2.215,0-3.768,1.567-4.012,4.139h-0.023
			c-1.494,11.834-1.025,16.372,0.891,20.726"/>
		<polygon fill="#FFFFFF" points="87.602,53.023 73.906,52.021 72.053,47.406 83.6,49.961 		"/>
		<g>
			<path fill="#FFFFFF" stroke="#3CB9E9" stroke-width="3.8434" stroke-linecap="round" stroke-miterlimit="10" d="M68.84,52.963
				c0.006,1.813-1.465,3.279-3.275,3.279H54.813c-1.811,0-3.281-1.467-3.281-3.281l0,0c0-1.811,1.469-3.279,3.281-3.279l10.75,0.001
				C67.375,49.683,68.842,51.15,68.84,52.963L68.84,52.963z"/>
			<path fill="#FFFFFF" stroke="#3CB9E9" stroke-width="3.8434" stroke-linecap="round" stroke-miterlimit="10" d="M70.395,59.521
				c0,1.814-1.469,3.279-3.281,3.281L53.26,62.801c-1.811,0-3.279-1.465-3.279-3.279l0,0c0-1.813,1.466-3.281,3.279-3.281h13.854
				C68.926,56.24,70.395,57.709,70.395,59.521L70.395,59.521z"/>
			<path fill="#FFFFFF" stroke="#3CB9E9" stroke-width="3.8434" stroke-linecap="round" stroke-miterlimit="10" d="M70.395,66.084
				c0,1.811-1.471,3.279-3.281,3.279H53.26c-1.813,0-3.28-1.469-3.28-3.279l0,0c0.002-1.814,1.469-3.283,3.28-3.283l13.854,0.002
				C68.926,62.801,70.395,64.27,70.395,66.084L70.395,66.084z"/>
			<path fill="#FFFFFF" stroke="#3CB9E9" stroke-width="3.8434" stroke-linecap="round" stroke-miterlimit="10" d="M68.84,72.641
				c0.006,1.813-1.465,3.281-3.275,3.281L54.813,75.92c-1.811,0.002-3.281-1.467-3.281-3.279l0,0c0-1.813,1.471-3.281,3.281-3.279
				h10.75C67.375,69.361,68.842,70.828,68.84,72.641L68.84,72.641z"/>
		</g>
	</g>
	<g>
		<path fill="#FFFFFF" stroke="#225469" stroke-width="3.8434" stroke-linecap="square" stroke-miterlimit="10" d="M15.975,50.327
			c-4.291,0-7.768-3.897-7.768-8.701l-0.001-8.919c-0.001-4.809,3.478-8.703,7.769-8.703l16.39-0.002
			c4.29,0.002,7.766,3.897,7.766,8.701v8.92c0,4.807-3.476,8.702-7.766,8.702L15.975,50.327z"/>
		<path fill="#FFFFFF" stroke="#225469" stroke-width="3.8434" stroke-linecap="square" stroke-miterlimit="10" d="M13.505,44.323"
			/>
		<path fill="#FFFFFF" stroke="#225469" stroke-width="3.8434" stroke-linecap="square" stroke-miterlimit="10" d="M12.398,49.233
			c4.453,2.937,9.407,10.929,10.033,23.833c0.149,2.277,1.798,3.359,4.014,3.359s3.77-1.563,4.014-4.139h0.021
			c1.496-11.832,1.026-16.371-0.889-20.725"/>
		<polygon fill="#FFFFFF" points="12.398,46.978 26.093,47.98 27.948,52.596 16.401,50.04 		"/>
		<g>
			<path fill="#FFFFFF" stroke="#3CB9E9" stroke-width="3.8434" stroke-linecap="round" stroke-miterlimit="10" d="M31.159,47.038
				c-0.004-1.812,1.466-3.28,3.277-3.28h10.75c1.812,0,3.281,1.469,3.281,3.282l0,0c0,1.812-1.469,3.278-3.281,3.278h-10.75
				C32.625,50.318,31.158,48.851,31.159,47.038L31.159,47.038z"/>
			<path fill="#FFFFFF" stroke="#3CB9E9" stroke-width="3.8434" stroke-linecap="round" stroke-miterlimit="10" d="M29.606,40.481
				c0-1.814,1.469-3.28,3.279-3.282l13.853,0.002c1.813,0,3.281,1.466,3.281,3.28l0,0c0,1.812-1.467,3.278-3.281,3.278H32.887
				C31.075,43.759,29.606,42.292,29.606,40.481L29.606,40.481z"/>
			<path fill="#FFFFFF" stroke="#3CB9E9" stroke-width="3.8434" stroke-linecap="round" stroke-miterlimit="10" d="M29.606,33.917
				c0-1.81,1.471-3.278,3.281-3.278h13.851c1.814,0,3.281,1.469,3.281,3.278l0,0c-0.001,1.813-1.468,3.283-3.281,3.283
				l-13.853-0.002C31.075,37.201,29.606,35.731,29.606,33.917L29.606,33.917z"/>
			<path fill="#FFFFFF" stroke="#3CB9E9" stroke-width="3.8434" stroke-linecap="round" stroke-miterlimit="10" d="M31.159,27.36
				c-0.004-1.811,1.466-3.279,3.277-3.279l10.75,0.002c1.812-0.002,3.281,1.467,3.281,3.278l0,0c0,1.813-1.47,3.281-3.281,3.28
				h-10.75C32.625,30.641,31.158,29.173,31.159,27.36L31.159,27.36z"/>
		</g>
	</g>
</g>
</svg>
