<?xml version="1.0" encoding="utf-8"?>
<!-- Generator: Adobe Illustrator 15.1.0, SVG Export Plug-In . SVG Version: 6.00 Build 0)  -->
<!DOCTYPE svg PUBLIC "-//W3C//DTD SVG 1.1//EN" "http://www.w3.org/Graphics/SVG/1.1/DTD/svg11.dtd">
<svg version="1.1" id="Ebene_1" xmlns="http://www.w3.org/2000/svg" xmlns:xlink="http://www.w3.org/1999/xlink" x="0px" y="0px"
	 width="100px" height="100px" viewBox="0 0 100 100" enable-background="new 0 0 100 100" xml:space="preserve">
<path fill="none" stroke="#225469" stroke-width="1.4223" stroke-linecap="square" stroke-miterlimit="10" d="M97.05,74.564
	c-8.751,0-16.497-6.413-16.497-14.913c0-8.499,7.095-15.222,15.847-15.222"/>
<path fill="#FFFFFF" stroke="#3CB9E9" stroke-width="6" stroke-miterlimit="10" d="M53.617,47.274
	c0,18.819-8.801,32.252-24.316,32.252c-15.514,0-24.503-12.248-24.503-31.069c0-18.823,8.989-31.071,24.503-31.071
	C44.816,17.386,53.617,28.452,53.617,47.274z"/>
<path fill="none" stroke="#3CB9E9" stroke-width="6" stroke-linecap="square" stroke-miterlimit="10" d="M95.613,79.526
	c-11.294,0-20.45-8.979-20.45-20.056s9.156-20.056,20.45-20.056"/>
<line fill="#225469" stroke="#3CB9E9" stroke-width="3" stroke-miterlimit="10" x1="70.473" y1="54.859" x2="95.144" y2="54.859"/>
<line fill="none" stroke="#3CB9E9" stroke-width="3" stroke-miterlimit="10" x1="70.473" y1="62.124" x2="95.144" y2="62.124"/>
<path fill="#FFFFFF" stroke="#225469" stroke-width="2.2371" stroke-miterlimit="10" d="M47.935,47.549
	c0,14.439-6.825,26.259-18.728,26.259c-11.901,0-18.727-10.912-18.727-25.354c0-14.438,6.825-25.196,18.727-25.196
	C41.11,23.259,47.935,33.109,47.935,47.549z"/>
<line fill="none" stroke="#225469" stroke-width="0.9223" stroke-miterlimit="10" x1="70.473" y1="57.627" x2="95.144" y2="57.627"/>
<line fill="none" stroke="#225469" stroke-width="0.9223" stroke-miterlimit="10" x1="70.473" y1="64.73" x2="95.144" y2="64.73"/>
<radialGradient id="SVGID_1_" cx="17.1484" cy="95.1426" r="17.2372" gradientTransform="matrix(1.2172 0 0 0.2434 8.2041 71.9805)" gradientUnits="userSpaceOnUse">
	<stop  offset="0" style="stop-color:#215469"/>
	<stop  offset="0.1485" style="stop-color:#4E6E82;stop-opacity:0.8515"/>
	<stop  offset="0.374" style="stop-color:#8B9AA9;stop-opacity:0.626"/>
	<stop  offset="0.5801" style="stop-color:#BCC2CC;stop-opacity:0.4199"/>
	<stop  offset="0.7596" style="stop-color:#E0E2E8;stop-opacity:0.2404"/>
	<stop  offset="0.9057" style="stop-color:#F7F8F9;stop-opacity:0.0943"/>
	<stop  offset="1" style="stop-color:#FFFFFF;stop-opacity:0"/>
</radialGradient>
<path fill="url(#SVGID_1_)" d="M58.154,95.143c0,2.682-19.028,4.857-29.077,4.857C13.018,100,0,97.824,0,95.143
	c0-2.684,13.018-4.858,29.077-4.858C45.136,90.284,58.154,92.459,58.154,95.143z"/>
<line fill="#225469" stroke="#3CB9E9" stroke-width="6" stroke-miterlimit="10" x1="51.093" y1="90.956" x2="54.01" y2="74.415"/>
<line fill="none" stroke="#225469" stroke-width="0.761" stroke-miterlimit="10" x1="55.818" y1="91.438" x2="58.735" y2="74.895"/>
<line fill="#225469" stroke="#3CB9E9" stroke-width="3" stroke-miterlimit="10" x1="58.736" y1="68.332" x2="68.737" y2="68.331"/>
<line fill="none" stroke="#225469" stroke-width="0.5873" stroke-miterlimit="10" x1="58.735" y1="71.099" x2="68.738" y2="71.099"/>
</svg>
