<?xml version="1.0" encoding="utf-8"?>
<!-- Generator: Adobe Illustrator 15.1.0, SVG Export Plug-In . SVG Version: 6.00 Build 0)  -->
<!DOCTYPE svg PUBLIC "-//W3C//DTD SVG 1.1//EN" "http://www.w3.org/Graphics/SVG/1.1/DTD/svg11.dtd">
<svg version="1.1" id="Ebene_1" xmlns="http://www.w3.org/2000/svg" xmlns:xlink="http://www.w3.org/1999/xlink" x="0px" y="0px"
	 width="714.176px" height="304.157px" viewBox="0 0 714.176 304.157" enable-background="new 0 0 714.176 304.157"
	 xml:space="preserve">
<g>
	<path fill="#FFFFFF" d="M328.279,143.545c-16.938,4.28-17.369,3.243-16.938,4.28c10.822,26.244,48.543,44.869,93.422,44.869
		c1.646,0,3.284-0.031,4.909-0.082c5.527-0.178,26.631,18.002,31.342,21.7c4.835,3.806-3.188-25.166,2.423-26.72
		c34.073-9.422,57.886-30.938,57.886-55.974c0-33.719-43.229-61.061-96.56-61.061c-11.973,0-23.436,1.377-34.014,3.896
		c-0.942,0.228-1.877,0.49-2.781,0.789"/>
	<path fill="#3CB9E9" d="M325.402,131.293c0,3.951,1.016,7.809,2.877,11.504c9.925,19.685,43.973,34.772,77.231,34.772
		c1.22,0,2.437-0.021,3.639-0.064c4.101-0.129,17.964,11.908,21.458,14.652c3.583,2.815-0.601-17.224,3.556-18.365
		c25.244-6.983,49.761-22.645,49.761-41.188c0-24.984-38.896-47.614-78.402-47.614c-11.975,0-24.041,1.961-35.057,5.381
		c-22.17,6.887-39.33,17.629-43.451,32.396C326.424,124.875,325.402,129.118,325.402,131.293z"/>
	<path fill="#FFFFFF" d="M367.521,94.152c-0.104,0.666,18.499-5.038,18.367-4.378c-6.002,30.074-46.726,55.865-95.913,55.865
		c-1.64,0-3.275-0.026-4.907-0.082c-5.526-0.17-26.623,18.003-31.335,21.701c-4.839,3.807,3.183-25.162-2.424-26.715
		c-34.076-9.427-57.887-30.938-57.887-55.975c0.004-33.718,43.229-61.06,96.554-61.06c43.296,0,80.857,19.91,93.112,44.74
		c0.472,0.945-17.268,3.046-16.874,4.008"/>
	<path fill="#225469" d="M367.942,93.407c-8.311,20.814-43.722,37.11-78.29,37.11c-1.215,0-2.427-0.021-3.634-0.061
		c-4.096-0.129-17.968,11.904-21.454,14.651c-3.586,2.817,0.599-17.222-3.556-18.367c-25.244-6.986-49.764-22.644-49.764-41.188
		c0-24.981,38.899-47.615,78.405-47.615c32.984,0,66.737,14.869,76.986,34.317"/>
	<path fill="#FFFFFF" d="M368.017,75.438c-20.614,4.6-53.689,18.897-59.795,49.696c-0.262,1.298,18.445-4.202,18.445-4.202
		c3.527-15.65,30.621-26.983,43.34-30.894C371.947,89.44,367.05,75.438,368.017,75.438z"/>
	<path fill="#FFFFFF" d="M179.447,303.97c-9.5-12.433-15.145-27.968-15.145-44.815c0-40.802,33.069-73.871,73.868-73.871
		c40.798,0,73.87,33.069,73.87,73.871c0,18.975-9.569,35.021-15.438,44.815"/>
	<path fill="#FFFFFF" d="M413.031,303.97c-6.092-7.976-9.709-17.931-9.709-28.739c0-26.169,21.206-47.365,47.374-47.365
		c26.162,0,47.375,21.203,47.375,47.365c0,12.163-4.143,18.789-9.909,28.739"/>
	<path fill="#3CB9E9" d="M215.316,303.696c-15.989-8.287-26.908-24.978-26.908-44.224c0-27.481,22.278-49.767,49.768-49.767
		c27.49,0,49.769,22.283,49.769,49.767c0,19.229-10.912,35.922-26.883,44.203"/>
	<path fill="#225469" d="M435.242,304.157c-10.001-5.475-16.778-16.095-16.778-28.297c0-17.805,14.433-32.236,32.236-32.236
		c17.803,0,32.23,14.434,32.23,32.236c0,12.073-6.638,22.602-16.47,28.123"/>
</g>
<g>
	<circle fill="#FFFFFF" cx="696.891" cy="43.626" r="16.315"/>
	<circle fill="#FFFFFF" cx="647.026" cy="43.626" r="16.315"/>
	<circle fill="#FFFFFF" cx="664.414" cy="27.311" r="20.545"/>
	<circle fill="#FFFFFF" cx="689.341" cy="25.731" r="14.409"/>
	<ellipse fill="#FFFFFF" cx="671.798" cy="45.434" rx="26.742" ry="23.678"/>
</g>
<g>
	<circle fill="#FFFFFF" cx="95.204" cy="146.973" r="23.709"/>
	<circle fill="#FFFFFF" cx="22.74" cy="146.973" r="23.709"/>
	<circle fill="#FFFFFF" cx="48.009" cy="123.264" r="29.856"/>
	<circle fill="#FFFFFF" cx="84.233" cy="120.968" r="20.939"/>
	<ellipse fill="#FFFFFF" cx="58.739" cy="149.601" rx="38.863" ry="34.408"/>
</g>
<g>
	<circle fill="#FFFFFF" cx="619.242" cy="206.216" r="19.777"/>
	<circle fill="#FFFFFF" cx="558.797" cy="206.216" r="19.777"/>
	<circle fill="#FFFFFF" cx="579.875" cy="186.439" r="24.904"/>
	<circle fill="#FFFFFF" cx="610.09" cy="184.524" r="17.466"/>
	<ellipse fill="#FFFFFF" cx="588.824" cy="208.407" rx="32.418" ry="28.701"/>
</g>
</svg>
