<?xml version="1.0" encoding="utf-8"?>
<!-- Generator: Adobe Illustrator 15.1.0, SVG Export Plug-In . SVG Version: 6.00 Build 0)  -->
<!DOCTYPE svg PUBLIC "-//W3C//DTD SVG 1.1//EN" "http://www.w3.org/Graphics/SVG/1.1/DTD/svg11.dtd">
<svg version="1.1" id="Ebene_1" xmlns="http://www.w3.org/2000/svg" xmlns:xlink="http://www.w3.org/1999/xlink" x="0px" y="0px"
	 width="100px" height="100px" viewBox="0 0 100 100" enable-background="new 0 0 100 100" xml:space="preserve">
<polygon fill="#FFFFFF" stroke="#40B9E8" stroke-width="6" stroke-miterlimit="10" points="45.36,81.244 39.796,71.416 
	30.146,76.838 39.723,41.097 54.811,45.139 "/>
<polygon fill="#215469" points="39.428,68.297 40.903,67.465 41.766,68.922 48.461,43.934 46.125,43.307 "/>
<polygon fill="#FFFFFF" stroke="#40B9E8" stroke-width="6" stroke-miterlimit="10" points="70.289,77.271 60.555,71.541 
	54.91,81.063 45.333,45.321 60.42,41.278 "/>
<polygon fill="#215469" points="61.003,68.297 59.528,67.465 58.665,68.922 51.97,43.935 54.306,43.308 "/>
<polygon fill="#3CB9E9" points="68.035,43.655 65.232,42.876 65.746,45.739 63.061,44.62 63.219,47.525 60.689,46.085 60.49,48.987 
	58.158,47.248 57.604,50.104 55.502,48.091 54.602,50.855 52.764,48.601 51.527,51.234 49.983,48.77 48.433,51.23 47.202,48.596 
	45.362,50.848 44.463,48.082 42.36,50.092 41.809,47.235 39.475,48.971 39.279,46.068 36.75,47.504 36.912,44.6 34.224,45.714 
	34.742,42.852 31.938,43.627 32.804,40.85 29.926,41.274 31.126,38.625 28.218,38.693 29.736,36.211 26.841,35.921 28.652,33.645 
	25.815,33.001 27.891,30.964 25.155,29.977 27.466,28.21 24.872,26.895 27.382,25.426 24.969,23.801 27.642,22.651 25.447,20.742 
	28.24,19.93 26.296,17.766 29.167,17.303 27.504,14.916 30.412,14.81 29.054,12.237 31.953,12.488 30.922,9.769 33.767,10.374 
	33.079,7.548 35.828,8.499 35.492,5.609 38.103,6.891 38.125,3.981 40.558,5.574 40.937,2.69 43.158,4.57 43.888,1.754 45.86,3.893 
	46.931,1.188 48.625,3.553 50.02,1 51.412,3.555 53.109,1.193 54.176,3.899 56.152,1.764 56.877,4.581 59.102,2.705 59.475,5.59 
	61.912,4.001 61.93,6.909 64.543,5.632 64.201,8.521 66.951,7.574 66.26,10.4 69.105,9.799 68.07,12.518 70.969,12.271 
	69.607,14.841 72.514,14.952 70.848,17.336 73.719,17.804 71.771,19.965 74.563,20.781 72.365,22.687 75.035,23.841 72.619,25.461 
	75.129,26.935 72.531,28.246 74.84,30.016 72.102,30.999 74.176,33.039 71.338,33.678 73.145,35.958 70.25,36.243 71.762,38.728 
	68.855,38.655 70.051,41.307 67.174,40.877 "/>
<circle fill="#FFFFFF" cx="50.001" cy="26.117" r="20.126"/>
<circle fill="#FFFFFF" stroke="#40B9E8" stroke-width="6" stroke-miterlimit="10" cx="50" cy="26.117" r="14.672"/>
<text transform="matrix(1 0 0 1 43.1953 34.9092)" fill="#215469" font-family="'ArialMT'" font-size="25.6213">1</text>
<radialGradient id="SVGID_1_" cx="34.2549" cy="94.873" r="18.191" gradientTransform="matrix(1.2172 0 0 0.2434 8.305 71.7766)" gradientUnits="userSpaceOnUse">
	<stop  offset="0" style="stop-color:#215469"/>
	<stop  offset="0.1485" style="stop-color:#4E6E82;stop-opacity:0.8515"/>
	<stop  offset="0.374" style="stop-color:#8B9AA9;stop-opacity:0.626"/>
	<stop  offset="0.5801" style="stop-color:#BCC2CC;stop-opacity:0.4199"/>
	<stop  offset="0.7596" style="stop-color:#E0E2E8;stop-opacity:0.2404"/>
	<stop  offset="0.9057" style="stop-color:#F7F8F9;stop-opacity:0.0943"/>
	<stop  offset="1" style="stop-color:#FFFFFF;stop-opacity:0"/>
</radialGradient>
<path fill="url(#SVGID_1_)" d="M80.686,94.873C80.686,97.705,60.605,100,50,100c-16.947,0-30.686-2.295-30.686-5.127
	S33.052,89.746,50,89.746C66.947,89.746,80.686,92.041,80.686,94.873z"/>
</svg>
