<?xml version="1.0" encoding="utf-8"?>
<!-- Generator: Adobe Illustrator 15.1.0, SVG Export Plug-In . SVG Version: 6.00 Build 0)  -->
<!DOCTYPE svg PUBLIC "-//W3C//DTD SVG 1.1//EN" "http://www.w3.org/Graphics/SVG/1.1/DTD/svg11.dtd">
<svg version="1.1" id="Ebene_1" xmlns="http://www.w3.org/2000/svg" xmlns:xlink="http://www.w3.org/1999/xlink" x="0px" y="0px"
	 width="92.5px" height="100px" viewBox="0 0 92.5 100" enable-background="new 0 0 92.5 100" xml:space="preserve">
<g>
	<g>
		<path fill="#3CB9E9" d="M3.28,51.878C13.8,54.737,19.405,62.967,22.398,72.98c2.207,7.383,1.839,15.785,4.782,22.891
			c1.601,3.865,15.098,0.384,15.572-3.35c2.139-16.86,5.914-35.018,12.645-50.685C61.249,28.213,71.911,16.246,85.4,9.94
			c1.603-0.75,5.186-3.637,1.748-4.702c-3.519-1.09-7.811,0.351-10.98,1.832c-15.081,7.05-26.967,19.112-34.625,33.812
			c-3.983,7.646-6.025,16.2-8.242,24.475c-2.613,9.754-4.775,19.65-6.047,29.673c5.19-1.117,10.381-2.233,15.572-3.35
			c-3.058-7.384-2.773-16.173-5.071-23.858C34.481,56.87,27.241,48.397,16.009,45.344c-3.522-0.957-7.831,0.213-10.98,1.832
			C3.589,47.916-0.289,50.908,3.28,51.878L3.28,51.878z"/>
	</g>
</g>
<g>
	<g>
		<path fill="#FFFFFF" d="M10.23,50.404c10.152,2.775,15.745,10.554,18.647,20.264c2.019,6.756,1.688,14.426,4.37,20.934
			c0.228,0.553,2.157,0.054,2.225-0.479C39.294,61.09,48.646,24.205,78.691,10.05c1.346-0.634-0.73-0.687-1.318-0.41
			C46.84,24.024,37.153,60.875,33.258,91.48c0.742-0.159,1.483-0.318,2.225-0.479c-2.794-6.781-2.546-14.83-4.655-21.883
			c-2.848-9.528-8.987-16.972-18.779-19.649C11.486,49.316,9.491,50.202,10.23,50.404L10.23,50.404z"/>
	</g>
</g>
</svg>
