<?xml version="1.0" encoding="utf-8"?>
<!-- Generator: Adobe Illustrator 15.1.0, SVG Export Plug-In . SVG Version: 6.00 Build 0)  -->
<!DOCTYPE svg PUBLIC "-//W3C//DTD SVG 1.1//EN" "http://www.w3.org/Graphics/SVG/1.1/DTD/svg11.dtd">
<svg version="1.1" id="Ebene_1" xmlns="http://www.w3.org/2000/svg" xmlns:xlink="http://www.w3.org/1999/xlink" x="0px" y="0px"
	 width="92.5px" height="100px" viewBox="0 0 92.5 100" enable-background="new 0 0 92.5 100" xml:space="preserve">
<g>
	<g>
		<path fill="#FFFFFF" d="M3.28,51.878c10.706,2.906,16.3,11.383,19.252,21.571c2.096,7.234,1.765,15.47,4.648,22.422
			c1.603,3.865,15.098,0.385,15.572-3.35c2.14-16.86,5.914-35.018,12.645-50.686C61.249,28.212,71.911,16.246,85.4,9.94
			c1.603-0.75,5.186-3.637,1.748-4.702c-3.519-1.09-7.811,0.351-10.98,1.832C61.086,14.12,49.2,26.182,41.543,40.881
			c-3.983,7.646-6.025,16.2-8.242,24.476c-2.613,9.753-4.775,19.649-6.047,29.672c5.19-1.117,10.381-2.233,15.572-3.35
			c-3.125-7.534-2.801-16.492-5.217-24.324c-3.318-10.757-10.557-19.014-21.6-22.011c-3.522-0.956-7.83,0.213-10.98,1.832
			C3.589,47.916-0.29,50.909,3.28,51.878L3.28,51.878z"/>
	</g>
</g>
<g>
	<g>
		<path fill="#3CB9E9" d="M10.23,50.404c10.152,2.775,15.745,10.555,18.647,20.264c2.019,6.756,1.688,14.427,4.37,20.935
			c0.228,0.553,2.157,0.054,2.225-0.479c3.822-30.033,13.173-66.918,43.219-81.074c1.346-0.634-0.73-0.687-1.318-0.41
			c-30.533,14.385-40.22,51.235-44.115,81.841c0.742-0.159,1.483-0.318,2.225-0.479c-2.794-6.781-2.546-14.83-4.655-21.884
			c-2.848-9.528-8.987-16.971-18.779-19.648C11.486,49.317,9.491,50.202,10.23,50.404L10.23,50.404z"/>
	</g>
</g>
</svg>
