<?xml version="1.0" encoding="utf-8"?>
<!-- Generator: Adobe Illustrator 15.1.0, SVG Export Plug-In . SVG Version: 6.00 Build 0)  -->
<!DOCTYPE svg PUBLIC "-//W3C//DTD SVG 1.1//EN" "http://www.w3.org/Graphics/SVG/1.1/DTD/svg11.dtd">
<svg version="1.1" id="Ebene_1" xmlns="http://www.w3.org/2000/svg" xmlns:xlink="http://www.w3.org/1999/xlink" x="0px" y="0px"
	 width="100px" height="100px" viewBox="0 0 100 100" enable-background="new 0 0 100 100" xml:space="preserve">
<circle fill="#3CB9E9" cx="50" cy="44.334" r="44.334"/>
<circle fill="none" stroke="#FFFFFF" stroke-width="5.9161" stroke-miterlimit="10" cx="50" cy="44.334" r="35.283"/>
<rect x="14.664" y="42.097" fill="#FFFFFF" width="70.67" height="4.473"/>
<rect x="47.764" y="8.998" fill="#FFFFFF" width="4.472" height="70.671"/>
<rect x="18.69" y="57.006" fill="#FFFFFF" width="62.619" height="4.473"/>
<rect x="18.69" y="27.188" fill="#FFFFFF" width="62.619" height="4.473"/>
<g>
	<path fill="#FFFFFF" d="M52.954,6.614c18.555,21.724,18.555,53.715,0,75.438c-1.134-0.969-2.268-1.937-3.401-2.905
		c17.125-20.051,17.125-49.578,0-69.628C50.687,8.551,51.82,7.583,52.954,6.614z"/>
</g>
<g>
	<path fill="#FFFFFF" d="M50.447,9.259c-17.253,20.201-17.253,49.949,0,70.15c-1.134,0.968-2.268,1.937-3.401,2.904
		c-18.682-21.873-18.682-54.085,0-75.959C48.18,7.322,49.313,8.291,50.447,9.259z"/>
</g>
<radialGradient id="SVGID_1_" cx="34.3369" cy="94.5127" r="19.5599" gradientTransform="matrix(1.2172 0 0 0.2434 8.2041 71.504)" gradientUnits="userSpaceOnUse">
	<stop  offset="0" style="stop-color:#215469"/>
	<stop  offset="0.1485" style="stop-color:#4E6E82;stop-opacity:0.8515"/>
	<stop  offset="0.374" style="stop-color:#8B9AA9;stop-opacity:0.626"/>
	<stop  offset="0.5801" style="stop-color:#BCC2CC;stop-opacity:0.4199"/>
	<stop  offset="0.7596" style="stop-color:#E0E2E8;stop-opacity:0.2404"/>
	<stop  offset="0.9057" style="stop-color:#F7F8F9;stop-opacity:0.0943"/>
	<stop  offset="1" style="stop-color:#FFFFFF;stop-opacity:0"/>
</radialGradient>
<path fill="url(#SVGID_1_)" d="M82.994,94.513c0,3.045-21.59,5.513-32.994,5.513c-18.223,0-32.995-2.468-32.995-5.513
	S31.777,89,50,89S82.994,91.468,82.994,94.513z"/>
</svg>
