<?xml version="1.0" encoding="utf-8"?>
<!-- Generator: Adobe Illustrator 15.1.0, SVG Export Plug-In . SVG Version: 6.00 Build 0)  -->
<!DOCTYPE svg PUBLIC "-//W3C//DTD SVG 1.1//EN" "http://www.w3.org/Graphics/SVG/1.1/DTD/svg11.dtd">
<svg version="1.1" id="Ebene_1" xmlns="http://www.w3.org/2000/svg" xmlns:xlink="http://www.w3.org/1999/xlink" x="0px" y="0px"
	 width="100px" height="100px" viewBox="0 0 100 100" enable-background="new 0 0 100 100" xml:space="preserve">
<g>
	<path fill="#4CC2F1" stroke="#3CB9E9" stroke-width="4" stroke-miterlimit="10" d="M83.529,20.249
		c-0.064,0.048-0.136,0.089-0.213,0.121L4.658,52.3c-0.506,0.202-1.082-0.039-1.287-0.544c-0.203-0.503,0.037-1.077,0.545-1.283
		l78.659-31.93c0.504-0.205,1.08,0.04,1.285,0.542C84.033,19.513,83.886,19.989,83.529,20.249z"/>
</g>
<g>
	<path fill="#4CC2F1" stroke="#3CB9E9" stroke-width="4" stroke-miterlimit="10" d="M37.632,86.391
		c0.005-0.08,0.021-0.161,0.047-0.24L63.779,5.37c0.169-0.518,0.725-0.803,1.242-0.635c0.517,0.167,0.802,0.72,0.632,1.241
		l-26.101,80.78c-0.167,0.519-0.725,0.802-1.241,0.636C37.874,87.25,37.604,86.83,37.632,86.391z"/>
</g>
<g>
	<path fill="#3CB9E9" d="M28.299,77.857c-0.048,0-0.097-0.004-0.146-0.013c-0.466-0.08-0.779-0.523-0.699-0.99L39.987,4.028
		c0.081-0.466,0.527-0.778,0.99-0.699c0.466,0.08,0.779,0.523,0.699,0.99L29.143,77.146C29.071,77.563,28.708,77.857,28.299,77.857z
		"/>
</g>
<radialGradient id="SVGID_1_" cx="34.3374" cy="94.4873" r="19.5599" gradientTransform="matrix(1.2172 0 0 0.2434 8.2041 71.4847)" gradientUnits="userSpaceOnUse">
	<stop  offset="0" style="stop-color:#215469"/>
	<stop  offset="0.1485" style="stop-color:#4E6E82;stop-opacity:0.8515"/>
	<stop  offset="0.374" style="stop-color:#8B9AA9;stop-opacity:0.626"/>
	<stop  offset="0.5801" style="stop-color:#BCC2CC;stop-opacity:0.4199"/>
	<stop  offset="0.7596" style="stop-color:#E0E2E8;stop-opacity:0.2404"/>
	<stop  offset="0.9057" style="stop-color:#F7F8F9;stop-opacity:0.0943"/>
	<stop  offset="1" style="stop-color:#FFFFFF;stop-opacity:0"/>
</radialGradient>
<path fill="url(#SVGID_1_)" d="M82.994,94.487C82.994,97.532,61.404,100,50,100c-18.222,0-32.994-2.468-32.994-5.513
	S31.778,88.975,50,88.975C68.223,88.975,82.994,91.442,82.994,94.487z"/>
<g>
	<path fill="#3CB9E9" d="M85.532,78c-0.194,0-0.391-0.057-0.563-0.175L13.852,29.193c-0.456-0.312-0.572-0.934-0.261-1.389
		c0.311-0.455,0.933-0.571,1.389-0.261l71.118,48.633c0.455,0.312,0.571,0.934,0.26,1.389C86.164,77.848,85.852,78,85.532,78z"/>
</g>
<g>
	<path fill="#3CB9E9" d="M27.1,67.702c-0.318,0-0.629-0.157-0.812-0.445c-0.285-0.448-0.152-1.042,0.296-1.327l69.901-44.407
		c0.451-0.284,1.042-0.151,1.327,0.296c0.284,0.448,0.151,1.042-0.296,1.326L27.614,67.553C27.454,67.653,27.276,67.702,27.1,67.702
		z"/>
</g>
<g>
	<path fill="#3CB9E9" d="M25.167,74.862c-0.291,0-0.564-0.179-0.67-0.469c-0.136-0.37,0.055-0.78,0.425-0.916l57.787-21.164
		c0.365-0.132,0.78,0.054,0.916,0.426c0.135,0.37-0.055,0.78-0.426,0.916L25.412,74.819C25.331,74.849,25.248,74.862,25.167,74.862z
		"/>
</g>
<g>
	<path fill="#4CC2F1" stroke="#3CB9E9" stroke-width="4" stroke-miterlimit="10" d="M90.541,61.171
		c-0.08,0.001-0.162-0.01-0.243-0.029L7.894,40.739c-0.528-0.133-0.852-0.667-0.721-1.195c0.131-0.527,0.662-0.85,1.194-0.717
		l82.404,20.402c0.528,0.131,0.851,0.667,0.721,1.194C91.381,60.87,90.981,61.169,90.541,61.171z"/>
</g>
<g>
	<path fill="#3CB9E9" d="M58.548,86.88c-0.179,0-0.356-0.067-0.493-0.204L15.512,44.174c-0.272-0.272-0.272-0.714,0-0.987
		c0.271-0.272,0.713-0.273,0.987,0l42.542,42.502c0.272,0.272,0.272,0.714,0,0.986C58.905,86.812,58.727,86.88,58.548,86.88z"/>
</g>
<g>
	<circle fill="#225469" cx="50.543" cy="50.269" r="3"/>
</g>
<g>
	<circle fill="#225469" cx="34.564" cy="61.813" r="2.333"/>
</g>
<g>
	<circle fill="#225469" cx="62.049" cy="60.596" r="2.604"/>
</g>
<g>
	<circle fill="#225469" cx="34.564" cy="42.232" r="1.449"/>
</g>
<g>
	<circle fill="#225469" cx="40.718" cy="68.19" r="1.449"/>
</g>
<g>
	<circle fill="#225469" cx="66.077" cy="41.5" r="1.449"/>
</g>
<g>
	<path fill="#3CB9E9" d="M50.093,82.605c-0.458,0-0.861-0.332-0.936-0.798L36.2,1.099c-0.083-0.517,0.269-1.004,0.786-1.087
		c0.518-0.083,1.004,0.269,1.087,0.786L51.03,81.507c0.083,0.518-0.269,1.004-0.786,1.087
		C50.193,82.602,50.143,82.605,50.093,82.605z"/>
</g>
<g>
	<circle fill="#225469" cx="39.269" cy="13.604" r="1.449"/>
</g>
<g>
	<path fill="#4CC2F1" stroke="#3CB9E9" stroke-width="4" stroke-miterlimit="10" d="M90.822,53.137
		c-0.076-0.025-0.15-0.061-0.221-0.105L19.329,6.912c-0.456-0.298-0.588-0.908-0.292-1.365c0.295-0.455,0.903-0.587,1.363-0.289
		l71.272,46.12c0.457,0.295,0.587,0.908,0.293,1.363C91.714,53.127,91.239,53.279,90.822,53.137z"/>
</g>
<g>
	<circle fill="#225469" cx="42.915" cy="35.767" r="2.333"/>
</g>
<g>
	<circle fill="#225469" cx="56.843" cy="30.069" r="3"/>
</g>
<g>
	<circle fill="#225469" cx="22.034" cy="43.681" r="3"/>
</g>
</svg>
