<?xml version="1.0" encoding="utf-8"?>
<!-- Generator: Adobe Illustrator 15.1.0, SVG Export Plug-In . SVG Version: 6.00 Build 0)  -->
<!DOCTYPE svg PUBLIC "-//W3C//DTD SVG 1.1//EN" "http://www.w3.org/Graphics/SVG/1.1/DTD/svg11.dtd">
<svg version="1.1" id="Ebene_1" xmlns="http://www.w3.org/2000/svg" xmlns:xlink="http://www.w3.org/1999/xlink" x="0px" y="0px"
	 width="100px" height="100px" viewBox="0 0 100 100" enable-background="new 0 0 100 100" xml:space="preserve">
<rect x="24.372" y="8.028" transform="matrix(0.9925 -0.1219 0.1219 0.9925 -5.1641 7.3873)" fill="#FFFFFF" stroke="#3CB9E9" stroke-width="6" stroke-miterlimit="10" width="66.867" height="75.761"/>
<g>
	<path fill="#FFFFFF" stroke="#225469" stroke-width="1.3548" stroke-linecap="round" stroke-miterlimit="10" d="M60.95,7.523
		c0.017,0.131,0.195,0.53,0.067,0.546c-2.938,0.373-3.482,0.428-7.349,0.902c-3.745,0.46-5.235,0.649-7.304,0.898
		c-0.157,0.018-0.099-0.328-0.125-0.54l0,0l0,0c-0.333-2.715,2.689-5.32,6.751-5.818C57.054,3.013,60.617,4.809,60.95,7.523z"/>
	<path fill="#FFFFFF" stroke="#225469" stroke-width="1.636" stroke-linecap="round" stroke-miterlimit="10" d="M60.765,6.774
		c5.032,0.178,8.592,1.398,8.869,3.668c0.021,0.156,0.353,0.621,0.081,0.655c-6.225,0.779-7.373,0.906-15.561,1.91
		c-7.927,0.974-11.083,1.369-15.459,1.898c-0.334,0.041-0.174-0.385-0.205-0.64l0,0l0,0c-0.279-2.267,2.9-4.314,7.751-5.707"/>
</g>
<line fill="none" stroke="#3CB9E9" stroke-width="2.043" stroke-linecap="round" stroke-miterlimit="10" x1="27.013" y1="27.756" x2="83.545" y2="20.815"/>
<radialGradient id="SVGID_1_" cx="16.0664" cy="95.0586" r="17.5305" gradientTransform="matrix(1.2172 0 0 0.2434 8.2041 71.917)" gradientUnits="userSpaceOnUse">
	<stop  offset="0" style="stop-color:#215469"/>
	<stop  offset="0.1485" style="stop-color:#4E6E82;stop-opacity:0.8515"/>
	<stop  offset="0.374" style="stop-color:#8B9AA9;stop-opacity:0.626"/>
	<stop  offset="0.5801" style="stop-color:#BCC2CC;stop-opacity:0.4199"/>
	<stop  offset="0.7596" style="stop-color:#E0E2E8;stop-opacity:0.2404"/>
	<stop  offset="0.9057" style="stop-color:#F7F8F9;stop-opacity:0.0943"/>
	<stop  offset="1" style="stop-color:#FFFFFF;stop-opacity:0"/>
</radialGradient>
<path fill="url(#SVGID_1_)" d="M57.332,95.059c0,2.729-19.35,4.941-29.571,4.941C11.43,100-1.81,97.787-1.81,95.059
	c0-2.728,13.24-4.94,29.571-4.94S57.332,92.331,57.332,95.059z"/>
<line fill="none" stroke="#3CB9E9" stroke-width="2.043" stroke-linecap="round" stroke-miterlimit="10" x1="28.249" y1="37.825" x2="84.781" y2="30.884"/>
<line fill="none" stroke="#3CB9E9" stroke-width="2.043" stroke-linecap="round" stroke-miterlimit="10" x1="29.459" y1="47.683" x2="85.991" y2="40.742"/>
<line fill="none" stroke="#3CB9E9" stroke-width="2.043" stroke-linecap="round" stroke-miterlimit="10" x1="30.857" y1="59.069" x2="87.39" y2="52.128"/>
<line fill="none" stroke="#3CB9E9" stroke-width="2.043" stroke-linecap="round" stroke-miterlimit="10" x1="32.13" y1="69.437" x2="88.662" y2="62.496"/>
<line fill="none" stroke="#3CB9E9" stroke-width="2.043" stroke-linecap="round" stroke-miterlimit="10" x1="33.424" y1="79.975" x2="89.956" y2="73.033"/>
<g>
	<path fill="#225469" stroke="#225469" stroke-width="2.043" stroke-linecap="round" stroke-miterlimit="10" d="M92.674,20.854
		c4.547,4.547,6.605,9.861,2.059,14.408L80.081,49.914c-4.548,4.547-9.86,2.489-14.408-2.059l0,0
		c-4.548-4.547-6.606-9.861-2.059-14.408l14.651-14.651C82.813,14.249,88.126,16.307,92.674,20.854L92.674,20.854z"/>
	<path fill="none" stroke="#3CB9E9" stroke-width="2.043" stroke-linecap="round" stroke-miterlimit="10" d="M65.673,47.855"/>
	<path fill="#FFFFFF" stroke="#3CB9E9" stroke-width="2" stroke-miterlimit="10" d="M71.296,25.765l6.97-6.97
		c4.547-4.547,9.86-2.489,14.408,2.059l0,0c4.547,4.548,6.605,9.861,2.059,14.409l-6.97,6.97"/>
</g>
</svg>
