<?xml version="1.0" encoding="utf-8"?>
<!-- Generator: Adobe Illustrator 15.1.0, SVG Export Plug-In . SVG Version: 6.00 Build 0)  -->
<!DOCTYPE svg PUBLIC "-//W3C//DTD SVG 1.1//EN" "http://www.w3.org/Graphics/SVG/1.1/DTD/svg11.dtd">
<svg version="1.1" id="Ebene_1" xmlns="http://www.w3.org/2000/svg" xmlns:xlink="http://www.w3.org/1999/xlink" x="0px" y="0px"
	 width="100px" height="100px" viewBox="0 0 100 100" enable-background="new 0 0 100 100" xml:space="preserve">
<circle fill="#FFFFFF" stroke="#3DB9E9" stroke-width="2.4982" stroke-miterlimit="10" cx="54.51" cy="8.031" r="6.036"/>
<text transform="matrix(1.5059 0 0 1 50.7285 11.2681)" fill="#215469" font-family="'ArialMT'" font-size="8.9221">$</text>
<circle fill="#FFFFFF" stroke="#3DB9E9" stroke-width="2.8389" stroke-miterlimit="10" cx="45.625" cy="19.676" r="9.27"/>
<text transform="matrix(1.2309 0 0 1 38.9492 25.54)" fill="#215469" font-family="'ArialMT'" font-size="16.0598">€</text>
<radialGradient id="SVGID_1_" cx="30.5024" cy="95.7148" r="15.2033" gradientTransform="matrix(1.2172 0 0 0.2434 8.305 72.4135)" gradientUnits="userSpaceOnUse">
	<stop  offset="0" style="stop-color:#215469"/>
	<stop  offset="0.1485" style="stop-color:#4E6E82;stop-opacity:0.8515"/>
	<stop  offset="0.374" style="stop-color:#8B9AA9;stop-opacity:0.626"/>
	<stop  offset="0.5801" style="stop-color:#BCC2CC;stop-opacity:0.4199"/>
	<stop  offset="0.7596" style="stop-color:#E0E2E8;stop-opacity:0.2404"/>
	<stop  offset="0.9057" style="stop-color:#F7F8F9;stop-opacity:0.0943"/>
	<stop  offset="1" style="stop-color:#FFFFFF;stop-opacity:0"/>
</radialGradient>
<path fill="url(#SVGID_1_)" d="M71.085,95.715c0,2.366-16.781,4.285-25.646,4.285c-14.164,0-25.646-1.919-25.646-4.285
	s11.482-4.284,25.646-4.284C59.603,91.431,71.085,93.349,71.085,95.715z"/>
<path fill="#FFFFFF" stroke="#3DB9E9" stroke-width="6" stroke-miterlimit="10" d="M79.966,70.32
	c0.735,1.731,0.072,3.67-1.479,4.328L47,88.02c-1.553,0.659-3.407-0.211-4.142-1.942L24.865,43.705
	c-0.735-1.732-0.074-3.67,1.479-4.329l31.487-13.371c1.553-0.659,3.406,0.21,4.143,1.942L79.966,70.32z"/>
<path fill="#FFFFFF" stroke="#3DB9E9" stroke-width="6" stroke-miterlimit="10" d="M70.367,49.903c0.501,1.146,0,0,1.848,5.009
	c0.66,1.786-9.18,4.586-10.857,5.316c-2.683,1.17-5.937-0.359-7.27-3.415c-1.332-3.056-0.238-6.483,2.443-7.652
	c1.437-0.626,10.779-5.327,11.505-3.887C70.49,50.144,69.82,48.647,70.367,49.903z"/>
<circle fill="#215469" cx="59.445" cy="54.504" r="2.176"/>
</svg>
