<?xml version="1.0" encoding="utf-8"?>
<!-- Generator: Adobe Illustrator 15.1.0, SVG Export Plug-In . SVG Version: 6.00 Build 0)  -->
<!DOCTYPE svg PUBLIC "-//W3C//DTD SVG 1.1//EN" "http://www.w3.org/Graphics/SVG/1.1/DTD/svg11.dtd">
<svg version="1.1" id="Ebene_1" xmlns="http://www.w3.org/2000/svg" xmlns:xlink="http://www.w3.org/1999/xlink" x="0px" y="0px"
	 width="100px" height="100px" viewBox="0 0 100 100" enable-background="new 0 0 100 100" xml:space="preserve">
<path fill="#FFFFFF" stroke="#3CB9E9" stroke-width="6" stroke-miterlimit="10" d="M57.07,25.992
	c3.937-5.236,10.201-8.624,17.256-8.624c0.888,0,1.76,0.06,2.618,0.163C74.182,9.772,66.774,4.216,58.067,4.216
	c-11.066,0-20.036,8.969-20.036,20.035c0,0.521,0.026,1.037,0.065,1.548c2.887-0.999,5.982-1.548,9.208-1.548
	C50.737,24.251,54.027,24.867,57.07,25.992z"/>
<path fill="#FFFFFF" stroke="#3CB9E9" stroke-width="6" stroke-miterlimit="10" d="M53.285,43.708
	c-8.271-2.027-14.521-9.186-15.189-17.91c-11.04,3.815-18.972,14.294-18.972,26.632c0,15.563,12.616,28.18,28.179,28.18
	c12.75,0,23.517-8.47,26.995-20.089C64.032,60.508,55.452,53.323,53.285,43.708z"/>
<path fill="#FFFFFF" stroke="#3CB9E9" stroke-width="6" stroke-miterlimit="10" d="M53.285,43.708
	c-0.348-1.533-0.535-3.127-0.535-4.765c0-4.859,1.607-9.344,4.32-12.952c-3.043-1.125-6.333-1.741-9.767-1.741
	c-3.226,0-6.321,0.549-9.208,1.548C38.764,34.522,45.014,41.682,53.285,43.708z"/>
<path fill="#FFFFFF" stroke="#3CB9E9" stroke-width="6" stroke-miterlimit="10" d="M76.944,17.531
	c0.747,2.102,1.157,4.363,1.157,6.72c0,5.69-2.374,10.821-6.182,14.467c2.267,4.059,3.563,8.734,3.563,13.713
	c0,2.813-0.417,5.526-1.184,8.091c0.009,0,0.018,0,0.027,0c11.917,0,21.578-9.659,21.578-21.578
	C95.904,27.916,87.627,18.824,76.944,17.531z"/>
<path fill="#FFFFFF" stroke="#3CB9E9" stroke-width="6" stroke-miterlimit="10" d="M57.07,25.992
	c6.337,2.341,11.596,6.898,14.85,12.726c3.808-3.646,6.182-8.777,6.182-14.467c0-2.356-0.41-4.618-1.157-6.72
	c-0.858-0.104-1.73-0.163-2.618-0.163C67.271,17.368,61.007,20.756,57.07,25.992z"/>
<path fill="#FFFFFF" stroke="#3CB9E9" stroke-width="6" stroke-miterlimit="10" d="M71.92,38.718
	c-3.599,3.447-8.477,5.57-13.853,5.57c-1.649,0-3.25-0.203-4.782-0.579c2.167,9.615,10.747,16.799,21.014,16.813
	c0.767-2.564,1.184-5.278,1.184-8.091C75.482,47.452,74.187,42.777,71.92,38.718z"/>
<path fill="#225469" stroke="#3CB9E9" stroke-width="6" stroke-miterlimit="10" d="M57.07,25.992
	c-2.713,3.608-4.32,8.093-4.32,12.952c0,1.638,0.188,3.232,0.535,4.765c1.532,0.376,3.133,0.579,4.782,0.579
	c5.376,0,10.254-2.123,13.853-5.57C68.666,32.89,63.407,28.333,57.07,25.992z"/>
<radialGradient id="SVGID_1_" cx="31.5527" cy="92.2891" r="27.3591" gradientTransform="matrix(1.2172 0 0 0.2434 8.305 69.8217)" gradientUnits="userSpaceOnUse">
	<stop  offset="0" style="stop-color:#215469"/>
	<stop  offset="0.1485" style="stop-color:#4E6E82;stop-opacity:0.8515"/>
	<stop  offset="0.374" style="stop-color:#8B9AA9;stop-opacity:0.626"/>
	<stop  offset="0.5801" style="stop-color:#BCC2CC;stop-opacity:0.4199"/>
	<stop  offset="0.7596" style="stop-color:#E0E2E8;stop-opacity:0.2404"/>
	<stop  offset="0.9057" style="stop-color:#F7F8F9;stop-opacity:0.0943"/>
	<stop  offset="1" style="stop-color:#FFFFFF;stop-opacity:0"/>
</radialGradient>
<path fill="url(#SVGID_1_)" d="M92.863,92.288c0,4.259-30.199,7.712-46.151,7.712c-25.487,0-46.151-3.453-46.151-7.712
	s20.664-7.71,46.151-7.71C72.201,84.578,92.863,88.029,92.863,92.288z"/>
</svg>
