<?xml version="1.0" encoding="utf-8"?>
<!-- Generator: Adobe Illustrator 15.1.0, SVG Export Plug-In . SVG Version: 6.00 Build 0)  -->
<!DOCTYPE svg PUBLIC "-//W3C//DTD SVG 1.1//EN" "http://www.w3.org/Graphics/SVG/1.1/DTD/svg11.dtd">
<svg version="1.1" id="Ebene_1" xmlns="http://www.w3.org/2000/svg" xmlns:xlink="http://www.w3.org/1999/xlink" x="0px" y="0px"
	 width="100px" height="100px" viewBox="0 0 100 100" enable-background="new 0 0 100 100" xml:space="preserve">
<radialGradient id="SVGID_1_" cx="34.6104" cy="93.9775" r="20.7018" gradientTransform="matrix(1.2172 0 0 0.2434 8.2041 71.0991)" gradientUnits="userSpaceOnUse">
	<stop  offset="0" style="stop-color:#215469"/>
	<stop  offset="0.1485" style="stop-color:#4E6E82;stop-opacity:0.8515"/>
	<stop  offset="0.374" style="stop-color:#8B9AA9;stop-opacity:0.626"/>
	<stop  offset="0.5801" style="stop-color:#BCC2CC;stop-opacity:0.4199"/>
	<stop  offset="0.7596" style="stop-color:#E0E2E8;stop-opacity:0.2404"/>
	<stop  offset="0.9057" style="stop-color:#F7F8F9;stop-opacity:0.0943"/>
	<stop  offset="1" style="stop-color:#FFFFFF;stop-opacity:0"/>
</radialGradient>
<path fill="url(#SVGID_1_)" d="M85.253,93.978c0,3.223-22.851,5.835-34.92,5.835c-19.287,0-34.922-2.612-34.922-5.835
	c0-3.222,15.635-5.835,34.922-5.835C69.619,88.143,85.253,90.756,85.253,93.978z"/>
<circle fill="#FFFFFF" stroke="#3CB9E9" stroke-width="6" stroke-miterlimit="10" cx="50" cy="43.75" r="35.417"/>
<circle fill="#FFFFFF" stroke="#225469" stroke-width="2.0342" stroke-miterlimit="10" cx="49.999" cy="43.75" r="30.175"/>
<circle fill="#3E5469" cx="50" cy="43.75" r="1.833"/>
<line fill="none" stroke="#3CB9E9" stroke-width="3" stroke-miterlimit="10" x1="52.887" y1="43.805" x2="72.444" y2="43.75"/>
<line fill="none" stroke="#3CB9E9" stroke-width="6" stroke-miterlimit="10" x1="52.232" y1="26.007" x2="50.385" y2="41.061"/>
<path fill="#225469" d="M51.501,19c0,0.369-0.672,0.667-1.5,0.667l0,0c-0.829,0-1.5-0.298-1.5-0.667v-4.25
	c0-0.368,0.672-0.667,1.5-0.667l0,0c0.828,0,1.5,0.298,1.5,0.667V19z"/>
<path fill="#225469" d="M51.5,72.791c0,0.369-0.672,0.668-1.5,0.668l0,0c-0.829,0-1.5-0.299-1.5-0.668v-4.25
	c0-0.367,0.672-0.666,1.5-0.666l0,0c0.828,0,1.5,0.299,1.5,0.666V72.791z"/>
<path fill="#225469" d="M78.792,42.25c0.369,0,0.667,0.672,0.667,1.5l0,0c0,0.828-0.298,1.5-0.667,1.5h-4.25
	c-0.368,0-0.666-0.672-0.666-1.5l0,0c0-0.828,0.298-1.5,0.666-1.5H78.792z"/>
<path fill="#225469" d="M25.507,42.305c0.369,0,0.667,0.672,0.667,1.5l0,0c0,0.828-0.298,1.5-0.667,1.5h-4.25
	c-0.368,0-0.666-0.672-0.666-1.5l0,0c0-0.828,0.298-1.5,0.666-1.5H25.507z"/>
</svg>
