<?xml version="1.0" encoding="utf-8"?>
<!-- Generator: Adobe Illustrator 15.1.0, SVG Export Plug-In . SVG Version: 6.00 Build 0)  -->
<!DOCTYPE svg PUBLIC "-//W3C//DTD SVG 1.1//EN" "http://www.w3.org/Graphics/SVG/1.1/DTD/svg11.dtd">
<svg version="1.1" id="Layer_1" xmlns="http://www.w3.org/2000/svg" xmlns:xlink="http://www.w3.org/1999/xlink" x="0px" y="0px"
	 width="223.506px" height="170.868px" viewBox="0 0 223.506 170.868" enable-background="new 0 0 223.506 170.868"
	 xml:space="preserve">
<g>
	<path fill="#FFFFFF" d="M139.049,165c-14.476,0-28.33-3.869-40.359-11.026c-9.332,6.281-20.487,9.83-32.211,9.83
		c-31.816,0-57.699-25.885-57.699-57.695c0-31.818,25.883-57.702,57.699-57.702c0.959,0,1.916,0.021,2.867,0.069
		c13.431-24.982,39.817-41.672,69.703-41.672c43.613,0,79.096,35.484,79.096,79.099C218.145,129.517,182.662,165,139.049,165
		L139.049,165z"/>
	<path fill="#40B9E8" d="M139.049,31.818c-27.683,0-50.49,20.801-53.685,47.62c-5.336-3.785-11.847-6.015-18.885-6.015
		c-18.05,0-32.682,14.632-32.682,32.686c0,18.049,14.632,32.68,32.682,32.68c13.4,0,24.909-8.065,29.956-19.604
		c9.895,12.655,25.299,20.8,42.614,20.8c29.867,0,54.082-24.213,54.082-54.081C193.131,56.032,168.916,31.818,139.049,31.818z"/>
</g>
</svg>
