<?xml version="1.0" encoding="utf-8"?>
<!-- Generator: Adobe Illustrator 15.1.0, SVG Export Plug-In . SVG Version: 6.00 Build 0)  -->
<!DOCTYPE svg PUBLIC "-//W3C//DTD SVG 1.1//EN" "http://www.w3.org/Graphics/SVG/1.1/DTD/svg11.dtd">
<svg version="1.1" id="Ebene_1" xmlns="http://www.w3.org/2000/svg" xmlns:xlink="http://www.w3.org/1999/xlink" x="0px" y="0px"
	 width="100px" height="100px" viewBox="0 0 100 100" enable-background="new 0 0 100 100" xml:space="preserve">
<ellipse transform="matrix(0.9945 -0.1045 0.1045 0.9945 -3.4927 9.9446)" fill="#225469" cx="93.117" cy="38.29" rx="3.424" ry="7.228"/>
<path fill="#FFFFFF" stroke="#3CB9E9" stroke-width="6" stroke-miterlimit="10" d="M31.813,79.886
	c0.107,3.042-2.273,5.595-5.314,5.699l0,0c-3.04,0.104-5.592-2.272-5.698-5.313l-0.769-22.025c-0.106-3.042,2.273-5.592,5.313-5.699
	l0,0c3.041-0.104,5.593,2.274,5.699,5.314L31.813,79.886z"/>
<path fill="#FFFFFF" stroke="#3CB9E9" stroke-width="6" stroke-miterlimit="10" d="M91.082,42.273
	c0.479,4.562,3.51,33.53-2.815,34.195L56.463,64.092l-30.295-6.646l-7.899,0.83c-6.325,0.664-11.84-2.493-12.319-7.055l-0.58-5.519
	c-0.479-4.562,4.259-8.798,10.583-9.462l7.75-0.814l28.387-12.958L80.638,3.887c6.325-0.665,9.385,28.307,9.864,32.868
	L91.082,42.273z"/>
<path fill="#FFFFFF" d="M28.945,76.418c0.127,3.871-1.057,7.068-2.648,7.143l0,0c-1.591,0.067-2.983-3.012-3.112-6.885
	l-0.572-17.185c-0.128-3.875,1.057-7.071,2.648-7.142l0,0c1.59-0.069,2.985,3.011,3.112,6.885L28.945,76.418z"/>
<radialGradient id="SVGID_1_" cx="14.7124" cy="93.5879" r="21.9258" gradientTransform="matrix(1.2172 0 0 0.2434 8.2041 70.8043)" gradientUnits="userSpaceOnUse">
	<stop  offset="0" style="stop-color:#215469"/>
	<stop  offset="0.1485" style="stop-color:#4E6E82;stop-opacity:0.8515"/>
	<stop  offset="0.374" style="stop-color:#8B9AA9;stop-opacity:0.626"/>
	<stop  offset="0.5801" style="stop-color:#BCC2CC;stop-opacity:0.4199"/>
	<stop  offset="0.7596" style="stop-color:#E0E2E8;stop-opacity:0.2404"/>
	<stop  offset="0.9057" style="stop-color:#F7F8F9;stop-opacity:0.0943"/>
	<stop  offset="1" style="stop-color:#FFFFFF;stop-opacity:0"/>
</radialGradient>
<path fill="url(#SVGID_1_)" d="M63.098,93.588c0,3.413-24.203,6.18-36.986,6.18c-20.426,0-36.985-2.767-36.985-6.18
	s16.56-6.18,36.985-6.18S63.098,90.175,63.098,93.588z"/>
</svg>
