<?xml version="1.0" encoding="utf-8"?>
<!-- Generator: Adobe Illustrator 15.1.0, SVG Export Plug-In . SVG Version: 6.00 Build 0)  -->
<!DOCTYPE svg PUBLIC "-//W3C//DTD SVG 1.1//EN" "http://www.w3.org/Graphics/SVG/1.1/DTD/svg11.dtd">
<svg version="1.1" id="Ebene_1" xmlns="http://www.w3.org/2000/svg" xmlns:xlink="http://www.w3.org/1999/xlink" x="0px" y="0px"
	 width="90px" height="110.201px" viewBox="-42.5 5.5 90 110.201" enable-background="new -42.5 5.5 90 110.201"
	 xml:space="preserve">
<g>
	<title>Layer 1</title>
	<path id="imagebot_2" fill="#242424" d="M3.118,18.656c12.105,0,19.901,10.625,20.064,23.802h-40.128
		C-16.784,29.282-8.987,18.656,3.118,18.656z M3.118,5.5c-18.861,0-34.145,16.7-34.145,37.298l0.008,0.517
		c-6.415,1.965-10.983,7.102-10.983,13.129v32.809c0,14.604,20.202,26.448,45.12,26.448s45.12-11.844,45.12-26.448V56.444
		c0-6.027-4.569-11.164-10.983-13.129l0.008-0.517C37.262,22.2,21.979,5.5,3.118,5.5z M-9.687,73.484
		c0-5.897,5.731-10.68,12.804-10.68s12.804,4.782,12.804,10.68c0,3.775-2.349,7.095-5.894,8.993v9.83h-13.82v-9.83
		C-7.337,80.579-9.687,77.26-9.687,73.484z"/>
</g>
</svg>
