<?xml version="1.0" encoding="utf-8"?>
<!-- Generator: Adobe Illustrator 15.1.0, SVG Export Plug-In . SVG Version: 6.00 Build 0)  -->
<!DOCTYPE svg PUBLIC "-//W3C//DTD SVG 1.1//EN" "http://www.w3.org/Graphics/SVG/1.1/DTD/svg11.dtd">
<svg version="1.1" id="Ebene_1" xmlns="http://www.w3.org/2000/svg" xmlns:xlink="http://www.w3.org/1999/xlink" x="0px" y="0px"
	 width="100px" height="100px" viewBox="0 0 100 100" enable-background="new 0 0 100 100" xml:space="preserve">
<g>
	<path fill="#FFFFFF" stroke="#225469" stroke-width="5.9408" stroke-miterlimit="10" d="M23.849,16.542
		c1.801-1.8,5.04-1.48,7.236,0.715l0,0c2.194,2.195,2.514,5.433,0.714,7.234L13.248,43.042c-1.8,1.801-5.04,1.479-7.234-0.714l0,0
		c-2.195-2.196-2.515-5.435-0.715-7.236L23.849,16.542z"/>
	<path fill="#FFFFFF" stroke="#3FB9E9" stroke-width="5.9408" stroke-miterlimit="10" d="M53.436,16.399
		c5.305-5.304,13.907-5.304,19.211,0l9.847,9.846c5.308,5.305,5.305,13.906,0,19.21L62.231,65.719
		c-5.305,5.304-13.906,5.304-19.21,0l-9.847-9.847c-5.304-5.305-5.305-13.905,0-19.21L53.436,16.399z"/>
	<path fill="#FFFFFF" stroke="#3FB9E9" stroke-width="5.9408" stroke-miterlimit="10" d="M94.391,27.653
		c2.194,2.195,2.194,5.754,0,7.949l0,0c-2.194,2.194-5.754,2.195-7.95,0L63.825,12.987c-2.193-2.194-2.192-5.753,0-7.949l0,0
		c2.196-2.194,5.756-2.194,7.952,0L94.391,27.653z"/>
	<path fill="#FFFFFF" stroke="#3FB9E9" stroke-width="5.9408" stroke-linejoin="round" stroke-miterlimit="10" d="M63.818,19.269"/>
	<path fill="#FFFFFF" stroke="#3FB9E9" stroke-width="5.9408" stroke-linejoin="round" stroke-miterlimit="10" d="M48.14,29.068
		h-1.815h-0.885c-4.421,0-8.004-3.584-8.004-8.004l0,0c0-3.224,1.907-6.003,4.653-7.271c1.02-0.471,2.154-0.733,3.351-0.733h14.863
		c1.658,0,3.199,0.504,4.477,1.367"/>
	<g>
		<path fill="#FFFFFF" stroke="#215469" stroke-width="5.9408" stroke-linejoin="round" stroke-miterlimit="10" d="M41.83,82.242
			L16.665,57.08c-4.73-4.732-5.053-12.079-0.721-16.411l13.237-13.236c4.332-4.333,11.679-4.009,16.41,0.721l25.161,25.163"/>
		<g>
			<path fill="#FFFFFF" stroke="#215469" stroke-width="5.9408" stroke-linejoin="round" stroke-miterlimit="10" d="M48.383,74.349
				l3.765,3.765c2.192,2.189,2.348,5.587,0.348,7.584l0,0c-1.997,2-5.394,1.845-7.583-0.346l-3.766-3.767"/>
			<path fill="#FFFFFF" stroke="#215469" stroke-width="5.9408" stroke-linejoin="round" stroke-miterlimit="10" d="M55.62,67.111
				l3.768,3.768c2.188,2.188,2.344,5.584,0.346,7.583l0,0c-1.998,1.999-5.394,1.841-7.586-0.349l-3.765-3.765"/>
			<path fill="#FFFFFF" stroke="#215469" stroke-width="5.9408" stroke-linejoin="round" stroke-miterlimit="10" d="M62.857,59.876
				l3.765,3.765c2.191,2.191,2.349,5.586,0.348,7.584l0,0c-1.998,1.998-5.394,1.843-7.582-0.346l-3.768-3.768"/>
			<path fill="#FFFFFF" stroke="#215469" stroke-width="5.9408" stroke-linejoin="round" stroke-miterlimit="10" d="M70.096,52.637
				l3.765,3.765c2.191,2.189,2.347,5.591,0.349,7.585l0,0c-2.002,2.001-5.396,1.846-7.587-0.346l-3.765-3.765"/>
		</g>
		
			<line fill="none" stroke="#215469" stroke-width="5.9408" stroke-linejoin="round" stroke-miterlimit="10" x1="48.383" y1="74.349" x2="41.097" y2="67.063"/>
		
			<line fill="none" stroke="#215469" stroke-width="5.9408" stroke-linejoin="round" stroke-miterlimit="10" x1="55.62" y1="67.11" x2="48.335" y2="59.825"/>
		
			<line fill="none" stroke="#215469" stroke-width="5.9408" stroke-linejoin="round" stroke-miterlimit="10" x1="62.856" y1="59.874" x2="55.571" y2="52.588"/>
	</g>
	
		<path fill="#FFFFFF" stroke="#3FB9E9" stroke-width="5.9408" stroke-linecap="round" stroke-linejoin="round" stroke-miterlimit="10" d="
		M47.113,30.017l-0.95,5.383c-0.677,3.839-3.958,6.471-7.33,5.876l0,0c-3.373-0.594-5.554-4.189-4.878-8.028l2.276-12.913
		c0.679-3.841,5.836-7.87,9.208-7.274h12.735"/>
	<g>
		<path fill="#FFFFFF" stroke="#3DB9E9" stroke-width="5.9408" stroke-linejoin="round" stroke-miterlimit="10" d="M23.648,51.956
			c2.066,2.063,2.066,5.413,0,7.478l-3.55,3.55c-2.065,2.066-5.415,2.066-7.479,0l0,0c-2.066-2.064-2.066-5.413,0-7.479l3.55-3.549
			C18.235,49.89,21.583,49.89,23.648,51.956L23.648,51.956z"/>
		<path fill="#FFFFFF" stroke="#3DB9E9" stroke-width="5.9408" stroke-linejoin="round" stroke-miterlimit="10" d="M31.128,59.434
			c2.066,2.066,2.065,5.414,0,7.48l-3.551,3.55c-2.065,2.066-5.413,2.067-7.479,0l0,0c-2.067-2.067-2.064-5.414,0-7.48l3.55-3.55
			C25.714,57.369,29.063,57.368,31.128,59.434L31.128,59.434z"/>
		<path fill="#FFFFFF" stroke="#3DB9E9" stroke-width="5.9408" stroke-linejoin="round" stroke-miterlimit="10" d="M38.608,66.914
			c2.064,2.065,2.063,5.412-0.001,7.479l-3.551,3.55c-2.065,2.064-5.413,2.067-7.479,0l0,0c-2.065-2.064-2.065-5.412,0-7.479
			l3.551-3.55C33.193,64.848,36.542,64.848,38.608,66.914L38.608,66.914z"/>
		<path fill="#FFFFFF" stroke="#3DB9E9" stroke-width="5.9408" stroke-linejoin="round" stroke-miterlimit="10" d="M46.087,74.393
			c2.064,2.065,2.064,5.416,0,7.48l-3.551,3.552c-2.065,2.064-5.415,2.064-7.479,0l0,0c-2.066-2.069-2.066-5.418-0.001-7.482
			l3.551-3.55C40.672,72.326,44.022,72.326,46.087,74.393L46.087,74.393z"/>
	</g>
</g>
<radialGradient id="SVGID_1_" cx="29.2886" cy="94.2617" r="20.3617" gradientTransform="matrix(1.2172 0 0 0.2434 8.2041 71.3141)" gradientUnits="userSpaceOnUse">
	<stop  offset="0" style="stop-color:#215469"/>
	<stop  offset="0.1485" style="stop-color:#4E6E82;stop-opacity:0.8515"/>
	<stop  offset="0.374" style="stop-color:#8B9AA9;stop-opacity:0.626"/>
	<stop  offset="0.5801" style="stop-color:#BCC2CC;stop-opacity:0.4199"/>
	<stop  offset="0.7596" style="stop-color:#E0E2E8;stop-opacity:0.2404"/>
	<stop  offset="0.9057" style="stop-color:#F7F8F9;stop-opacity:0.0943"/>
	<stop  offset="1" style="stop-color:#FFFFFF;stop-opacity:0"/>
</radialGradient>
<path fill="url(#SVGID_1_)" d="M78.202,94.262c0,3.169-22.476,5.738-34.347,5.738c-18.969,0-34.348-2.569-34.348-5.738
	c0-3.17,15.378-5.739,34.348-5.739S78.202,91.092,78.202,94.262z"/>
</svg>
