<?xml version="1.0" encoding="utf-8"?>
<!-- Generator: Adobe Illustrator 15.1.0, SVG Export Plug-In . SVG Version: 6.00 Build 0)  -->
<!DOCTYPE svg PUBLIC "-//W3C//DTD SVG 1.1//EN" "http://www.w3.org/Graphics/SVG/1.1/DTD/svg11.dtd">
<svg version="1.1" id="Ebene_1" xmlns="http://www.w3.org/2000/svg" xmlns:xlink="http://www.w3.org/1999/xlink" x="0px" y="0px"
	 width="100px" height="100px" viewBox="0 0 100 100" enable-background="new 0 0 100 100" xml:space="preserve">
<line fill="none" stroke="#225469" stroke-width="6" stroke-miterlimit="10" x1="34.514" y1="85.87" x2="67.562" y2="85.87"/>
<line fill="none" stroke="#225469" stroke-width="6" stroke-miterlimit="10" x1="51.037" y1="85.87" x2="51.037" y2="72.343"/>
<path fill="none" stroke="#225469" stroke-width="6" stroke-miterlimit="10" d="M73.384,45.113
	c0.023,18.126,1.626,26.551-22.347,26.551c-23.972,0-22.867-8.425-22.859-26.551"/>
<radialGradient id="SVGID_1_" cx="35.1895" cy="93.9453" r="21.4805" gradientTransform="matrix(1.2172 0 0 0.2434 8.2041 71.0747)" gradientUnits="userSpaceOnUse">
	<stop  offset="0" style="stop-color:#215469"/>
	<stop  offset="0.1485" style="stop-color:#4E6E82;stop-opacity:0.8515"/>
	<stop  offset="0.374" style="stop-color:#8B9AA9;stop-opacity:0.626"/>
	<stop  offset="0.5801" style="stop-color:#BCC2CC;stop-opacity:0.4199"/>
	<stop  offset="0.7596" style="stop-color:#E0E2E8;stop-opacity:0.2404"/>
	<stop  offset="0.9057" style="stop-color:#F7F8F9;stop-opacity:0.0943"/>
	<stop  offset="1" style="stop-color:#FFFFFF;stop-opacity:0"/>
</radialGradient>
<path fill="url(#SVGID_1_)" d="M87.271,93.945c0,3.344-23.711,6.055-36.234,6.055c-20.011,0-36.234-2.711-36.234-6.055
	s16.223-6.055,36.234-6.055C71.049,87.891,87.271,90.602,87.271,93.945z"/>
<path fill="#3CB9E9" stroke="#3CB9E9" stroke-width="5.2936" stroke-miterlimit="10" d="M51.037,8.238
	c7.952,0,14.401,0.138,14.401,4.366v46.203c0,4.228-6.449,4.433-14.401,4.433l0,0c-7.954,0-14.4-0.205-14.4-4.433V12.604
	C36.637,8.376,43.083,8.238,51.037,8.238L51.037,8.238z"/>
<line fill="none" stroke="#FFFFFF" stroke-width="3" stroke-miterlimit="10" x1="34.024" y1="14.113" x2="48.236" y2="14.113"/>
<line fill="none" stroke="#FFFFFF" stroke-width="3" stroke-miterlimit="10" x1="34.024" y1="21.113" x2="48.236" y2="21.113"/>
<line fill="none" stroke="#FFFFFF" stroke-width="3" stroke-miterlimit="10" x1="34.024" y1="28.113" x2="48.236" y2="28.113"/>
<line fill="none" stroke="#FFFFFF" stroke-width="3" stroke-miterlimit="10" x1="34.024" y1="35.113" x2="48.236" y2="35.113"/>
<line fill="none" stroke="#FFFFFF" stroke-width="3" stroke-miterlimit="10" x1="34.024" y1="42.113" x2="48.236" y2="42.113"/>
<line fill="none" stroke="#FFFFFF" stroke-width="3" stroke-miterlimit="10" x1="34.024" y1="49.113" x2="48.236" y2="49.113"/>
<line fill="none" stroke="#FFFFFF" stroke-width="3" stroke-miterlimit="10" x1="34.024" y1="56.113" x2="48.236" y2="56.113"/>
</svg>
