<?xml version="1.0" encoding="utf-8"?>
<!-- Generator: Adobe Illustrator 15.1.0, SVG Export Plug-In . SVG Version: 6.00 Build 0)  -->
<!DOCTYPE svg PUBLIC "-//W3C//DTD SVG 1.1//EN" "http://www.w3.org/Graphics/SVG/1.1/DTD/svg11.dtd">
<svg version="1.1" id="Ebene_1" xmlns="http://www.w3.org/2000/svg" xmlns:xlink="http://www.w3.org/1999/xlink" x="0px" y="0px"
	 width="100px" height="100px" viewBox="0 0 100 100" enable-background="new 0 0 100 100" xml:space="preserve">
<rect x="53.012" y="59.819" fill="#3CB9E9" width="6.321" height="20.438"/>
<rect x="64.392" y="59.819" fill="#3CB9E9" width="6.322" height="20.438"/>
<rect x="75.771" y="59.819" fill="#3CB9E9" width="6.322" height="20.438"/>
<path fill="#225469" d="M60.611,57.986c0,0.479-0.387,0.867-0.865,0.867h-7.145c-0.479,0-0.867-0.389-0.867-0.867l0,0
	c0-0.479,0.388-0.867,0.867-0.867h7.145C60.225,57.119,60.611,57.507,60.611,57.986L60.611,57.986z"/>
<path fill="#225469" d="M71.992,57.986c0,0.479-0.389,0.867-0.866,0.867h-7.145c-0.479,0-0.867-0.389-0.867-0.867l0,0
	c0-0.479,0.388-0.867,0.867-0.867h7.145C71.604,57.119,71.992,57.507,71.992,57.986L71.992,57.986z"/>
<path fill="#225469" d="M83.371,57.986c0,0.479-0.388,0.867-0.865,0.867h-7.145c-0.479,0-0.866-0.389-0.866-0.867l0,0
	c0-0.479,0.387-0.867,0.866-0.867h7.145C82.983,57.119,83.371,57.507,83.371,57.986L83.371,57.986z"/>
<rect x="87.151" y="59.819" fill="#3CB9E9" width="6.322" height="20.438"/>
<path fill="#225469" d="M94.752,57.986c0,0.479-0.388,0.867-0.866,0.867h-7.145c-0.479,0-0.867-0.389-0.867-0.867l0,0
	c0-0.479,0.389-0.867,0.867-0.867h7.145C94.364,57.119,94.752,57.507,94.752,57.986L94.752,57.986z"/>
<path fill="#225469" d="M100,84.185c0,0.508-3.146,0.921-7.021,0.921H35.032c-3.887,0-7.032-0.413-7.032-0.921l0,0
	c0-0.507,3.145-0.919,7.032-0.919h57.947C96.854,83.266,100,83.678,100,84.185L100,84.185z"/>
<rect x="48.812" y="80.218" fill="#3CB9E9" width="47.85" height="2.599"/>
<rect x="48.813" y="55.891" fill="#3CB9E9" width="47.851" height="1.623"/>
<polygon fill="#225469" points="96.519,55.108 48.635,55.041 72.738,45.861 "/>
<path fill="#FFFFFF" stroke="#3CB9E9" stroke-width="6" stroke-miterlimit="10" d="M67.111,35.424
	c0,11.021-14.127,19.957-31.555,19.957c-0.537,0-1.072-0.008-1.603-0.025c-1.806-0.057-8.703,5.882-10.242,7.092
	c-1.583,1.243,1.04-8.224-0.792-8.73C11.782,50.635,4,43.605,4,35.424c0-11.022,14.128-19.958,31.556-19.958
	S67.111,24.401,67.111,35.424z"/>
<path fill="#225469" d="M2.626,85.105c0-9.655,7.827-17.482,17.481-17.482c9.654,0,17.481,7.827,17.481,17.482"/>
</svg>
