<?xml version="1.0" encoding="utf-8"?>
<!-- Generator: Adobe Illustrator 15.1.0, SVG Export Plug-In . SVG Version: 6.00 Build 0)  -->
<!DOCTYPE svg PUBLIC "-//W3C//DTD SVG 1.1//EN" "http://www.w3.org/Graphics/SVG/1.1/DTD/svg11.dtd">
<svg version="1.1" id="Ebene_1" xmlns="http://www.w3.org/2000/svg" xmlns:xlink="http://www.w3.org/1999/xlink" x="0px" y="0px"
	 width="100px" height="100px" viewBox="0 0 100 100" enable-background="new 0 0 100 100" xml:space="preserve">
<path fill="#3CB9E9" d="M54.559,52.821v7.91c0,3.408-2.555,5.965-5.963,5.965c-3.164,0-5.963-2.557-5.963-5.965V48.075
	c0-0.121,0.122-0.121,0.122-0.244c-0.122-0.122-0.122-0.122-0.122-0.243c0-3.164,2.8-5.963,5.963-5.963
	c7.668,0,13.875-6.085,13.875-13.63c0-7.668-6.207-13.631-13.875-13.631c-4.99,0-9.371,2.677-11.684,6.693
	c-1.704,2.921-5.355,3.895-8.275,2.191c-2.8-1.704-3.773-5.233-2.069-8.154C30.949,7.547,39.225,2.436,48.596,2.436
	c14.118,0,25.68,11.44,25.68,25.559C74.275,40.042,65.878,50.144,54.559,52.821z"/>
<path fill="#225469" d="M54.559,79.475v2.191c0,3.407-2.555,5.963-5.963,5.963c-3.164,0-5.963-2.556-5.963-5.963v-2.191
	c0-3.285,2.8-5.964,5.963-5.964C52.004,73.511,54.559,76.189,54.559,79.475z"/>
<radialGradient id="SVGID_1_" cx="33.25" cy="93.6836" r="21.4804" gradientTransform="matrix(1.2172 0 0 0.2434 8.2041 70.8767)" gradientUnits="userSpaceOnUse">
	<stop  offset="0" style="stop-color:#215469"/>
	<stop  offset="0.1485" style="stop-color:#4E6E82;stop-opacity:0.8515"/>
	<stop  offset="0.374" style="stop-color:#8B9AA9;stop-opacity:0.626"/>
	<stop  offset="0.5801" style="stop-color:#BCC2CC;stop-opacity:0.4199"/>
	<stop  offset="0.7596" style="stop-color:#E0E2E8;stop-opacity:0.2404"/>
	<stop  offset="0.9057" style="stop-color:#F7F8F9;stop-opacity:0.0943"/>
	<stop  offset="1" style="stop-color:#FFFFFF;stop-opacity:0"/>
</radialGradient>
<path fill="url(#SVGID_1_)" d="M84.91,93.683c0,3.344-23.711,6.055-36.234,6.055c-20.012,0-36.234-2.711-36.234-6.055
	c0-3.343,16.223-6.054,36.234-6.054C68.688,87.629,84.91,90.34,84.91,93.683z"/>
</svg>
