<?xml version="1.0" encoding="utf-8"?>
<!-- Generator: Adobe Illustrator 15.1.0, SVG Export Plug-In . SVG Version: 6.00 Build 0)  -->
<!DOCTYPE svg PUBLIC "-//W3C//DTD SVG 1.1//EN" "http://www.w3.org/Graphics/SVG/1.1/DTD/svg11.dtd">
<svg version="1.1" id="Ebene_1" xmlns="http://www.w3.org/2000/svg" xmlns:xlink="http://www.w3.org/1999/xlink" x="0px" y="0px"
	 width="100px" height="100px" viewBox="0 0 100 100" enable-background="new 0 0 100 100" xml:space="preserve">
<path fill="none" stroke="#FFFFFF" stroke-width="6" stroke-miterlimit="10" d="M96.82,13.696c0,0.771,1.526,11.66-1.496,17.288
	c-1.548,2.88-5.153,2.669-8.81,2.561c-3.467-0.102-3.425-0.553-4.72-2.001c-1.397-1.564-0.396-9.203-2.761-9.203H20.856
	c-2.618,0-1.164,8.644-3.491,10.14c-1.752,1.126-1.751,0.876-4.155,0.997c-3.491,0.176-7.161,0.309-8.644-2.493
	c-2.945-5.565-1.33-16.385-1.33-17.122l0,0c0-4.728,9.817-8.644,14.545-8.644h64.162C86.671,5.218,96.82,8.967,96.82,13.696
	L96.82,13.696z"/>
<path fill="none" stroke="#FFFFFF" stroke-width="6" stroke-miterlimit="10" d="M86.464,74.257c0,6.057-15.472,15.983-21.528,15.983
	H34.421c-6.058,0-20.885-9.927-20.885-15.983V39.392c7.912-0.169,10.886-0.169,10.968-10.967h18.385l1.564,7.199h11.738l1.32-7.199
	h17.984c0.569,10.798,3.074,10.798,10.968,10.967V74.257z"/>
<circle fill="none" stroke="#FFFFFF" stroke-width="3" stroke-miterlimit="10" cx="50" cy="62.438" r="22.301"/>
<circle fill="none" stroke="#FFFFFF" stroke-width="3" stroke-miterlimit="10" cx="50" cy="62.438" r="9.297"/>
<circle fill="#FFFFFF" cx="50" cy="79.005" r="3.834"/>
<circle fill="#FFFFFF" cx="33.434" cy="62.438" r="3.834"/>
<circle fill="#FFFFFF" cx="61.346" cy="51.156" r="3.834"/>
<circle fill="#FFFFFF" cx="38.498" cy="51.156" r="3.834"/>
<circle fill="#FFFFFF" cx="38.498" cy="73.808" r="3.834"/>
<circle fill="#FFFFFF" cx="66.565" cy="62.438" r="3.834"/>
<circle fill="#FFFFFF" cx="61.346" cy="73.808" r="3.834"/>
<circle fill="#FFFFFF" cx="50.346" cy="46.321" r="3.834"/>
</svg>
