<?xml version="1.0" encoding="utf-8"?>
<!-- Generator: Adobe Illustrator 15.1.0, SVG Export Plug-In . SVG Version: 6.00 Build 0)  -->
<!DOCTYPE svg PUBLIC "-//W3C//DTD SVG 1.1//EN" "http://www.w3.org/Graphics/SVG/1.1/DTD/svg11.dtd">
<svg version="1.1" id="Ebene_1" xmlns="http://www.w3.org/2000/svg" xmlns:xlink="http://www.w3.org/1999/xlink" x="0px" y="0px"
	 width="100px" height="100px" viewBox="0 0 100 100" enable-background="new 0 0 100 100" xml:space="preserve">
<path fill="#FFFFFF" stroke="#3CB9E9" stroke-width="6" stroke-miterlimit="10" d="M92.875,67.988
	c0,6.572-0.214,11.901-6.786,11.901H14.267c-6.573,0-6.892-5.329-6.892-11.901l0,0c0-6.573,0.319-11.9,6.892-11.9h71.822
	C92.661,56.088,92.875,61.415,92.875,67.988L92.875,67.988z"/>
<line fill="none" stroke="#3CB9E9" stroke-width="3" stroke-miterlimit="10" x1="15" y1="56.088" x2="15" y2="66.876"/>
<line fill="none" stroke="#3CB9E9" stroke-width="3" stroke-miterlimit="10" x1="35" y1="56.088" x2="35" y2="66.876"/>
<line fill="none" stroke="#3CB9E9" stroke-width="3" stroke-miterlimit="10" x1="75" y1="56.088" x2="75" y2="66.875"/>
<line fill="none" stroke="#3CB9E9" stroke-width="3" stroke-miterlimit="10" x1="25" y1="56.088" x2="25" y2="70.301"/>
<line fill="none" stroke="#3CB9E9" stroke-width="3" stroke-miterlimit="10" x1="45" y1="56.088" x2="45" y2="70.301"/>
<line fill="none" stroke="#3CB9E9" stroke-width="3" stroke-miterlimit="10" x1="55" y1="56.088" x2="55" y2="66.876"/>
<line fill="none" stroke="#3CB9E9" stroke-width="3" stroke-miterlimit="10" x1="65" y1="56.088" x2="65" y2="70.301"/>
<line fill="none" stroke="#3CB9E9" stroke-width="3" stroke-miterlimit="10" x1="85" y1="56.088" x2="85" y2="70.301"/>
<line fill="none" stroke="#225469" stroke-width="4" stroke-miterlimit="10" x1="15" y1="49.356" x2="49.24" y2="49.356"/>
<g>
	
		<rect x="60.875" y="8.171" transform="matrix(0.8661 0.4999 -0.4999 0.8661 21.1448 -29.018)" fill="none" stroke="#3CB9E9" stroke-width="3" stroke-miterlimit="10" width="7.705" height="33.562"/>
	<polygon fill="#225469" points="50.594,49.495 50.597,39.079 59.618,44.287 	"/>
	<path fill="#225469" d="M80.364,8.209c-0.367,0.638-0.956,1.695-1.618,1.935c-0.908,0.328-1.971-0.349-2.915-0.894l-3.028-1.749
		c-0.999-0.577-2.217-1.273-2.343-2.289c-0.079-0.64,0.64-1.571,0.979-2.156l0,0c0.875-1.515,2.904-1.982,4.533-1.041L79,3.764
		C80.629,4.704,81.24,6.694,80.364,8.209L80.364,8.209z"/>
</g>
<radialGradient id="SVGID_1_" cx="34.5127" cy="91.6104" r="29.7674" gradientTransform="matrix(1.2172 0 0 0.2434 8.2041 69.3082)" gradientUnits="userSpaceOnUse">
	<stop  offset="0" style="stop-color:#215469"/>
	<stop  offset="0.1485" style="stop-color:#4E6E82;stop-opacity:0.8515"/>
	<stop  offset="0.374" style="stop-color:#8B9AA9;stop-opacity:0.626"/>
	<stop  offset="0.5801" style="stop-color:#BCC2CC;stop-opacity:0.4199"/>
	<stop  offset="0.7596" style="stop-color:#E0E2E8;stop-opacity:0.2404"/>
	<stop  offset="0.9057" style="stop-color:#F7F8F9;stop-opacity:0.0943"/>
	<stop  offset="1" style="stop-color:#FFFFFF;stop-opacity:0"/>
</radialGradient>
<path fill="url(#SVGID_1_)" d="M100.426,91.61c0,4.634-32.858,8.39-50.213,8.39C22.481,100,0,96.244,0,91.61
	s22.481-8.39,50.213-8.39C77.943,83.221,100.426,86.977,100.426,91.61z"/>
</svg>
