<?xml version="1.0" encoding="utf-8"?>
<!-- Generator: Adobe Illustrator 15.1.0, SVG Export Plug-In . SVG Version: 6.00 Build 0)  -->
<!DOCTYPE svg PUBLIC "-//W3C//DTD SVG 1.1//EN" "http://www.w3.org/Graphics/SVG/1.1/DTD/svg11.dtd">
<svg version="1.1" id="Ebene_1" xmlns="http://www.w3.org/2000/svg" xmlns:xlink="http://www.w3.org/1999/xlink" x="0px" y="0px"
	 width="100px" height="100px" viewBox="0 0 100 100" enable-background="new 0 0 100 100" xml:space="preserve">
<path fill="#FFFFFF" stroke="#3CB9E9" stroke-width="6" stroke-miterlimit="10" d="M18.372,44.663
	c-0.989-8.054-1.634-15.771,1.362-21.187c4.652-8.409,15.311-12.568,25.685-13.842c10.426-1.28,22.16,0.741,28.709,7.854
	c4.165,4.521,5.028,11.602,6.01,19.591"/>
<path fill="#225469" stroke="#3CB9E9" stroke-width="6" stroke-miterlimit="10" d="M30.406,79.947
	C20.015,82.156,9.813,75.586,7.621,65.271c-2.192-10.313,4.455-20.466,14.845-22.674"/>
<path fill="#225469" d="M35.072,78.184c0.431,2.025-0.119,3.861-1.229,4.097l0,0c-1.11,0.236-2.359-1.217-2.79-3.242l-7.625-35.872
	c-0.431-2.027,0.12-3.862,1.229-4.099l0,0c1.11-0.236,2.359,1.217,2.79,3.244L35.072,78.184z"/>
<path fill="#225469" stroke="#3CB9E9" stroke-width="6" stroke-miterlimit="10" d="M76.211,35.998
	c10.616-0.371,19.521,7.872,19.889,18.41c0.368,10.539-7.939,19.381-18.557,19.752"/>
<path fill="#225469" d="M76.711,73.433c0.072,2.07-0.789,3.781-1.923,3.821l0,0c-1.134,0.039-2.111-1.608-2.184-3.678l-1.281-36.651
	c-0.072-2.071,0.789-3.783,1.923-3.822l0,0c1.135-0.04,2.112,1.608,2.185,3.679L76.711,73.433z"/>
<g>
	<path fill="#225469" d="M70.713,12.08c-0.444,2.418-2.68,3.959-4.947,3.613c-12.775-1.964-25.45-0.465-36.784,3.923
		c-2.015,0.777-4.441-0.289-5.523-2.494l0,0c-1.08-2.201-0.169-4.824,2.146-5.726c12.743-4.969,26.938-6.673,41.201-4.538
		C69.392,7.243,71.159,9.665,70.713,12.08L70.713,12.08z"/>
</g>
<radialGradient id="SVGID_1_" cx="15.6343" cy="93.9453" r="21.4805" gradientTransform="matrix(1.2172 0 0 0.2434 8.2041 71.0747)" gradientUnits="userSpaceOnUse">
	<stop  offset="0" style="stop-color:#215469"/>
	<stop  offset="0.1485" style="stop-color:#4E6E82;stop-opacity:0.8515"/>
	<stop  offset="0.374" style="stop-color:#8B9AA9;stop-opacity:0.626"/>
	<stop  offset="0.5801" style="stop-color:#BCC2CC;stop-opacity:0.4199"/>
	<stop  offset="0.7596" style="stop-color:#E0E2E8;stop-opacity:0.2404"/>
	<stop  offset="0.9057" style="stop-color:#F7F8F9;stop-opacity:0.0943"/>
	<stop  offset="1" style="stop-color:#FFFFFF;stop-opacity:0"/>
</radialGradient>
<path fill="url(#SVGID_1_)" d="M63.469,93.945c0,3.344-23.71,6.055-36.234,6.055C7.223,100-9,97.289-9,93.945
	c0-3.343,16.223-6.054,36.234-6.054C47.245,87.892,63.469,90.603,63.469,93.945z"/>
</svg>
