<?xml version="1.0" encoding="utf-8"?>
<!-- Generator: Adobe Illustrator 15.1.0, SVG Export Plug-In . SVG Version: 6.00 Build 0)  -->
<!DOCTYPE svg PUBLIC "-//W3C//DTD SVG 1.1//EN" "http://www.w3.org/Graphics/SVG/1.1/DTD/svg11.dtd">
<svg version="1.1" id="Ebene_1" xmlns="http://www.w3.org/2000/svg" xmlns:xlink="http://www.w3.org/1999/xlink" x="0px" y="0px"
	 width="100px" height="100px" viewBox="0 0 100 100" enable-background="new 0 0 100 100" xml:space="preserve">
<rect x="21.095" y="33.508" transform="matrix(0.9925 -0.1219 0.1219 0.9925 -6.4502 7.3927)" fill="none" stroke="#3CB9E9" stroke-width="6" stroke-miterlimit="10" width="72.232" height="45.839"/>
<g>
	<g>
		<polygon fill="#225469" points="90.813,16.223 15.165,34.723 11.296,19.503 86.946,1.002 		"/>
	</g>
	
		<line fill="none" stroke="#3CB9E9" stroke-width="3.2519" stroke-linecap="round" stroke-linejoin="round" stroke-miterlimit="10" x1="22.646" y1="18.403" x2="20.576" y2="31.603"/>
	
		<line fill="none" stroke="#3CB9E9" stroke-width="3.2519" stroke-linecap="round" stroke-miterlimit="10" x1="31.738" y1="16.18" x2="29.704" y2="29.371"/>
	
		<line fill="none" stroke="#3CB9E9" stroke-width="3.2519" stroke-linecap="round" stroke-miterlimit="10" x1="41.825" y1="13.351" x2="39.791" y2="26.542"/>
	
		<line fill="none" stroke="#3CB9E9" stroke-width="3.2519" stroke-linecap="round" stroke-miterlimit="10" x1="52.191" y1="11.177" x2="50.156" y2="24.369"/>
	
		<line fill="none" stroke="#3CB9E9" stroke-width="3.2519" stroke-linecap="round" stroke-miterlimit="10" x1="62.122" y1="8.919" x2="60.086" y2="22.111"/>
	
		<line fill="none" stroke="#3CB9E9" stroke-width="3.2519" stroke-linecap="round" stroke-miterlimit="10" x1="72.263" y1="6.371" x2="70.228" y2="19.563"/>
	
		<line fill="none" stroke="#3CB9E9" stroke-width="3.2519" stroke-linecap="round" stroke-miterlimit="10" x1="83.324" y1="3.493" x2="81.289" y2="16.685"/>
</g>
<g>
	<g>
		<polygon fill="#225469" points="92.808,25.951 15.247,35.269 17.2,50.839 94.764,41.519 		"/>
	</g>
	
		<line fill="none" stroke="#3CB9E9" stroke-width="3.2557" stroke-linecap="round" stroke-linejoin="round" stroke-miterlimit="10" x1="28.224" y1="47.876" x2="21.452" y2="36.281"/>
	
		<line fill="none" stroke="#3CB9E9" stroke-width="3.2557" stroke-linecap="round" stroke-miterlimit="10" x1="37.545" y1="46.756" x2="30.811" y2="35.156"/>
	
		<line fill="none" stroke="#3CB9E9" stroke-width="3.2557" stroke-linecap="round" stroke-miterlimit="10" x1="48.02" y1="45.851" x2="41.285" y2="34.25"/>
	
		<line fill="none" stroke="#3CB9E9" stroke-width="3.2557" stroke-linecap="round" stroke-miterlimit="10" x1="58.517" y1="44.236" x2="51.78" y2="32.636"/>
	
		<line fill="none" stroke="#3CB9E9" stroke-width="3.2557" stroke-linecap="round" stroke-miterlimit="10" x1="68.636" y1="42.853" x2="61.899" y2="31.253"/>
	
		<line fill="none" stroke="#3CB9E9" stroke-width="3.2557" stroke-linecap="round" stroke-miterlimit="10" x1="79.058" y1="41.667" x2="72.322" y2="30.069"/>
	
		<line fill="none" stroke="#3CB9E9" stroke-width="3.2557" stroke-linecap="round" stroke-miterlimit="10" x1="90.463" y1="40.466" x2="83.727" y2="28.868"/>
</g>
<text transform="matrix(0.9926 -0.1219 0.1219 0.9926 34.5718 76.1104)" fill="#3CB9E9" font-family="'MyriadPro-Regular'" font-size="77.2956">...</text>
<radialGradient id="SVGID_1_" cx="12.8105" cy="93.9453" r="21.4805" gradientTransform="matrix(1.2172 0 0 0.2434 8.2041 71.0747)" gradientUnits="userSpaceOnUse">
	<stop  offset="0" style="stop-color:#215469"/>
	<stop  offset="0.1485" style="stop-color:#4E6E82;stop-opacity:0.8515"/>
	<stop  offset="0.374" style="stop-color:#8B9AA9;stop-opacity:0.626"/>
	<stop  offset="0.5801" style="stop-color:#BCC2CC;stop-opacity:0.4199"/>
	<stop  offset="0.7596" style="stop-color:#E0E2E8;stop-opacity:0.2404"/>
	<stop  offset="0.9057" style="stop-color:#F7F8F9;stop-opacity:0.0943"/>
	<stop  offset="1" style="stop-color:#FFFFFF;stop-opacity:0"/>
</radialGradient>
<path fill="url(#SVGID_1_)" d="M60.031,93.945c0,3.344-23.71,6.055-36.234,6.055c-20.012,0-36.234-2.711-36.234-6.055
	c0-3.343,16.223-6.054,36.234-6.054C43.808,87.892,60.031,90.603,60.031,93.945z"/>
</svg>
