<?xml version="1.0" encoding="utf-8"?>
<!-- Generator: Adobe Illustrator 15.1.0, SVG Export Plug-In . SVG Version: 6.00 Build 0)  -->
<!DOCTYPE svg PUBLIC "-//W3C//DTD SVG 1.1//EN" "http://www.w3.org/Graphics/SVG/1.1/DTD/svg11.dtd">
<svg version="1.1" id="Ebene_1" xmlns="http://www.w3.org/2000/svg" xmlns:xlink="http://www.w3.org/1999/xlink" x="0px" y="0px"
	 width="89.834px" height="100px" viewBox="0 0 89.834 100" enable-background="new 0 0 89.834 100" xml:space="preserve">
<g>
	<path fill="#E56D42" d="M34.242,7.08c3.601-3.595,9.019-4.007,12.101-0.919l37.925,37.973c3.084,3.087,2.664,8.504-0.936,12.1l0,0
		c-3.599,3.595-9.016,4.006-12.1,0.92L33.308,19.179C30.224,16.093,30.642,10.676,34.242,7.08L34.242,7.08z"/>
	<path fill="#E56D42" d="M34.019,93.08c-3.504-3.512-3.822-8.876-0.711-11.979l38.269-38.201c3.111-3.106,8.474-2.777,11.978,0.735
		l0,0c3.506,3.511,3.826,8.875,0.715,11.98l-38.27,38.198C42.888,96.923,37.522,96.592,34.019,93.08L34.019,93.08z"/>
</g>
<g>
	<path fill="#E56D42" d="M5.074,7.062c3.603-3.595,9.021-4.007,12.103-0.919l37.924,37.974c3.084,3.087,2.664,8.504-0.936,12.1l0,0
		c-3.6,3.594-9.017,4.006-12.102,0.92L4.14,19.161C1.056,16.075,1.474,10.658,5.074,7.062L5.074,7.062z"/>
	<path fill="#E56D42" d="M4.851,93.063c-3.504-3.512-3.821-8.877-0.711-11.979l38.269-38.201c3.112-3.106,8.474-2.777,11.978,0.735
		l0,0c3.506,3.511,3.826,8.876,0.715,11.979l-38.27,38.199C13.72,96.904,8.354,96.575,4.851,93.063L4.851,93.063z"/>
</g>
</svg>
