<?xml version="1.0" encoding="utf-8"?>
<!-- Generator: Adobe Illustrator 15.1.0, SVG Export Plug-In . SVG Version: 6.00 Build 0)  -->
<!DOCTYPE svg PUBLIC "-//W3C//DTD SVG 1.1//EN" "http://www.w3.org/Graphics/SVG/1.1/DTD/svg11.dtd">
<svg version="1.1" id="Ebene_1" xmlns="http://www.w3.org/2000/svg" xmlns:xlink="http://www.w3.org/1999/xlink" x="0px" y="0px"
	 width="89.834px" height="100px" viewBox="0 0 89.834 100" enable-background="new 0 0 89.834 100" xml:space="preserve">
<g>
	<path fill="#E56D42" d="M54.166,7.08c3.601,3.596,4.019,9.013,0.935,12.099L17.176,57.154c-3.084,3.086-8.501,2.675-12.1-0.92l0,0
		c-3.6-3.596-4.02-9.013-0.936-12.1L42.065,6.161C45.147,3.073,50.565,3.485,54.166,7.08L54.166,7.08z"/>
	<path fill="#E56D42" d="M54.39,93.08c-3.504,3.512-8.869,3.843-11.98,0.734L4.14,55.616c-3.111-3.104-2.791-8.469,0.715-11.98l0,0
		c3.504-3.512,8.866-3.841,11.978-0.735l38.269,38.201C58.212,84.204,57.894,89.568,54.39,93.08L54.39,93.08z"/>
</g>
<g>
	<path fill="#E56D42" d="M83.334,7.062c3.601,3.596,4.019,9.013,0.935,12.099L46.345,57.137c-3.085,3.086-8.502,2.674-12.102-0.92
		l0,0c-3.6-3.596-4.02-9.013-0.936-12.1L71.231,6.143C74.313,3.055,79.731,3.467,83.334,7.062L83.334,7.062z"/>
	<path fill="#E56D42" d="M83.558,93.063c-3.504,3.513-8.869,3.842-11.98,0.734l-38.27-38.199c-3.111-3.104-2.791-8.469,0.715-11.979
		l0,0c3.504-3.512,8.865-3.841,11.978-0.735l38.269,38.201C87.379,84.186,87.062,89.551,83.558,93.063L83.558,93.063z"/>
</g>
</svg>
