<?xml version="1.0" encoding="utf-8"?>
<!-- Generator: Adobe Illustrator 15.1.0, SVG Export Plug-In . SVG Version: 6.00 Build 0)  -->
<!DOCTYPE svg PUBLIC "-//W3C//DTD SVG 1.1//EN" "http://www.w3.org/Graphics/SVG/1.1/DTD/svg11.dtd">
<svg version="1.1" id="Ebene_1" xmlns="http://www.w3.org/2000/svg" xmlns:xlink="http://www.w3.org/1999/xlink" x="0px" y="0px"
	 width="566.93px" height="353px" viewBox="0 0 566.93 353" enable-background="new 0 0 566.93 353" xml:space="preserve">
<g>
	<path fill="#225469" d="M13.231,76.792c-1.069-0.353-2.997,0.897-2.48-3.326c6.591-3.074,18.073-3.928,25.659-2.547
		c7.696,1.4,12.891,7.001,21.588,5.67c4.963-6.624,14.986-3.221,20.716-2.114c9.061,1.755,8.21,4.242,18.038-0.913
		c22.79-11.95,17.351-1.582,15.787,15.969c-6.66,4.923,0.933,28.807,9.878,30.621c2.7-6.63-0.201-15.848,3.989-22.193
		c4.809-7.295,13.729-6.792,11.141,4.506c1.61,1.129,1.404,1.132,2.755,2.435c0.639-0.776,1.809-1.894,2.702-3.239
		c1.95-0.301,4.619,0.375,6.373,0.009c1.848,6.577,1.792,13.694,1.366,20.809c-2.227-0.395-5.539,0.747-7.766,0.356
		c0.498,8.664-0.273,13.694-10.886,15.315c-2.933,14.477-19.579,21.453-18.192,38.515c-6.852-5.247-18.921-14.284-24.373-2.324
		c-1.997,4.372,0.625,11.295,5.59,11.901c4.063,0.497,1.428-8.64,10.629-6.961c0.278,5.41,0.555,11.342-0.952,16.062
		c6.788,3.882,7.17,8.78,16.163,9.634c5.24,0.496,6.329-4.503,10.899-3.582c4.984,1.008,5.53,4.926,8.123,5.929
		c7.254,2.811,13.602,4.544,18.925,10.858c2.393,2.841,1.633,6.869,5.31,9.199c3.943,2.495,8.436,0.601,12.645,2.293
		c12.393,4.987,6.926,5.939,5.42,14.025c-1.433,7.708-0.185,15.133-5.124,21.513c-1.842,2.382-5.173,3.769-7.386,6.543
		c-2.856,3.588-2.717,5.934-5.187,10.895c-2.581,5.183-6.833,16.058-13.701,8.587c0.03,4.502,0.145,9.074-0.17,13.502
		c-8.462,3.525,1.186,11.231-8.114,15.52c1.599,0.964,2.204,2.467,3.683,3.527c-4.634,4.591-3.543,11.347-3.779,17.492
		c-18.873-12.306-10.338-48.617-10.639-65.739c-0.218-12.347-12.094-18.607-15.333-29.108c-3.441-11.183-3.293-22.812-2.59-34.222
		c-10.177-1.056-3.896-6.691-7.917-10.813c-4.82-4.941-10.926-3.218-16.46-5.8c-9.76-4.559-13.867-14.297-22.914-20.218
		c-0.826-3.417-2.454-4.482-4.094-6.762c0.438,2.393,0.249,4.523,0.963,6.747c-6.872-2.938-13.137-19.552-15.165-26.537
		c-3.07-10.605,0.449-25.656-5.085-35.605c-1.919-3.445-7.847-10.612-12.241-11.79c-7.292-1.945-11.833,5.129-16.399,4.529
		c-12.898-1.7-3.591-18.905-9.361-26.642c4.069,0.677,4.356-1.88,6.606-2.525"/>
	<path fill="#225469" d="M179.061,90.7c-2.436-0.526-3.928-0.118-3.792-3c-16.055-5.161,6.013-26.934-7.895-28.496
		c-0.726-11.059-5.41-16.409-19.083-13.31c1.108-1.123,1.689-4.004,2.452-5.254c-13.003-0.557,3.896-6.14,5.856-6.94
		c0.089-0.039,5.607-3.783,6.144-4.111c2.752-1.688,4.709-1.017,6.476-3.821c4.901-0.679,16.197,5.165,15.432-3.153
		c6.628,0.304,20.147-4.044,23.654,2.088c1.136,0.28,2.199-0.004,3.339,0.259c-0.102,1.139,0.29,2.538,0.278,3.685
		c5.207,0.426,8.289-3.121,14.267-2.12c0.313,3.924-8.546,10.235-10.433,14.842c0.567,0.184,1.559-0.107,2.255,0.059
		c-0.043,0.132-0.045,2.833,0,2.9c-6.938,0.799-0.039,6.808-2.748,10.953c-1.292,0.021-2.971,0.387-4.25,0.258
		c-0.518,0.741-0.117,2.045-0.29,2.883c-0.518,0.083-1.028,0.179-1.531,0.289c2.155,3.877,2.527,5.229-0.113,7.706
		c-0.943,0.88-10.616,3.384-12.59,3.252c-1.018,5.591-6.945,7.744-12.77,8.623c5.863,5.581-3.618,18.031-8.304,10.057"/>
	<path fill="#225469" d="M298.371,308.863c-9.318-1.612-14.786-31.188-14.495-38.417c0.294-7.417,0.105-14.043-2.786-20.386
		c-3.048-6.715-3.267-12.053-3.764-20.262c-10.239-1.544-12.346,7.67-23.7,4.403c-5.684-1.635-15.818-11.928-18.003-16.263
		c-5.976-11.863,6.194-29.38,11.067-40.672c2.026,0.007,3.163-1.033,5.193-1.019c-0.295-6.972,5.457-4.271,10.833-5.371
		c4.327-0.885,7.833-4.243,12.791-3.025c-0.49,2.822-1.451,5.437-1.542,8.395c10.542,0.233,10.508,4.827,18.795,7.073
		c0.214-6.428,8.706-7.79,14.02-4.796c5.97,3.368,6.303,9.391,9.067,14.321c3.103,5.555,10.583,29.414,17.82,29.632
		c1.917-3.234,6.087-4.373,9.973-5.261c0.405,9.162-10.84,18.651-15.091,25.97c-5.989,10.295,3.827,18.61-0.334,29.479
		c-14.433,3.015-5.606,45.132-32.569,35.414"/>
	<path fill="#225469" d="M346.285,264.172c-13.701,0.714-12.038,22.284-7.253,28.339c5.08-5.616,8.957-21.834,4.521-28.332"/>
	<path fill="#225469" d="M450.811,151.369c-7.843,7.593-3.952,15.275-18.951,14.231c-1.554,6.102-3.588,8.516-1.043,15.637
		c1.497,4.198,6.428,12.032-5.325,9.215c0.48-3.636,0.265-10.155-4.768-6.152c3.196,4.179,5.653,7.824,4.501,13.21
		c-7.617,1.422-6.812-9.113-8.1-13.347c-1.669-5.518-4.119-11.581-9.977-15.562c-17.102-11.66-14.733,17.17-19.06,21.968
		c-6.371,7.063-6.715-2.94-8.183-7.837c-1.866-6.227-4.755-10.374-9.313-14.71c-4.885-4.655-7.998-6.501-15.433-8.813
		c-1.347-0.415-18.402-6.075-18.25-6.15c-0.147-0.013-0.303-0.031-0.459-0.046c-0.416,2.401,2.608,8.745,5.277,10.16
		c4.077,2.161,8.639-1.137,12.54,0.898c5.641,2.947,1.417,6.25-1.834,9.25c-1.663,1.539-4.535,1.253-5.986,2.491
		c-1.661,1.425-2.082,5.03-4.016,6.171c-12.843,7.635-9.853-5.867-14.11-11.777c-5.383-7.454-13.214-9.381-14.663-19.507
		c8.807-0.746,4.451-9.698-4.505-8.871c-2.561-2.322-4.408-6.04-3.656-9.942c5.857-1.611,12.921-0.883,18.802-0.235
		c1.398-2.561,1.414-5.163-0.005-7.584c-3.717,0.15-5.464-0.851-7.269-3.14c-2.697,0.125-7.938-2.232-9.636-1.521
		c-4.873,2.029-1.426,4.458-3.819,6.897c-4.681,4.765-9.637,4.545-5.561,13.185c-6.501-0.984-8.929-12.897-16.143-16.26
		c-0.43,4.492,3.826,13.162,5.179,17.833c-7.52,0.635-3.785-16.023-15.157-14.647c-2.614,4.535-7.55,8.443-9.246,11.627"/>
	<path fill="#225469" d="M263.061,137.586c-2.882,4.374-10.481,3.203-14.385,5.381c-0.42-6.267-0.397-10.888-2.79-16.206
		c3.806-0.224,7.78-0.097,11.592-0.275c1.61-5.063,0.518-8.817-1.549-13.091c1.601,0.073,3.588-0.393,5.176-0.239
		c0.029-1.465-0.175-1.667-0.725-2.954c-1.926,1.167-3.42,0.659-5.374,1.392c0.969-1.653,0.959-1.116,2.511-2.408
		c-0.353-0.637-1.583-1.262-1.59-1.99c2.224-2.126,0.917-2.981,1.527-5.545c-3.744-1.082-5.62-4.795-4.256-8.641
		c8.261,0.52,3.139,17.39,13.362,16.224c-1.155-6.206,4.631-2.56,6.545-6.113c1.404-2.592-0.095-9.394-0.838-11.7
		c2.069,1.234,4.034,0.749,6.105,1.356c0.065-1.54-0.246-2.241-0.923-3.667c-3.352,0.087-6.513,1.265-9.707,2.115
		c-0.725-4.755,3.672-13.625,6.229-17.223c0.785,0.495,1.804,1.079,2.496,1.521c2.405-6.524,2.704-16.334,12.799-17.265
		c1.462-7.353,9.108-1.415,13.111-0.057c4.68,1.581,13.531,1.526,14.176,7.132c-3.434,0.075-7.355-0.051-9.985,0.9
		c0.736,0.308,1.667,0.523,2.718,0.901c0.143,3.043,1.298,5.507,2.819,7.451c2.806-3.704,7.543-6.369,9.892-9.27
		c-0.582-2.088,0.139-4.799-0.595-6.824c1.214,1.091,2.43,0.909,3.625,2.942c4.665-1.689,11.721-3.332,16.337-3.822
		c-8.106-1.877-13.681-5.452-9.417-12.545c3.937-6.557,11.774-5.313,16.378-10.898c0.006,0.923,0.049,2.015,0.05,2.938
		c-5.395,0.556-14.703,5.047-13.497,11.096c1.474,7.386,12.992,3.299,14.675,10.86c1.619,0.219,3.646,0.332,5.252-0.041
		c-5.746-3.302-5.569-13.843,2.576-15.409c5.478,6.044,1.12,23.007,2.243,23.339c0.525-1.704,1.685-3.741,1.773-6.069
		c2.833-0.918,8.604-0.875,9.06-1.704c-9.213,0.25-12.954-15.883-1.174-10.863c-0.279,3.596,0.744,7.064,4.496,8.431
		c1.464-4.929-2.772-7.823-3.362-12.349c1.504,0.266,3.717-0.487,5.237-0.235c-1.3-9.818,6.487-8.154,14.481-6.234
		c-0.383-5.83,1.021-6.911,0.325-12.345c1.931-0.246,3.502-0.021,5.162,0.798c0.519,3.438,2.079,5.889,3.022,9.157
		c2.688,0.063,8.619-0.763,10.564,0.846c4.092,3.378,0.05,5.693-3.36,6.151c6.395,0.403,19.45,2.825,23.584-1.491
		c0.742,1.814,2.188,2.893,1.949,5.45c1.448,1.307,3.705,2.816,5.297,4.148c3.869-5.537,17.386-7.392,24.414-6.253
		c0.216,0.744,0.037,1.386,0.271,2.126c4.312,0.635,8.479-1.478,12.584-0.668c5.838,1.153,3.759,2.45,7.261,4.878
		c7.378,5.115,8.84,1.341,17.544,0.393c5.507-0.603,13.639-0.819,19.7,0.995c4.317,1.296,6.805,3.976,10.881,5.472
		c4.188,1.528,9.3,1.042,12.926,2.374c-0.315,0.034-2.667,0.728-3.609,0.92c-0.236,2-1.686,3.796-1.243,6.052
		c-4.478-1.686-7.032-5.693-11.478-6.87c0.136,1.095-0.427,2.579-0.32,3.68c-2.18,0.168-3.315,1.279-5.86,0.856
		c2.227,1.428,2.775,3.571,4.083,5.402c-2.478,0.921-3.358,2.185-6.087,2.634c-1.961,2.336-5.132,3.942-6.707,6.805
		c-0.865-0.25-2.398-0.299-3.292-0.569c-3.584,7.316-1.397,15.556-3.927,23.305c-1.405,0.341-3.776,0.343-5.183,0.001
		c0.325-6.387-6.34-11.172-5.609-16.346c0.181-1.253,8.245-11.241,9.904-12.443c-2.038,5.053-6.503,3.794-9.729,0.783
		c0.125,5.353-10.865,7.75-15.813,8.522c-11.714,1.827-10.484,1.531-16.977,10.035c10.365-1.298,8.388,20.061,5.609,24.679
		c-2.493,4.131-8.383,7.954-9.542,12.154c-1.425,5.163,3.273,8.647,1.884,14.163c-5.41-0.204-5.938-9.215-7.272-13.089
		c-1.719-0.359-3.848-0.227-5.308,0.297c-9.637,6.502,11.99,14.528,2.717,21.538"/>
	<path fill="#225469" d="M469.27,140.849c13.119-1.113,7.542-14.975,9.047-22.772c0.948-4.93,2.546-5.651,0.958-10.935
		c-1.362-4.495-4.688-6.097-3.502-11.644c4.786-0.469,8.805,11.275,10.66,14.774c-6.853,3.313-4.097,12.758,4.517,11.095
		c0.054-0.079-0.01,2.083-0.003,2.125c-13.732-1.817,4.283,19.264-11.52,16.712c-1.362,3.256-5.272,3.727-9.088,3.139
		c-1.204,3.001-3.767,4.81-7.271,5.25c-0.688-4.19,2.942-7.987,8.022-7.738"/>
	<path fill="#225469" d="M418.179,201.043c-3.771,1.892,1.31,12.168,1.637,16.382c-1.845-1.55-5.067-2.71-6.951-3.74
		c0.598,3.042,2.966,8.893,4.358,11.66c1.88,3.744,3.6,7.791,8.977,7.974c1.561,2.381,2.238,4.796,2.116,7.581
		c3.695-0.377,7.473-1.607,11.521-1.313c1.967,2.271,5.203,2.506,9.088,2.104c0.504-0.63,1.711-2.951,1.886-3.645
		c-8.533,0.27-12.947-3.235-21.595-3.404c-1.434-2.729-3.854-5.144-3.613-8.379c4.501-2.389,0.484-8.693-1.746-12.086
		c-1.849-2.81-4.715-9.984-7.494-11.567"/>
	<path fill="#225469" d="M446.718,229.676c0.524-1.77,0.016-4.374-0.134-6.149c-2.023,0.073-3.164-1.078-5.186-1.021
		c-0.291-1.15-0.295-2.52-0.001-3.668c6.789-0.872,8.456-7.238,14.184-9.423c5.156,8.354-3.658,17.676-3.543,25.63
		c-0.16-0.036-2.274-0.034-2.46-0.004c0.41-1.514-0.536-3.698-0.267-5.239c-1.456,0.2-3.016-0.847-3.503-0.908"/>
	<path fill="#225469" d="M453.365,293.513c-2.43-5.919-0.653-14.607,0.002-20.991c0.868-8.377,2.427-8.315,11.691-7.345
		c1.236-4.084,2.36-9.087,6.7-11.473c5.13-2.804,10.313,0.522,12.604-6.442c-1.311-1.354-1.024-2.64-1.741-3.79
		c3.744-1.448,7.735-0.986,11.505-0.038c1.843,3.524,2.454,6.902,6.377,8.664c0.151,3.16,1.425,4.38,4.55,5.253
		c0.379-6.653,2.84-14.81,1.816-20.163c-3.801-0.109-6.633-2.587-8.937-4.057c-1.511-0.966-8.326-3.882-8.93-4.849
		c-7.362-11.709,6.697-4.912,12.545-2.975c3.768,1.247,6.234,2.273,9.294,3.745c2.336,1.13,8.285,3.095,10.062,4.644
		c7.08,6.17-0.381,14.599-4.06,3.513c-1.752-0.449-5.214-0.452-6.96-0.005c-4.149,7.256,1.89,13.456,5.981,19.661
		c4.645,7.045,7.298,13.627,10.317,20.969c-6.648,4.657-5.845,13.683-12.108,18.648c-2.7,2.133-7.821,4.268-11.618,3.128
		c-6.502-1.956-3.349-6.224-5.688-10.714c-2.316,2.013-5.296,3.295-8.726,2.939c0.045-1.742-1.189-2.735-1.195-4.461
		c-9.778-3.55-9.14-1.084-16.87,2.397c-4.145,1.864-13.796,5.909-18.261,3.608c-0.688-1.74,0.078-2.775,0.743-3.781"/>
	<path fill="#225469" d="M215.602,79.181c-3.617-1.012-4.544-4.148-4.207-7.096c5.008-0.506,9.015-1.559,13.166-2.977
		c0.534,3.602-0.561,6.769-1.812,9.955c-3.788,0.037-7.145,0.873-9.87,0.118"/>
	<path fill="#225469" d="M242.987,114.233c-0.384-2.775-0.607-4.987-0.775-7.729c1.844-1.008,4.754-1.656,7.005-1.563
		c0.45,2.258,0.445,5.347,0,7.607c-1.541,0.132-3.765,0.441-5.323,0.115"/>
	<path fill="#225469" d="M156.382,125.004c3.497,1.567,7.111,1.219,9.197-1.57c-3.843-1.748-4.637-5.622-3.878-9.289
		c-1.366-0.262-2.942-0.245-4.297,0.018c1.471,3.071,1.956,6.914-2.702,7.841c-0.183,0.924,0.178,2.126-0.14,3"/>
	<path fill="#225469" d="M534.51,306.436c6.191-0.611,11.973-14.67,16.522-7.979c0.063-0.005,2.553,0.089,2.439,0.022
		c1.178-3.225,1.743-6.93-0.027-10.066c3.061-1.683,5.979-0.77,9.133,0.911c-1.742,1.431-2.704,2.655-6.112,3.118
		c1.386,5.895-10.684,10.299-12.087,17.02c-4.274-0.188-8.06,1.687-9.865-0.671"/>
</g>
</svg>
