<?xml version="1.0" encoding="utf-8"?>
<!-- Generator: Adobe Illustrator 15.1.0, SVG Export Plug-In . SVG Version: 6.00 Build 0)  -->
<!DOCTYPE svg PUBLIC "-//W3C//DTD SVG 1.1//EN" "http://www.w3.org/Graphics/SVG/1.1/DTD/svg11.dtd">
<svg version="1.1" id="Ebene_1" xmlns="http://www.w3.org/2000/svg" xmlns:xlink="http://www.w3.org/1999/xlink" x="0px" y="0px"
	 width="566.93px" height="705.827px" viewBox="0 0 566.93 705.827" enable-background="new 0 0 566.93 705.827"
	 xml:space="preserve">
<g>
	<path fill="none" stroke="#FFFFFF" stroke-width="2" stroke-miterlimit="10" d="M12.775,70.382
		c-1.069-0.353-2.997,0.897-2.48-3.326c6.591-3.074,18.073-3.928,25.659-2.547c7.696,1.4,12.891,7.001,21.588,5.67
		c4.963-6.624,14.986-3.221,20.716-2.114c9.061,1.755,8.21,4.242,18.038-0.913c22.79-11.95,17.351-1.582,15.787,15.969
		c-6.66,4.923,0.933,28.807,9.878,30.621c2.7-6.63-0.201-15.848,3.989-22.193c4.809-7.295,13.729-6.792,11.141,4.506
		c1.61,1.129,1.404,1.132,2.755,2.435c0.639-0.776,1.809-1.894,2.702-3.239c1.95-0.301,4.619,0.375,6.373,0.009
		c1.848,6.577,1.792,13.694,1.366,20.809c-2.227-0.395-5.539,0.747-7.766,0.356c0.498,8.664-0.273,13.694-10.886,15.315
		c-2.933,14.477-19.579,21.453-18.192,38.515c-6.852-5.247-18.921-14.284-24.373-2.324c-1.997,4.372,0.625,11.295,5.59,11.901
		c4.063,0.497,1.428-8.64,10.629-6.961c0.278,5.41,0.555,11.342-0.952,16.062c6.788,3.882,7.17,8.78,16.163,9.634
		c5.24,0.496,6.329-4.503,10.899-3.582c4.984,1.008,5.53,4.926,8.123,5.929c7.254,2.811,13.602,4.544,18.925,10.858
		c2.393,2.841,1.633,6.869,5.31,9.199c3.943,2.495,8.436,0.601,12.645,2.293c12.393,4.987,6.926,5.939,5.42,14.025
		c-1.433,7.708-0.185,15.133-5.124,21.513c-1.842,2.382-5.173,3.769-7.386,6.543c-2.856,3.588-2.717,5.934-5.187,10.895
		c-2.581,5.183-6.833,16.058-13.701,8.587c0.03,4.502,0.145,9.074-0.17,13.502c-8.462,3.525,1.186,11.231-8.114,15.52
		c1.599,0.964,2.204,2.467,3.683,3.527c-4.634,4.591-3.543,11.347-3.779,17.492c-18.873-12.306-10.338-48.617-10.639-65.739
		c-0.218-12.347-12.094-18.607-15.333-29.108c-3.441-11.183-3.293-22.812-2.59-34.222c-10.177-1.056-3.896-6.691-7.917-10.813
		c-4.82-4.941-10.926-3.218-16.46-5.8c-9.76-4.559-13.867-14.297-22.914-20.218c-0.826-3.417-2.454-4.482-4.094-6.762
		c0.438,2.393,0.249,4.523,0.963,6.747c-6.872-2.938-13.137-19.552-15.165-26.537c-3.07-10.605,0.449-25.656-5.085-35.605
		c-1.919-3.445-7.847-10.612-12.241-11.79c-7.292-1.945-11.833,5.129-16.399,4.529c-12.898-1.7-3.591-18.905-9.361-26.642
		c4.069,0.677,4.356-1.88,6.606-2.525"/>
	<path fill="none" stroke="#FFFFFF" stroke-width="2" stroke-miterlimit="10" d="M178.604,84.29c-2.436-0.526-3.928-0.118-3.792-3
		c-16.055-5.161,6.013-26.934-7.895-28.496c-0.726-11.059-5.41-16.409-19.083-13.31c1.108-1.123,1.689-4.004,2.452-5.254
		c-13.003-0.557,3.896-6.14,5.856-6.94c0.089-0.039,5.607-3.783,6.144-4.111c2.752-1.688,4.709-1.017,6.476-3.821
		c4.901-0.679,16.197,5.165,15.432-3.153c6.628,0.304,20.147-4.044,23.654,2.088c1.136,0.28,2.199-0.004,3.339,0.259
		c-0.102,1.139,0.29,2.538,0.278,3.685c5.207,0.426,8.289-3.121,14.267-2.12c0.313,3.924-8.546,10.235-10.433,14.842
		c0.567,0.184,1.559-0.107,2.255,0.059c-0.043,0.132-0.045,2.833,0,2.9c-6.938,0.799-0.039,6.808-2.748,10.953
		c-1.292,0.021-2.971,0.387-4.25,0.258c-0.518,0.741-0.117,2.045-0.29,2.883c-0.518,0.083-1.028,0.179-1.531,0.289
		c2.155,3.877,2.527,5.229-0.113,7.706c-0.943,0.88-10.616,3.384-12.59,3.252c-1.018,5.591-6.945,7.744-12.77,8.623
		c5.863,5.581-3.618,18.031-8.304,10.057"/>
	<path fill="none" stroke="#FFFFFF" stroke-width="2" stroke-miterlimit="10" d="M297.914,302.453
		c-9.318-1.612-14.785-31.188-14.495-38.417c0.294-7.417,0.105-14.043-2.786-20.386c-3.048-6.715-3.267-12.053-3.764-20.262
		c-10.239-1.544-12.346,7.67-23.7,4.403c-5.684-1.635-15.818-11.928-18.003-16.263c-5.976-11.863,6.194-29.38,11.067-40.672
		c2.026,0.007,3.163-1.033,5.193-1.019c-0.295-6.972,5.457-4.271,10.833-5.371c4.327-0.885,7.833-4.243,12.791-3.025
		c-0.49,2.822-1.451,5.437-1.542,8.395c10.542,0.233,10.509,4.827,18.796,7.073c0.213-6.428,8.705-7.79,14.02-4.796
		c5.969,3.368,6.303,9.391,9.066,14.321c3.104,5.555,10.584,29.414,17.82,29.632c1.918-3.234,6.088-4.373,9.973-5.261
		c0.406,9.162-10.84,18.651-15.09,25.97c-5.99,10.295,3.826,18.61-0.334,29.479c-14.434,3.015-5.607,45.132-32.57,35.414"/>
	<path fill="none" stroke="#FFFFFF" stroke-width="2" stroke-miterlimit="10" d="M345.828,257.762
		c-13.701,0.714-12.037,22.284-7.252,28.339c5.08-5.616,8.957-21.834,4.52-28.332"/>
	<path fill="none" stroke="#FFFFFF" stroke-width="2" stroke-miterlimit="10" d="M450.354,144.958
		c-7.842,7.593-3.951,15.275-18.951,14.231c-1.553,6.102-3.588,8.516-1.043,15.637c1.498,4.198,6.428,12.032-5.324,9.215
		c0.48-3.636,0.264-10.155-4.768-6.152c3.195,4.179,5.652,7.824,4.5,13.21c-7.617,1.422-6.811-9.113-8.1-13.347
		c-1.668-5.518-4.119-11.581-9.977-15.562c-17.102-11.66-14.732,17.17-19.059,21.968c-6.371,7.063-6.715-2.94-8.184-7.837
		c-1.865-6.227-4.754-10.374-9.313-14.71c-4.885-4.655-7.998-6.501-15.434-8.813c-1.346-0.415-18.402-6.075-18.25-6.15
		c-0.146-0.013-0.303-0.031-0.459-0.046c-0.416,2.401,2.609,8.745,5.277,10.16c4.078,2.161,8.639-1.137,12.541,0.898
		c5.641,2.947,1.416,6.25-1.834,9.25c-1.664,1.539-4.535,1.253-5.986,2.491c-1.662,1.425-2.082,5.03-4.016,6.171
		c-12.844,7.635-9.854-5.867-14.111-11.777c-5.383-7.454-13.213-9.381-14.662-19.507c8.807-0.746,4.451-9.698-4.506-8.871
		c-2.561-2.322-4.408-6.04-3.656-9.942c5.857-1.611,12.922-0.883,18.803-0.235c1.398-2.561,1.414-5.163-0.006-7.584
		c-3.717,0.15-5.463-0.851-7.268-3.14c-2.697,0.125-7.939-2.232-9.637-1.521c-4.873,2.029-1.426,4.458-3.818,6.897
		c-4.682,4.765-9.637,4.545-5.561,13.185c-6.502-0.984-8.93-12.897-16.144-16.26c-0.43,4.492,3.825,13.162,5.179,17.833
		c-7.52,0.635-3.785-16.023-15.156-14.647c-2.614,4.535-7.55,8.443-9.246,11.627"/>
	<path fill="none" stroke="#FFFFFF" stroke-width="2" stroke-miterlimit="10" d="M262.604,131.176
		c-2.882,4.374-10.481,3.203-14.385,5.381c-0.42-6.267-0.397-10.888-2.79-16.206c3.806-0.224,7.78-0.097,11.592-0.275
		c1.61-5.063,0.518-8.817-1.549-13.091c1.601,0.073,3.588-0.393,5.176-0.239c0.029-1.465-0.175-1.667-0.725-2.954
		c-1.926,1.167-3.42,0.659-5.374,1.392c0.969-1.653,0.959-1.116,2.511-2.408c-0.353-0.637-1.583-1.262-1.59-1.99
		c2.224-2.126,0.917-2.981,1.527-5.545c-3.744-1.082-5.62-4.795-4.256-8.641c8.261,0.52,3.139,17.39,13.362,16.224
		c-1.155-6.206,4.631-2.56,6.545-6.113c1.404-2.592-0.095-9.394-0.838-11.7c2.069,1.234,4.034,0.749,6.105,1.356
		c0.065-1.54-0.246-2.241-0.923-3.667c-3.352,0.087-6.513,1.265-9.707,2.115c-0.725-4.755,3.672-13.625,6.229-17.223
		c0.785,0.495,1.804,1.079,2.496,1.521c2.405-6.524,2.704-16.334,12.798-17.265c1.463-7.353,9.109-1.415,13.111-0.057
		c4.68,1.581,13.531,1.526,14.176,7.132c-3.434,0.075-7.355-0.051-9.984,0.9c0.736,0.308,1.666,0.523,2.717,0.901
		c0.143,3.043,1.299,5.507,2.82,7.451c2.805-3.704,7.543-6.369,9.891-9.27c-0.582-2.088,0.139-4.799-0.594-6.824
		c1.213,1.091,2.43,0.909,3.625,2.942c4.664-1.689,11.721-3.332,16.336-3.822c-8.105-1.877-13.68-5.452-9.416-12.545
		c3.936-6.557,11.773-5.313,16.377-10.898c0.006,0.923,0.049,2.015,0.051,2.938c-5.395,0.556-14.703,5.047-13.498,11.096
		c1.475,7.386,12.992,3.299,14.676,10.86c1.619,0.219,3.645,0.332,5.252-0.041c-5.746-3.302-5.57-13.843,2.576-15.409
		c5.477,6.044,1.119,23.007,2.242,23.339c0.525-1.704,1.686-3.741,1.773-6.069c2.834-0.918,8.604-0.875,9.061-1.704
		c-9.213,0.25-12.955-15.883-1.174-10.863c-0.279,3.596,0.744,7.064,4.496,8.431c1.463-4.929-2.773-7.823-3.363-12.349
		c1.504,0.266,3.717-0.487,5.238-0.235c-1.301-9.818,6.486-8.154,14.48-6.234c-0.383-5.83,1.021-6.911,0.326-12.345
		c1.93-0.246,3.502-0.021,5.162,0.798c0.518,3.438,2.078,5.889,3.021,9.157c2.688,0.063,8.619-0.763,10.564,0.846
		c4.092,3.378,0.051,5.693-3.359,6.151c6.395,0.403,19.449,2.825,23.584-1.491c0.742,1.814,2.188,2.893,1.949,5.45
		c1.447,1.307,3.705,2.816,5.297,4.148c3.869-5.537,17.385-7.392,24.414-6.253c0.215,0.744,0.037,1.386,0.271,2.126
		c4.311,0.635,8.479-1.478,12.584-0.668c5.838,1.153,3.758,2.45,7.26,4.878c7.379,5.115,8.84,1.341,17.545,0.393
		c5.506-0.603,13.639-0.819,19.699,0.995c4.318,1.296,6.805,3.976,10.881,5.472c4.189,1.528,9.301,1.042,12.926,2.374
		c-0.314,0.034-2.666,0.728-3.609,0.92c-0.236,2-1.686,3.796-1.242,6.052c-4.479-1.686-7.033-5.693-11.479-6.87
		c0.137,1.095-0.426,2.579-0.32,3.68c-2.18,0.168-3.314,1.279-5.859,0.856c2.227,1.428,2.775,3.571,4.082,5.402
		c-2.477,0.921-3.357,2.185-6.086,2.634c-1.961,2.336-5.133,3.942-6.707,6.805c-0.865-0.25-2.398-0.299-3.293-0.569
		c-3.584,7.316-1.396,15.556-3.926,23.305c-1.406,0.341-3.777,0.343-5.184,0.001c0.326-6.387-6.34-11.172-5.609-16.346
		c0.182-1.253,8.246-11.241,9.904-12.443c-2.037,5.053-6.502,3.794-9.729,0.783c0.125,5.353-10.865,7.75-15.813,8.522
		c-11.713,1.827-10.484,1.531-16.977,10.035c10.365-1.298,8.389,20.061,5.609,24.679c-2.492,4.131-8.383,7.954-9.541,12.154
		c-1.426,5.163,3.273,8.647,1.883,14.163c-5.41-0.204-5.938-9.215-7.271-13.089c-1.719-0.359-3.848-0.227-5.309,0.297
		c-9.637,6.502,11.99,14.528,2.717,21.538"/>
	<path fill="none" stroke="#FFFFFF" stroke-width="2" stroke-miterlimit="10" d="M468.813,134.439
		c13.119-1.113,7.543-14.975,9.047-22.772c0.949-4.93,2.547-5.651,0.959-10.935c-1.363-4.495-4.689-6.097-3.502-11.644
		c4.785-0.469,8.805,11.275,10.66,14.774c-6.854,3.313-4.098,12.758,4.516,11.095c0.055-0.079-0.01,2.083-0.002,2.125
		c-13.732-1.817,4.283,19.264-11.52,16.712c-1.363,3.256-5.273,3.727-9.088,3.139c-1.205,3.001-3.768,4.81-7.271,5.25
		c-0.688-4.19,2.943-7.987,8.023-7.738"/>
	<path fill="none" stroke="#FFFFFF" stroke-width="2" stroke-miterlimit="10" d="M417.723,194.633
		c-3.771,1.892,1.309,12.168,1.637,16.382c-1.846-1.55-5.068-2.71-6.951-3.74c0.598,3.042,2.965,8.893,4.357,11.66
		c1.881,3.744,3.6,7.791,8.977,7.974c1.561,2.381,2.238,4.796,2.117,7.581c3.695-0.377,7.473-1.607,11.52-1.313
		c1.967,2.271,5.203,2.506,9.088,2.104c0.504-0.63,1.711-2.951,1.887-3.645c-8.533,0.27-12.947-3.235-21.596-3.404
		c-1.434-2.729-3.854-5.144-3.613-8.379c4.502-2.389,0.484-8.693-1.746-12.086c-1.848-2.81-4.715-9.984-7.494-11.567"/>
	<path fill="none" stroke="#FFFFFF" stroke-width="2" stroke-miterlimit="10" d="M446.262,223.266
		c0.523-1.77,0.016-4.374-0.135-6.149c-2.023,0.073-3.164-1.078-5.186-1.021c-0.291-1.15-0.295-2.52,0-3.668
		c6.789-0.872,8.455-7.238,14.184-9.423c5.156,8.354-3.658,17.676-3.543,25.63c-0.16-0.036-2.275-0.034-2.461-0.004
		c0.41-1.514-0.535-3.698-0.266-5.239c-1.457,0.2-3.016-0.847-3.504-0.908"/>
	<path fill="none" stroke="#FFFFFF" stroke-width="2" stroke-miterlimit="10" d="M452.908,287.103
		c-2.43-5.919-0.652-14.607,0.002-20.991c0.869-8.377,2.428-8.315,11.691-7.345c1.236-4.084,2.361-9.087,6.701-11.473
		c5.129-2.804,10.313,0.522,12.604-6.442c-1.311-1.354-1.025-2.64-1.742-3.79c3.744-1.448,7.736-0.986,11.506-0.038
		c1.842,3.524,2.453,6.902,6.377,8.664c0.15,3.16,1.424,4.38,4.549,5.253c0.379-6.653,2.84-14.81,1.816-20.163
		c-3.801-0.109-6.633-2.587-8.936-4.057c-1.512-0.966-8.326-3.882-8.93-4.849c-7.363-11.709,6.697-4.912,12.545-2.975
		c3.768,1.247,6.234,2.273,9.293,3.745c2.336,1.13,8.285,3.095,10.063,4.644c7.08,6.17-0.381,14.599-4.061,3.513
		c-1.752-0.449-5.213-0.452-6.959-0.005c-4.15,7.256,1.889,13.456,5.98,19.661c4.645,7.045,7.299,13.627,10.318,20.969
		c-6.648,4.657-5.846,13.683-12.109,18.648c-2.699,2.133-7.82,4.268-11.617,3.128c-6.502-1.956-3.35-6.224-5.688-10.714
		c-2.316,2.013-5.297,3.295-8.727,2.939c0.045-1.742-1.189-2.735-1.195-4.461c-9.777-3.55-9.139-1.084-16.869,2.397
		c-4.145,1.864-13.797,5.909-18.262,3.608c-0.688-1.74,0.078-2.775,0.744-3.781"/>
	<path fill="none" stroke="#FFFFFF" stroke-width="2" stroke-miterlimit="10" d="M215.146,72.771
		c-3.617-1.012-4.544-4.148-4.207-7.096c5.008-0.506,9.015-1.559,13.166-2.977c0.534,3.602-0.561,6.769-1.812,9.955
		c-3.788,0.037-7.145,0.873-9.87,0.118"/>
	<path fill="none" stroke="#FFFFFF" stroke-width="2" stroke-miterlimit="10" d="M242.531,107.823
		c-0.384-2.775-0.607-4.987-0.775-7.729c1.844-1.008,4.754-1.656,7.005-1.563c0.45,2.258,0.445,5.347,0,7.607
		c-1.541,0.132-3.765,0.441-5.323,0.115"/>
	<path fill="none" stroke="#FFFFFF" stroke-width="2" stroke-miterlimit="10" d="M155.926,118.594
		c3.497,1.567,7.111,1.219,9.197-1.57c-3.843-1.748-4.637-5.622-3.878-9.289c-1.366-0.262-2.942-0.245-4.297,0.018
		c1.471,3.071,1.956,6.914-2.702,7.841c-0.183,0.924,0.178,2.126-0.14,3"/>
	<path fill="none" stroke="#FFFFFF" stroke-width="2" stroke-miterlimit="10" d="M534.053,300.025
		c6.191-0.611,11.973-14.67,16.523-7.979c0.063-0.005,2.553,0.089,2.439,0.022c1.178-3.225,1.742-6.93-0.027-10.066
		c3.061-1.683,5.979-0.77,9.133,0.911c-1.742,1.431-2.705,2.655-6.113,3.118c1.387,5.895-10.684,10.299-12.086,17.02
		c-4.275-0.188-8.061,1.687-9.865-0.671"/>
</g>
<g>
	<path fill="#225469" d="M12.775,417.512c-1.069-0.353-2.997,0.897-2.48-3.326c6.591-3.074,18.073-3.928,25.659-2.547
		c7.696,1.399,12.891,7.001,21.588,5.67c4.963-6.624,14.986-3.222,20.716-2.114c9.061,1.756,8.21,4.242,18.038-0.912
		c22.79-11.949,17.351-1.582,15.787,15.969c-6.66,4.924,0.933,28.808,9.878,30.621c2.7-6.63-0.201-15.848,3.989-22.193
		c4.809-7.295,13.729-6.791,11.141,4.506c1.61,1.13,1.404,1.133,2.755,2.436c0.639-0.776,1.809-1.895,2.702-3.238
		c1.95-0.302,4.619,0.375,6.373,0.009c1.848,6.577,1.792,13.694,1.366,20.81c-2.227-0.396-5.539,0.746-7.766,0.355
		c0.498,8.664-0.273,13.694-10.886,15.315c-2.933,14.478-19.579,21.453-18.192,38.515c-6.852-5.246-18.921-14.283-24.373-2.323
		c-1.997,4.372,0.625,11.296,5.59,11.901c4.063,0.496,1.428-8.641,10.629-6.961c0.278,5.409,0.555,11.342-0.952,16.061
		c6.788,3.883,7.17,8.781,16.163,9.635c5.24,0.496,6.329-4.504,10.899-3.582c4.984,1.008,5.53,4.926,8.123,5.928
		c7.254,2.811,13.602,4.545,18.925,10.859c2.393,2.84,1.633,6.869,5.31,9.199c3.943,2.494,8.436,0.6,12.645,2.293
		c12.393,4.986,6.926,5.939,5.42,14.025c-1.433,7.707-0.185,15.133-5.124,21.512c-1.842,2.383-5.173,3.77-7.386,6.543
		c-2.856,3.588-2.717,5.934-5.187,10.895c-2.581,5.184-6.833,16.059-13.701,8.588c0.03,4.502,0.145,9.074-0.17,13.502
		c-8.462,3.525,1.186,11.231-8.114,15.519c1.599,0.965,2.204,2.467,3.683,3.527c-4.634,4.592-3.543,11.348-3.779,17.492
		c-18.873-12.305-10.338-48.616-10.639-65.739c-0.218-12.346-12.094-18.607-15.333-29.107c-3.441-11.184-3.293-22.813-2.59-34.223
		c-10.177-1.055-3.896-6.691-7.917-10.813c-4.82-4.941-10.926-3.217-16.46-5.799c-9.76-4.559-13.867-14.297-22.914-20.219
		c-0.826-3.417-2.454-4.482-4.094-6.762c0.438,2.393,0.249,4.523,0.963,6.746c-6.872-2.938-13.137-19.553-15.165-26.537
		c-3.07-10.605,0.449-25.656-5.085-35.605c-1.919-3.445-7.847-10.611-12.241-11.79c-7.292-1.945-11.833,5.129-16.399,4.529
		c-12.898-1.7-3.591-18.905-9.361-26.642c4.069,0.677,4.356-1.881,6.606-2.525"/>
	<path fill="#225469" d="M178.604,431.419c-2.436-0.525-3.928-0.117-3.792-3c-16.055-5.16,6.013-26.934-7.895-28.495
		c-0.726-11.06-5.41-16.409-19.083-13.31c1.108-1.123,1.689-4.005,2.452-5.255c-13.003-0.557,3.896-6.14,5.856-6.94
		c0.089-0.038,5.607-3.783,6.144-4.11c2.752-1.688,4.709-1.017,6.476-3.821c4.901-0.679,16.197,5.165,15.432-3.152
		c6.628,0.304,20.147-4.044,23.654,2.088c1.137,0.281,2.199-0.004,3.34,0.26c-0.102,1.139,0.289,2.537,0.277,3.684
		c5.207,0.426,8.289-3.12,14.268-2.119c0.313,3.924-8.547,10.234-10.434,14.842c0.566,0.184,1.559-0.107,2.256,0.059
		c-0.044,0.132-0.046,2.832,0,2.9c-6.939,0.799-0.039,6.807-2.748,10.952c-1.292,0.021-2.971,0.387-4.25,0.259
		c-0.519,0.74-0.117,2.045-0.291,2.883c-0.518,0.083-1.027,0.178-1.53,0.289c2.155,3.877,2.526,5.229-0.113,7.705
		c-0.942,0.881-10.616,3.385-12.59,3.252c-1.018,5.591-6.945,7.744-12.77,8.623c5.863,5.58-3.618,18.03-8.304,10.057"/>
	<path fill="#225469" d="M297.914,649.583c-9.318-1.613-14.785-31.189-14.494-38.418c0.293-7.416,0.105-14.043-2.786-20.385
		c-3.048-6.715-3.267-12.053-3.765-20.262c-10.238-1.545-12.346,7.67-23.699,4.402c-5.684-1.635-15.818-11.928-18.003-16.262
		c-5.976-11.863,6.194-29.381,11.067-40.672c2.025,0.006,3.162-1.033,5.193-1.02c-0.295-6.972,5.456-4.271,10.832-5.371
		c4.327-0.885,7.832-4.242,12.791-3.024c-0.49,2.822-1.451,5.437-1.542,8.395c10.542,0.233,10.509,4.827,18.796,7.073
		c0.213-6.428,8.705-7.789,14.02-4.797c5.969,3.369,6.303,9.392,9.066,14.322c3.104,5.555,10.584,29.414,17.82,29.631
		c1.918-3.234,6.088-4.373,9.973-5.26c0.406,9.162-10.84,18.65-15.09,25.969c-5.99,10.295,3.826,18.611-0.334,29.48
		c-14.434,3.014-5.607,45.132-32.57,35.414"/>
	<path fill="#225469" d="M345.828,604.892c-13.701,0.713-12.037,22.283-7.252,28.338c5.08-5.615,8.957-21.834,4.52-28.332"/>
	<path fill="#225469" d="M450.354,492.088c-7.842,7.593-3.951,15.274-18.951,14.231c-1.553,6.102-3.588,8.516-1.043,15.637
		c1.498,4.197,6.428,12.031-5.324,9.215c0.48-3.637,0.264-10.156-4.768-6.152c3.195,4.18,5.652,7.824,4.5,13.211
		c-7.617,1.422-6.811-9.113-8.1-13.348c-1.668-5.518-4.119-11.58-9.977-15.563c-17.102-11.66-14.732,17.171-19.059,21.969
		c-6.371,7.063-6.715-2.941-8.184-7.838c-1.865-6.227-4.754-10.373-9.313-14.711c-4.885-4.654-7.998-6.501-15.434-8.813
		c-1.346-0.416-18.402-6.076-18.25-6.15c-0.146-0.014-0.303-0.031-0.459-0.047c-0.416,2.401,2.609,8.746,5.277,10.16
		c4.078,2.161,8.639-1.137,12.541,0.898c5.641,2.947,1.416,6.251-1.834,9.251c-1.664,1.539-4.535,1.253-5.986,2.491
		c-1.662,1.425-2.082,5.029-4.016,6.171c-12.844,7.636-9.854-5.866-14.111-11.776c-5.383-7.454-13.213-9.381-14.662-19.508
		c8.807-0.746,4.451-9.698-4.506-8.871c-2.561-2.322-4.408-6.039-3.656-9.941c5.857-1.611,12.922-0.883,18.803-0.236
		c1.398-2.561,1.414-5.162-0.006-7.584c-3.717,0.15-5.463-0.85-7.268-3.139c-2.697,0.125-7.939-2.232-9.637-1.521
		c-4.873,2.029-1.426,4.457-3.818,6.896c-4.682,4.766-9.637,4.546-5.561,13.186c-6.502-0.984-8.93-12.897-16.144-16.26
		c-0.431,4.491,3.825,13.162,5.179,17.833c-7.52,0.635-3.785-16.022-15.156-14.647c-2.614,4.535-7.55,8.443-9.246,11.627"/>
	<path fill="#225469" d="M262.604,478.306c-2.882,4.374-10.48,3.203-14.385,5.381c-0.42-6.267-0.396-10.888-2.789-16.205
		c3.806-0.225,7.779-0.098,11.592-0.275c1.609-5.063,0.518-8.817-1.55-13.091c1.601,0.073,3.589-0.393,5.176-0.239
		c0.029-1.465-0.175-1.666-0.725-2.953c-1.927,1.167-3.42,0.658-5.374,1.392c0.97-1.653,0.96-1.116,2.512-2.408
		c-0.354-0.638-1.584-1.263-1.59-1.989c2.223-2.127,0.917-2.982,1.527-5.545c-3.744-1.082-5.621-4.795-4.256-8.642
		c8.26,0.521,3.139,17.39,13.361,16.224c-1.154-6.205,4.631-2.56,6.545-6.113c1.404-2.592-0.094-9.393-0.838-11.699
		c2.07,1.234,4.034,0.748,6.105,1.356c0.064-1.54-0.246-2.241-0.924-3.667c-3.352,0.088-6.512,1.266-9.706,2.115
		c-0.725-4.755,3.673-13.625,6.229-17.223c0.784,0.495,1.804,1.079,2.495,1.521c2.406-6.525,2.705-16.335,12.799-17.266
		c1.463-7.353,9.109-1.414,13.111-0.057c4.68,1.581,13.531,1.525,14.176,7.133c-3.434,0.074-7.355-0.051-9.984,0.899
		c0.736,0.308,1.666,0.523,2.717,0.901c0.143,3.043,1.299,5.508,2.82,7.451c2.805-3.703,7.543-6.369,9.891-9.27
		c-0.582-2.088,0.139-4.799-0.594-6.824c1.213,1.092,2.43,0.91,3.625,2.942c4.664-1.689,11.721-3.332,16.336-3.821
		c-8.105-1.877-13.68-5.453-9.416-12.546c3.936-6.557,11.773-5.313,16.377-10.898c0.006,0.923,0.049,2.015,0.051,2.938
		c-5.395,0.557-14.703,5.047-13.498,11.096c1.475,7.387,12.992,3.3,14.676,10.86c1.619,0.219,3.645,0.332,5.252-0.04
		c-5.746-3.303-5.57-13.844,2.576-15.41c5.477,6.045,1.119,23.008,2.242,23.34c0.525-1.703,1.686-3.74,1.773-6.069
		c2.834-0.918,8.604-0.875,9.061-1.704c-9.213,0.25-12.955-15.883-1.174-10.862c-0.279,3.596,0.744,7.064,4.496,8.431
		c1.463-4.928-2.773-7.822-3.363-12.348c1.504,0.266,3.717-0.488,5.238-0.236c-1.301-9.818,6.486-8.153,14.48-6.233
		c-0.383-5.83,1.021-6.911,0.326-12.345c1.93-0.246,3.502-0.021,5.162,0.798c0.518,3.438,2.078,5.89,3.021,9.157
		c2.688,0.063,8.619-0.763,10.564,0.846c4.092,3.379,0.051,5.693-3.359,6.152c6.395,0.402,19.449,2.824,23.584-1.491
		c0.742,1.814,2.188,2.894,1.949,5.45c1.447,1.307,3.705,2.816,5.297,4.148c3.869-5.537,17.385-7.392,24.414-6.253
		c0.215,0.744,0.037,1.386,0.271,2.126c4.311,0.635,8.479-1.478,12.584-0.668c5.838,1.154,3.758,2.451,7.26,4.879
		c7.379,5.115,8.84,1.341,17.545,0.393c5.506-0.603,13.639-0.818,19.699,0.996c4.318,1.295,6.805,3.975,10.881,5.471
		c4.189,1.528,9.301,1.043,12.926,2.374c-0.314,0.034-2.666,0.728-3.609,0.921c-0.236,2-1.686,3.796-1.242,6.052
		c-4.479-1.686-7.033-5.692-11.479-6.87c0.137,1.096-0.426,2.578-0.32,3.68c-2.18,0.169-3.314,1.279-5.859,0.857
		c2.227,1.428,2.775,3.57,4.082,5.402c-2.477,0.92-3.357,2.184-6.086,2.633c-1.961,2.337-5.133,3.942-6.707,6.806
		c-0.865-0.25-2.398-0.3-3.293-0.569c-3.584,7.316-1.396,15.557-3.926,23.305c-1.406,0.342-3.777,0.344-5.184,0.002
		c0.326-6.387-6.34-11.172-5.609-16.346c0.182-1.253,8.246-11.241,9.904-12.443c-2.037,5.053-6.502,3.794-9.729,0.783
		c0.125,5.353-10.865,7.75-15.813,8.521c-11.713,1.828-10.484,1.531-16.977,10.035c10.365-1.298,8.389,20.061,5.609,24.68
		c-2.492,4.131-8.383,7.953-9.541,12.154c-1.426,5.162,3.273,8.646,1.883,14.162c-5.41-0.203-5.938-9.215-7.271-13.088
		c-1.719-0.359-3.848-0.228-5.309,0.297c-9.637,6.502,11.99,14.527,2.717,21.537"/>
	<path fill="#225469" d="M468.813,481.569c13.119-1.113,7.543-14.976,9.047-22.772c0.949-4.93,2.547-5.65,0.959-10.935
		c-1.363-4.495-4.689-6.097-3.502-11.644c4.785-0.47,8.805,11.274,10.66,14.773c-6.854,3.313-4.098,12.758,4.516,11.095
		c0.055-0.079-0.01,2.083-0.002,2.124c-13.732-1.816,4.283,19.264-11.52,16.713c-1.363,3.256-5.273,3.727-9.088,3.139
		c-1.205,3.002-3.768,4.811-7.271,5.25c-0.688-4.19,2.943-7.987,8.023-7.738"/>
	<path fill="#225469" d="M417.723,541.763c-3.771,1.891,1.309,12.168,1.637,16.381c-1.846-1.549-5.068-2.709-6.951-3.74
		c0.598,3.043,2.965,8.893,4.357,11.66c1.881,3.744,3.6,7.791,8.977,7.975c1.561,2.381,2.238,4.795,2.117,7.58
		c3.695-0.377,7.473-1.607,11.52-1.313c1.967,2.27,5.203,2.506,9.088,2.104c0.504-0.631,1.711-2.951,1.887-3.645
		c-8.533,0.27-12.947-3.236-21.596-3.404c-1.434-2.73-3.854-5.145-3.613-8.379c4.502-2.389,0.484-8.693-1.746-12.086
		c-1.848-2.811-4.715-9.984-7.494-11.568"/>
	<path fill="#225469" d="M446.262,570.396c0.523-1.77,0.016-4.375-0.135-6.15c-2.023,0.074-3.164-1.078-5.186-1.02
		c-0.291-1.15-0.295-2.52,0-3.668c6.789-0.873,8.455-7.238,14.184-9.424c5.156,8.354-3.658,17.676-3.543,25.631
		c-0.16-0.037-2.275-0.035-2.461-0.004c0.41-1.514-0.535-3.699-0.266-5.24c-1.457,0.201-3.016-0.846-3.504-0.908"/>
	<path fill="#225469" d="M452.908,634.232c-2.43-5.918-0.652-14.607,0.002-20.99c0.869-8.377,2.428-8.316,11.691-7.346
		c1.236-4.084,2.361-9.086,6.701-11.473c5.129-2.803,10.313,0.523,12.604-6.441c-1.311-1.355-1.025-2.641-1.742-3.791
		c3.744-1.447,7.736-0.986,11.506-0.037c1.842,3.523,2.453,6.902,6.377,8.664c0.15,3.16,1.424,4.379,4.549,5.252
		c0.379-6.652,2.84-14.809,1.816-20.162c-3.801-0.109-6.633-2.588-8.936-4.057c-1.512-0.967-8.326-3.883-8.93-4.85
		c-7.363-11.709,6.697-4.912,12.545-2.975c3.768,1.248,6.234,2.273,9.293,3.746c2.336,1.129,8.285,3.094,10.063,4.643
		c7.08,6.17-0.381,14.6-4.061,3.514c-1.752-0.449-5.213-0.453-6.959-0.006c-4.15,7.256,1.889,13.457,5.98,19.662
		c4.645,7.045,7.299,13.627,10.318,20.969c-6.648,4.656-5.846,13.682-12.109,18.648c-2.699,2.133-7.82,4.268-11.617,3.127
		c-6.502-1.955-3.35-6.223-5.688-10.713c-2.316,2.012-5.297,3.295-8.727,2.939c0.045-1.742-1.189-2.736-1.195-4.461
		c-9.777-3.551-9.139-1.084-16.869,2.396c-4.145,1.865-13.797,5.91-18.262,3.609c-0.688-1.74,0.078-2.775,0.744-3.781"/>
	<path fill="#225469" d="M215.146,419.9c-3.616-1.012-4.544-4.147-4.206-7.096c5.008-0.506,9.015-1.559,13.166-2.977
		c0.533,3.602-0.562,6.77-1.813,9.955c-3.787,0.037-7.145,0.873-9.869,0.118"/>
	<path fill="#225469" d="M242.531,454.953c-0.385-2.775-0.607-4.986-0.775-7.729c1.844-1.008,4.754-1.656,7.004-1.563
		c0.45,2.258,0.445,5.348,0,7.607c-1.54,0.131-3.765,0.44-5.322,0.114"/>
	<path fill="#225469" d="M155.926,465.724c3.497,1.566,7.111,1.219,9.197-1.57c-3.843-1.748-4.637-5.621-3.878-9.289
		c-1.366-0.262-2.942-0.244-4.297,0.019c1.471,3.071,1.956,6.913-2.702,7.841c-0.183,0.924,0.178,2.127-0.14,3"/>
	<path fill="#225469" d="M534.053,647.156c6.191-0.611,11.973-14.67,16.523-7.98c0.063-0.004,2.553,0.09,2.439,0.023
		c1.178-3.225,1.742-6.93-0.027-10.066c3.061-1.684,5.979-0.77,9.133,0.91c-1.742,1.432-2.705,2.656-6.113,3.119
		c1.387,5.895-10.684,10.299-12.086,17.02c-4.275-0.188-8.061,1.686-9.865-0.672"/>
</g>
</svg>
