<?xml version="1.0" encoding="utf-8"?>
<!-- Generator: Adobe Illustrator 15.1.0, SVG Export Plug-In . SVG Version: 6.00 Build 0)  -->
<!DOCTYPE svg PUBLIC "-//W3C//DTD SVG 1.1//EN" "http://www.w3.org/Graphics/SVG/1.1/DTD/svg11.dtd">
<svg version="1.1" id="Ebene_1" xmlns="http://www.w3.org/2000/svg" xmlns:xlink="http://www.w3.org/1999/xlink" x="0px" y="0px"
	 width="24.545px" height="52.011px" viewBox="0 0 24.545 52.011" enable-background="new 0 0 24.545 52.011" xml:space="preserve">
<g>
	<path fill="#42B9E8" d="M24.545,23.485c0,0.783-0.632,1.424-1.4,1.424H1.457c-0.769,0-1.398-0.641-1.398-1.424V1.424
		C0.059,0.641,0.688,0,1.457,0h21.688c0.769,0,1.4,0.641,1.4,1.424V23.485z"/>
	<path fill="#205469" d="M14.051,23.13v-9.158h-2.38v-3.297h2.38c0,0,0-1.352,0-2.816c0-2.213,1.407-4.246,4.646-4.246
		c1.313,0,2.282,0.128,2.282,0.128l-0.075,3.079c0,0-0.992-0.01-2.069-0.01c-1.169,0-1.355,0.547-1.355,1.457
		c0,0.719,0-1.531,0,2.408h3.516l-0.152,3.297h-3.363v9.158H14.051z"/>
</g>
<g>
	<path fill="#EEE8EE" d="M24.545,50.585c0,0.784-0.631,1.425-1.4,1.425H1.458c-0.769,0-1.399-0.642-1.399-1.425V28.497
		c0-0.784,0.63-1.425,1.399-1.425h21.687c0.77,0,1.4,0.642,1.4,1.425V50.585z"/>
	<path fill="#205469" d="M14.05,50.229v-9.169h-2.379v-3.301h2.379c0,0,0-1.353,0-2.819c0-2.216,1.408-4.25,4.646-4.25
		c1.313,0,2.282,0.128,2.282,0.128L20.903,33.9c0,0-0.992-0.01-2.069-0.01c-1.169,0-1.355,0.548-1.355,1.458c0,0.719,0-1.534,0,2.41
		h3.516l-0.152,3.301h-3.363v9.169H14.05z"/>
</g>
</svg>
