<?xml version="1.0" encoding="utf-8"?>
<!-- Generator: Adobe Illustrator 15.1.0, SVG Export Plug-In . SVG Version: 6.00 Build 0)  -->
<!DOCTYPE svg PUBLIC "-//W3C//DTD SVG 1.1//EN" "http://www.w3.org/Graphics/SVG/1.1/DTD/svg11.dtd">
<svg version="1.1" id="Layer_1" xmlns="http://www.w3.org/2000/svg" xmlns:xlink="http://www.w3.org/1999/xlink" x="0px" y="0px"
	 width="29.201px" height="56px" viewBox="0 0 29.201 56" enable-background="new 0 0 29.201 56" xml:space="preserve">
<path fill="#42B9E8" d="M29.201,18.545c-1.074,0.477-2.229,0.799-3.441,0.944c1.237-0.742,2.187-1.917,2.634-3.318
	c-1.158,0.688-2.44,1.187-3.804,1.455c-1.093-1.166-2.65-1.894-4.373-1.894c-3.309,0-5.991,2.685-5.991,5.997
	c0,0.47,0.053,0.928,0.155,1.367c-4.979-0.25-9.393-2.638-12.348-6.266c-0.516,0.886-0.811,1.916-0.811,3.015
	c0,2.081,1.058,3.916,2.665,4.992c-0.982-0.031-1.906-0.301-2.713-0.75c0,0.025,0,0.05,0,0.075c0,2.906,2.065,5.33,4.806,5.881
	c-0.502,0.137-1.032,0.21-1.578,0.21c-0.386,0-0.762-0.038-1.127-0.108c0.763,2.383,2.975,4.117,5.597,4.165
	c-2.05,1.608-4.634,2.567-7.44,2.567c-0.484,0-0.96-0.029-1.429-0.084c2.651,1.702,5.8,2.694,9.184,2.694
	c11.019,0,17.045-9.138,17.045-17.063c0-0.26-0.005-0.519-0.017-0.776C27.382,20.804,28.397,19.748,29.201,18.545z"/>
</svg>
