<?xml version="1.0" encoding="utf-8"?>
<!-- Generator: Adobe Illustrator 15.1.0, SVG Export Plug-In . SVG Version: 6.00 Build 0)  -->
<!DOCTYPE svg PUBLIC "-//W3C//DTD SVG 1.1//EN" "http://www.w3.org/Graphics/SVG/1.1/DTD/svg11.dtd">
<svg version="1.1" id="Layer_1" xmlns="http://www.w3.org/2000/svg" xmlns:xlink="http://www.w3.org/1999/xlink" x="0px" y="0px"
	 width="29.201px" height="49.754px" viewBox="0 0 29.201 49.754" enable-background="new 0 0 29.201 49.754" xml:space="preserve">
<path fill="#3FB9E9" d="M29.201,2.813c-1.074,0.477-2.229,0.799-3.441,0.944c1.237-0.742,2.187-1.917,2.634-3.318
	c-1.158,0.688-2.438,1.187-3.804,1.455C23.497,0.729,21.94,0,20.217,0c-3.309,0-5.991,2.685-5.991,5.997
	c0,0.47,0.053,0.928,0.155,1.367C9.402,7.115,4.988,4.727,2.033,1.099C1.517,1.984,1.222,3.015,1.222,4.114
	c0,2.081,1.058,3.916,2.665,4.992c-0.982-0.031-1.906-0.301-2.713-0.75c0,0.025,0,0.05,0,0.075c0,2.906,2.065,5.33,4.806,5.881
	c-0.502,0.137-1.032,0.21-1.578,0.21c-0.386,0-0.762-0.038-1.127-0.108c0.763,2.383,2.975,4.117,5.597,4.166
	c-2.05,1.607-4.634,2.566-7.44,2.566c-0.484,0-0.96-0.029-1.429-0.084c2.651,1.702,5.8,2.693,9.184,2.693
	c11.019,0,17.044-9.137,17.044-17.063c0-0.26-0.004-0.519-0.018-0.776C27.382,5.073,28.397,4.017,29.201,2.813z"/>
<path fill="#EEE9F0" d="M29.199,28.814c-1.074,0.477-2.229,0.799-3.441,0.943c1.237-0.741,2.188-1.916,2.635-3.317
	c-1.158,0.688-2.439,1.187-3.805,1.455c-1.093-1.166-2.648-1.894-4.373-1.894c-3.309,0-5.991,2.685-5.991,5.996
	c0,0.471,0.053,0.928,0.155,1.367c-4.979-0.25-9.393-2.639-12.348-6.267c-0.516,0.886-0.811,1.916-0.811,3.017
	c0,2.079,1.058,3.916,2.665,4.99c-0.982-0.029-1.906-0.301-2.713-0.75c0,0.023,0,0.051,0,0.075c0,2.905,2.065,5.329,4.806,5.881
	c-0.502,0.138-1.032,0.21-1.578,0.21c-0.386,0-0.762-0.038-1.127-0.107c0.763,2.383,2.975,4.117,5.597,4.166
	c-2.05,1.606-4.634,2.565-7.44,2.565c-0.484,0-0.96-0.028-1.429-0.084c2.651,1.702,5.8,2.692,9.184,2.692
	c11.019,0,17.043-9.137,17.043-17.063c0-0.26-0.004-0.52-0.017-0.775C27.38,31.074,28.395,30.018,29.199,28.814z"/>
</svg>
